SplineFontDB: 3.0
FontName: BohemiaText-Regular
FullName: Bohemia Text Regular
FamilyName: Bohemia Text
Weight: Regular
Copyright: Copyright (c) 2011, Barry Schwartz
Version: 1.00
DefaultBaseFilename: BohemiaText-400
ItalicAngle: 0
UnderlinePosition: -100
UnderlineWidth: 50
Ascent: 690
Descent: 310
InvalidEm: 0
sfntRevision: 0x00011999
LayerCount: 2
Layer: 0 0 "Back" 1
Layer: 1 0 "Fore" 0
FSType: 0
OS2Version: 4
OS2_WeightWidthSlopeOnly: 0
OS2_UseTypoMetrics: 1
CreationTime: 1287776574
ModificationTime: 1431281057
PfmFamily: 17
TTFWeight: 400
TTFWidth: 5
LineGap: 90
VLineGap: 0
Panose: 2 0 5 3 0 0 0 0 0 0
OS2TypoAscent: 690
OS2TypoAOffset: 0
OS2TypoDescent: -310
OS2TypoDOffset: 0
OS2TypoLinegap: 90
OS2WinAscent: 900
OS2WinAOffset: 0
OS2WinDescent: 391
OS2WinDOffset: 0
HheadAscent: 900
HheadAOffset: 0
HheadDescent: -391
HheadDOffset: 0
OS2SubXSize: 650
OS2SubYSize: 700
OS2SubXOff: 0
OS2SubYOff: 140
OS2SupXSize: 650
OS2SupYSize: 700
OS2SupXOff: 0
OS2SupYOff: 480
OS2StrikeYSize: 49
OS2StrikeYPos: 258
OS2CapHeight: 313
OS2XHeight: 392
OS2Vendor: '    '
OS2CodePages: 00000093.00000000
OS2UnicodeRanges: a000006f.0000004a.00000000.00000000
Lookup: 3 0 0 "'aalt' Access All Alternates lookup 0" { "'aalt' Access All Alternates lookup 0 subtable"  } ['aalt' ('DFLT' <'dflt' > ) ]
Lookup: 3 0 0 "'aalt' Access All Alternates in Latin lookup 1" { "'aalt' Access All Alternates in Latin lookup 1 subtable"  } ['aalt' ('latn' <'AZE ' 'CAT ' 'CRT ' 'MOL ' 'ROM ' 'TRK ' 'dflt' > ) ]
Lookup: 1 0 0 "'locl' Localized Forms in Latin lookup 2" { "'locl' Localized Forms in Latin lookup 2 subtable"  } ['locl' ('latn' <'CAT ' > ) ]
Lookup: 1 0 0 "'locl' Localized Forms in Latin lookup 3" { "'locl' Localized Forms in Latin lookup 3 subtable"  } ['locl' ('latn' <'MOL ' 'ROM ' > ) ]
Lookup: 1 0 0 "'locl' Localized Forms in Latin lookup 4" { "'locl' Localized Forms in Latin lookup 4 subtable"  } ['locl' ('latn' <'AZE ' 'CRT ' 'TRK ' > ) ]

StartChar: .notdef
Encoding: 65536 -1 0
Width: 500
Flags: MW
HStem: 0 50<100 400 100 450> 410 50<100 400 100 100>
VStem: 50 50<50 50 50 410> 400 50<50 410 410 410>
LayerCount: 2
Back
Fore
SplineSet
50 0 m 1
 50 460 l 1
 450 460 l 1
 450 0 l 1
 50 0 l 1
100 50 m 1
 400 50 l 1
 400 410 l 1
 100 410 l 1
 100 50 l 1
EndSplineSet
EndChar

StartChar: exclam
Encoding: 33 33 2
Width: 261
GlyphClass: 2
Flags: MW
HStem: -11 111<124.5 133.5 114.5 145.5> 656 20G<125 149.5>
VStem: 77 107<34 49> 94 78<646 659.5> 113 33<177 182>
LayerCount: 2
Back
Fore
SplineSet
77 38 m 0xe0
 77 60 105 100 124 100 c 0
 143 100 184 78 184 50 c 0
 184 18 152 -11 139 -11 c 0
 110 -11 77 21 77 38 c 0xe0
94 648 m 0xd0
 94 671 112 676 138 676 c 0
 161 676 172 672 172 652 c 0xd0
 172 640 158 446 146 182 c 0
 146 172 136 169 129 169 c 0
 122 169 113 172 113 182 c 0xc8
 107 405 94 594 94 648 c 0xd0
EndSplineSet
Position2: "'cpsp' Capital Spacing in Latin lookup 0 subtable" dx=4 dy=0 dh=8 dv=0
EndChar

StartChar: quotedbl
Encoding: 34 34 3
Width: 261
GlyphClass: 2
Flags: MW
HStem: 494 197<35.5 82.5 59 180>
VStem: 27 35 37 67 157 35 167 67
LayerCount: 2
Back
Fore
SplineSet
27 511 m 0xc0
 27 512 34 637 37 659 c 0
 39 676 46 691 72 691 c 0
 93 691 104 679 104 663 c 0xa0
 104 659 103 653 102 648 c 0
 94 616 67 532 62 515 c 0
 57 500 58 494 42 494 c 0
 29 494 27 503 27 511 c 0xc0
157 511 m 0x90
 157 512 164 637 167 659 c 0
 169 676 176 691 202 691 c 0
 223 691 234 679 234 663 c 0x88
 234 659 233 653 232 648 c 0
 224 616 197 532 192 515 c 0
 187 500 188 494 172 494 c 0
 159 494 157 503 157 511 c 0x90
EndSplineSet
EndChar

StartChar: numbersign
Encoding: 35 35 4
Width: 442
GlyphClass: 2
Flags: MW
HStem: -13 21G<101 119 246 264.5> 152 37<41 42 42 100 313 398> 320 36<34 132 37 127 338 397 397 399>
VStem: 88 46 167 46 233 46<2 2 2 4> 312 44
LayerCount: 2
Back
Fore
SplineSet
27 169 m 2
 27 173 l 2
 27 185 31 189 41 189 c 2
 110 189 l 2
 119 189 118 191 119 199 c 0
 124 237 131 293 133 311 c 0
 134 318 134 320 127 320 c 2
 37 320 l 2
 31 320 27 325 27 336 c 2
 27 342 l 2
 27 349 28 356 37 356 c 2
 132 356 l 2
 144 356 143 357 144 366 c 0
 167 523 164 521 167 526 c 0
 171 533 170 535 191 535 c 0
 202 535 213 535 213 521 c 0
 213 515 194 398 189 366 c 0
 188 357 187 356 195 356 c 2
 277 356 l 2
 288 356 285 355 287 366 c 0
 307 497 310 518 312 526 c 0
 313 528 315 535 329 535 c 0
 344 535 356 535 356 522 c 0
 356 513 337 393 333 364 c 0
 332 357 332 356 338 356 c 2
 397 356 l 2
 411 356 415 353 415 337 c 0
 415 321 407 320 399 320 c 2
 334 320 l 2
 324 320 324 319 323 311 c 2
 306 198 l 2
 305 190 304 189 313 189 c 2
 401 189 l 2
 413 189 415 184 415 169 c 0
 415 155 411 152 398 152 c 2
 307 152 l 2
 300 152 300 151 299 145 c 2
 279 2 l 2
 277 -9 276 -13 253 -13 c 0
 239 -13 233 -12 233 -2 c 0
 233 10 249 112 254 144 c 0
 255 151 256 152 248 152 c 2
 164 152 l 2
 156 152 156 151 155 144 c 0
 135 -2 136 0 134 -3 c 0
 130 -10 129 -13 109 -13 c 0
 93 -13 88 -9 88 3 c 0
 88 10 105 115 109 144 c 0
 110 152 109 152 100 152 c 2
 42 152 l 2
 28 152 27 160 27 169 c 2
162 199 m 0
 161 191 160 191 170 191 c 2
 252 191 l 2
 260 191 261 191 262 199 c 0
 271 258 276 293 279 310 c 0
 281 321 281 322 272 322 c 2
 191 322 l 2
 182 322 181 321 180 314 c 0
 175 278 165 218 162 199 c 0
EndSplineSet
EndChar

StartChar: dollar
Encoding: 36 36 5
Width: 500
GlyphClass: 2
Flags: MW
HStem: 605 26<269.5 270 268 273> 665 20G<246 255 255 258.5>
VStem: 59 61<451.5 518> 236 29<-139 -13 31 37 37 266 369 598 638 678> 382 63<120.5 180>
LayerCount: 2
Back
Fore
SplineSet
55 92 m 0
 55 106 82 113 93 113 c 0
 108 113 115 94 131 75 c 0
 155 46 183 27 226 23 c 0
 234 23 236 23 236 31 c 2
 236 270 l 2
 236 285 235 286 224 291 c 0
 146 326 59 374 59 474 c 0
 59 562 136 620 227 630 c 0
 235 631 236 630 236 638 c 2
 236 678 l 2
 236 685 240 685 246 685 c 2
 255 685 l 2
 262 685 265 685 265 678 c 2
 265 637 l 2
 265 633 266 631 270 631 c 0
 366 624 421 565 421 532 c 0
 421 514 391 502 383 502 c 0
 347 502 384 593 273 605 c 0
 266 605 265 607 265 598 c 2
 265 365 l 2
 265 348 265 350 275 345 c 0
 353 309 445 265 445 169 c 0
 445 72 384 6 276 -4 c 0
 266 -5 265 -7 265 -13 c 2
 265 -140 l 2
 265 -151 264 -151 250 -151 c 0
 236 -151 236 -150 236 -139 c 2
 236 -13 l 2
 236 -6 235 -5 226 -4 c 0
 135 2 55 50 55 92 c 0
120 484 m 0
 120 419 174 388 227 365 c 0
 233 363 236 361 236 369 c 2
 236 598 l 2
 236 604 236 605 231 605 c 0
 188 602 120 570 120 484 c 0
265 37 m 2
 265 25 266 23 275 25 c 0
 338 38 382 94 382 147 c 0
 382 213 331 245 273 271 c 0
 271 272 269 273 268 273 c 0
 265 273 265 269 265 266 c 2
 265 37 l 2
EndSplineSet
Substitution2: "'subs' Subscript in Latin lookup 10 subtable" dollar.sub
Substitution2: "'sups' Superscript in Latin lookup 9 subtable" dollar.sup
Substitution2: "'dnom' Denominators in Latin lookup 6 subtable" dollar.denom
Substitution2: "'numr' Numerators in Latin lookup 5 subtable" dollar.numer
AlternateSubs2: "'aalt' Access All Alternates in Latin lookup 1 subtable" dollar.sub dollar.sup dollar.denom dollar.numer
AlternateSubs2: "'aalt' Access All Alternates lookup 0 subtable" dollar.sub dollar.sup dollar.denom dollar.numer
EndChar

StartChar: percent
Encoding: 37 37 6
Width: 657
GlyphClass: 2
Flags: MW
HStem: -12 22<420.5 470.5 420.5 480> 247 21<135 184.5 135 192.5> 270 39<497 542.5> 488 23<353 372.5 344 377> 528 38<211.5 244.5 173.5 257.5>
VStem: 47 55<330.5 381 318.5 398.5> 289 35<460 464 464 478 460 481> 333 55<71.5 123 60 149.5> 575 35<148.5 222>
LayerCount: 2
Back
Fore
SplineSet
47 362 m 0
 47 435 120 566 227 566 c 0
 262 566 281 553 300 534 c 0
 314 520 332 511 356 511 c 0
 389 511 425 526 447 539 c 0
 483 561 512 593 536 616 c 0
 537 617 552 635 554 635 c 0
 560 635 575 626 575 620 c 0
 575 617 572 612 568 606 c 0
 512 524 158 -1 135 -37 c 0
 131 -44 120 -44 113 -44 c 0
 105 -44 92 -43 92 -33 c 0
 92 -30 95 -26 96 -24 c 0
 98 -19 407 417 458 506 c 0
 463 514 465 517 455 512 c 0
 438 504 398 488 356 488 c 0
 350 488 343 488 336 489 c 0
 322 490 324 490 324 478 c 2
 324 464 l 2
 324 456 324 447 323 439 c 0
 315 343 235 247 150 247 c 0
 83 247 47 299 47 362 c 0
102 336 m 0
 102 301 117 268 153 268 c 0
 216 268 289 353 289 461 c 0
 289 501 275 528 240 528 c 0
 183 528 102 426 102 336 c 0
333 103 m 0
 333 196 420 309 517 309 c 0
 575 309 610 265 610 197 c 0
 610 91 524 -12 436 -12 c 0
 369 -12 333 40 333 103 c 0
388 78 m 0
 388 42 402 10 439 10 c 0
 502 10 575 95 575 202 c 0
 575 242 560 270 525 270 c 0
 469 270 388 168 388 78 c 0
EndSplineSet
EndChar

StartChar: ampersand
Encoding: 38 38 7
Width: 657
GlyphClass: 2
Flags: MW
HStem: -13 68<214 262> -3 33<608 615.5> 329 36<432.5 437 437 445 432.5 500 617 618> 609 36<228.5 280>
VStem: 37 68<158 200.5> 103 71<499.5 531.5> 334 74<507 547.5>
LayerCount: 2
Back
Fore
SplineSet
37 155 m 0xba
 37 246 125 316 162 342 c 0
 170 348 174 351 174 353 c 0
 174 355 168 359 160 368 c 0
 138 393 103 439 103 486 c 0
 103 577 180 645 269 645 c 0
 341 645 408 612 408 542 c 0
 408 472 320 406 282 380 c 0
 267 370 268 370 281 359 c 0
 342 308 385 261 437 205 c 0
 449 192 448 193 455 206 c 0
 476 244 516 307 516 327 c 0
 516 328 517 329 500 329 c 2
 437 329 l 2
 424 329 424 331 424 347 c 0
 424 362 428 365 437 365 c 0
 453 365 497 362 548 362 c 0
 575 362 612 365 622 365 c 0
 633 365 635 361 635 344 c 0
 635 330 632 329 618 329 c 2
 584 329 l 2
 579 329 574 324 566 312 c 0
 546 283 473 180 470 170 c 0
 470 168 473 164 479 156 c 0
 501 129 527 88 544 57 c 0
 556 37 559 30 615 30 c 0
 624 30 624 29 624 15 c 0
 624 -2 623 -3 608 -3 c 0x76
 541 -4 505 -13 490 -13 c 0
 478 -13 475 -10 472 -1 c 0
 460 43 437 79 425 96 c 0
 418 106 417 106 409 97 c 0
 378 63 305 -13 219 -13 c 0
 108 -13 37 58 37 155 c 0xba
105 197 m 0xba
 105 119 177 55 251 55 c 0
 323 55 373 101 393 121 c 0
 396 125 398 127 398 129 c 0
 398 131 395 134 391 141 c 0
 354 193 274 272 217 319 c 0
 208 326 204 330 200 330 c 0
 197 330 190 325 177 316 c 0
 147 294 105 257 105 197 c 0xba
174 518 m 0x36
 174 481 203 438 224 413 c 0
 234 402 240 396 244 396 c 0
 249 396 254 400 264 407 c 0
 292 428 334 469 334 526 c 0
 334 569 303 609 257 609 c 0
 200 609 174 565 174 518 c 0x36
EndSplineSet
Substitution2: "'c2sc' Capitals to Small Capitals in Latin lookup 14 subtable" ampersand.c2
AlternateSubs2: "'aalt' Access All Alternates in Latin lookup 1 subtable" ampersand.c2
AlternateSubs2: "'aalt' Access All Alternates lookup 0 subtable" ampersand.c2
Position2: "'cpsp' Capital Spacing in Latin lookup 0 subtable" dx=4 dy=0 dh=8 dv=0
EndChar

StartChar: quotesingle
Encoding: 39 39 8
Width: 131
GlyphClass: 2
Flags: MW
HStem: 494 197<35.5 82.5>
VStem: 27 35 37 67
LayerCount: 2
Back
Fore
SplineSet
27 511 m 0xc0
 27 512 34 637 37 659 c 0
 39 676 46 691 72 691 c 0
 93 691 104 679 104 663 c 0xa0
 104 659 103 653 102 648 c 0
 94 616 67 532 62 515 c 0
 57 500 58 494 42 494 c 0
 29 494 27 503 27 511 c 0xc0
EndSplineSet
EndChar

StartChar: parenleft
Encoding: 40 40 9
Width: 279
GlyphClass: 2
Flags: MW
VStem: 37 63<170 416.5>
LayerCount: 2
Back
Fore
SplineSet
37 285 m 0
 37 548 217 692 223 692 c 0
 231 692 242 685 242 676 c 0
 242 667 100 546 100 297 c 0
 100 14 238 -107 238 -126 c 0
 238 -135 232 -143 219 -143 c 0
 204 -143 37 55 37 285 c 0
EndSplineSet
Substitution2: "'case' Case-Sensitive Forms in Latin lookup 16 subtable" parenleft.u
Substitution2: "'subs' Subscript in Latin lookup 10 subtable" parenleft.sub
Substitution2: "'sups' Superscript in Latin lookup 9 subtable" parenleft.sup
Substitution2: "'dnom' Denominators in Latin lookup 6 subtable" parenleft.denom
Substitution2: "'numr' Numerators in Latin lookup 5 subtable" parenleft.numer
AlternateSubs2: "'aalt' Access All Alternates in Latin lookup 1 subtable" parenleft.u parenleft.sub parenleft.sup parenleft.denom parenleft.numer
AlternateSubs2: "'aalt' Access All Alternates lookup 0 subtable" parenleft.u parenleft.sub parenleft.sup parenleft.denom parenleft.numer
EndChar

StartChar: parenright
Encoding: 41 41 10
Width: 279
GlyphClass: 2
Flags: MW
VStem: 179 63<132.5 379 132.5 393.5>
LayerCount: 2
Back
Fore
SplineSet
37 -127 m 0
 37 -118 179 3 179 252 c 0
 179 535 41 656 41 675 c 0
 41 684 47 692 60 692 c 0
 75 692 242 494 242 264 c 0
 242 1 62 -143 56 -143 c 0
 48 -143 37 -136 37 -127 c 0
EndSplineSet
Substitution2: "'case' Case-Sensitive Forms in Latin lookup 16 subtable" parenright.u
Substitution2: "'subs' Subscript in Latin lookup 10 subtable" parenright.sub
Substitution2: "'sups' Superscript in Latin lookup 9 subtable" parenright.sup
Substitution2: "'dnom' Denominators in Latin lookup 6 subtable" parenright.denom
Substitution2: "'numr' Numerators in Latin lookup 5 subtable" parenright.numer
AlternateSubs2: "'aalt' Access All Alternates in Latin lookup 1 subtable" parenright.u parenright.sub parenright.sup parenright.denom parenright.numer
AlternateSubs2: "'aalt' Access All Alternates lookup 0 subtable" parenright.u parenright.sub parenright.sup parenright.denom parenright.numer
EndChar

StartChar: asterisk
Encoding: 42 42 11
Width: 391
GlyphClass: 2
Flags: MW
HStem: 417 64 454 73 658 20G<261.5 277>
VStem: 161 69<377.5 396> 234 64
LayerCount: 2
Back
Fore
SplineSet
27 447 m 0xb8
 27 463 40 476 52 481 c 0xb8
 72 490 125 507 153 518 c 0
 177 528 174 528 156 541 c 0
 131 559 84 584 68 601 c 0
 61 609 54 621 54 632 c 0
 54 647 64 662 85 662 c 0
 98 662 111 654 118 646 c 0
 135 628 163 577 179 552 c 0
 188 538 186 537 192 551 c 0
 203 578 221 640 234 658 c 0
 241 669 255 678 268 678 c 0
 286 678 298 661 298 647 c 0
 298 636 293 626 288 619 c 0
 272 596 230 566 210 544 c 0
 199 532 193 529 216 527 c 0
 247 524 311 527 333 520 c 0
 348 515 364 504 364 486 c 0
 364 465 347 454 329 454 c 0x78
 306 454 252 488 215 505 c 0
 199 512 197 516 201 497 c 0
 209 465 230 412 230 387 c 0
 230 368 221 345 197 345 c 0
 172 345 161 369 161 386 c 0
 161 406 173 454 178 486 c 0
 179 491 180 498 180 502 c 0
 180 516 173 509 164 500 c 0
 141 479 106 436 86 424 c 0
 79 420 70 417 60 417 c 0
 42 417 27 428 27 447 c 0xb8
EndSplineSet
EndChar

StartChar: plus
Encoding: 43 43 12
Width: 527
GlyphClass: 2
Flags: MW
HStem: -25 21G<238 271.5> 185 50<38.5 219 49 217 303 475>
VStem: 238 51<-4 170 252 259 259 422>
LayerCount: 2
Back
Fore
SplineSet
28 212 m 0
 28 225 29 235 49 235 c 2
 219 235 l 2
 237 235 238 241 238 251 c 2
 238 427 l 2
 238 444 248 445 262 445 c 0
 276 445 289 444 289 422 c 2
 289 259 l 2
 289 245 290 235 303 235 c 2
 480 235 l 2
 498 235 499 225 499 211 c 0
 499 194 498 185 475 185 c 2
 303 185 l 2
 288 185 289 182 289 170 c 2
 289 -5 l 2
 289 -24 277 -25 266 -25 c 0
 246 -25 238 -24 238 -4 c 2
 238 170 l 2
 238 186 234 185 217 185 c 2
 48 185 l 2
 29 185 28 195 28 212 c 0
EndSplineSet
EndChar

StartChar: comma
Encoding: 44 44 13
Width: 203
GlyphClass: 2
Flags: MW
HStem: -159 250<46.5 101>
VStem: 107 59<-18 -11.5>
LayerCount: 2
Back
Fore
SplineSet
37 -139 m 0
 37 -130 107 -84 107 -34 c 0
 107 11 41 28 41 48 c 0
 41 67 85 91 92 91 c 0
 110 91 166 53 166 25 c 0
 166 -61 63 -159 51 -159 c 0
 42 -159 37 -146 37 -139 c 0
EndSplineSet
Substitution2: "'subs' Subscript in Latin lookup 10 subtable" comma.sub
Substitution2: "'sups' Superscript in Latin lookup 9 subtable" comma.sup
Substitution2: "'dnom' Denominators in Latin lookup 6 subtable" comma.denom
Substitution2: "'numr' Numerators in Latin lookup 5 subtable" comma.numer
AlternateSubs2: "'aalt' Access All Alternates in Latin lookup 1 subtable" comma.sub comma.sup comma.denom comma.numer
AlternateSubs2: "'aalt' Access All Alternates lookup 0 subtable" comma.sub comma.sup comma.denom comma.numer
EndChar

StartChar: hyphen
Encoding: 45 45 14
Width: 258
GlyphClass: 2
Flags: MW
HStem: 195 49 203 48
VStem: 21 210<199 243.5>
LayerCount: 2
Back
Fore
SplineSet
21 201 m 0xa0
 21 208 31 243 40 244 c 0xa0
 50 245 221 251 227 251 c 0
 231 251 231 245 231 242 c 0
 231 230 228 204 221 203 c 0x60
 207 202 42 195 28 195 c 0
 24 195 21 197 21 201 c 0xa0
EndSplineSet
Substitution2: "'case' Case-Sensitive Forms in Latin lookup 16 subtable" hyphen.u
Substitution2: "'subs' Subscript in Latin lookup 10 subtable" hyphen.sub
Substitution2: "'sups' Superscript in Latin lookup 9 subtable" hyphen.sup
Substitution2: "'dnom' Denominators in Latin lookup 6 subtable" hyphen.denom
Substitution2: "'numr' Numerators in Latin lookup 5 subtable" hyphen.numer
AlternateSubs2: "'aalt' Access All Alternates in Latin lookup 1 subtable" hyphen.u hyphen.sub hyphen.sup hyphen.denom hyphen.numer
AlternateSubs2: "'aalt' Access All Alternates lookup 0 subtable" hyphen.u hyphen.sub hyphen.sup hyphen.denom hyphen.numer
EndChar

StartChar: period
Encoding: 46 46 15
Width: 221
GlyphClass: 2
Flags: MW
HStem: -11 111<104 113.5 94.5 125.5>
VStem: 57 107<34 49>
LayerCount: 2
Back
Fore
SplineSet
57 38 m 0
 57 60 85 100 104 100 c 0
 123 100 164 78 164 50 c 0
 164 18 132 -11 119 -11 c 0
 89 -11 57 21 57 38 c 0
EndSplineSet
Substitution2: "'subs' Subscript in Latin lookup 10 subtable" period.sub
Substitution2: "'sups' Superscript in Latin lookup 9 subtable" period.sup
Substitution2: "'dnom' Denominators in Latin lookup 6 subtable" period.denom
Substitution2: "'numr' Numerators in Latin lookup 5 subtable" period.numer
AlternateSubs2: "'aalt' Access All Alternates in Latin lookup 1 subtable" period.sub period.sup period.denom period.numer
AlternateSubs2: "'aalt' Access All Alternates lookup 0 subtable" period.sub period.sup period.denom period.numer
EndChar

StartChar: slash
Encoding: 47 47 16
Width: 406
GlyphClass: 2
Flags: W
LayerCount: 2
Back
Fore
SplineSet
5 -224 m 0
 5 -220 17 -185 26 -162 c 2
 343 688 l 2
 348 704 348 707 375 707 c 0
 394 707 400 703 400 696 c 0
 400 691 391 663 385 648 c 2
 71 -203 l 2
 60 -234 61 -236 34 -236 c 0
 23 -236 5 -236 5 -224 c 0
EndSplineSet
Substitution2: "'numr' Numerators in Latin lookup 5 subtable" fraction
AlternateSubs2: "'aalt' Access All Alternates in Latin lookup 1 subtable" fraction
AlternateSubs2: "'aalt' Access All Alternates lookup 0 subtable" fraction
EndChar

StartChar: zero
Encoding: 48 48 17
Width: 500
GlyphClass: 2
Flags: MW
HStem: -8 54<203 299 203 301> 337 46<206.5 287.5>
VStem: 55 39<145.5 229.5 145.5 245.5> 402 43<159.5 240.5 130.5 241.5>
LayerCount: 2
Back
Fore
SplineSet
55 189 m 0
 55 302 142 383 251 383 c 0
 375 383 445 293 445 188 c 0
 445 73 357 -8 245 -8 c 0
 139 -8 55 83 55 189 c 0
94 189 m 0
 94 102 162 46 244 46 c 0
 354 46 402 117 402 202 c 0
 402 281 328 337 247 337 c 0
 166 337 94 270 94 189 c 0
EndSplineSet
Substitution2: "'pnum' Proportional Numbers in Latin lookup 12 subtable" zero.p
Substitution2: "'lnum' Lining Figures in Latin lookup 11 subtable" zero.u
Substitution2: "'subs' Subscript in Latin lookup 10 subtable" zero.sub
Substitution2: "'sups' Superscript in Latin lookup 9 subtable" zero.sup
Substitution2: "'dnom' Denominators in Latin lookup 6 subtable" zero.denom
Substitution2: "'numr' Numerators in Latin lookup 5 subtable" zero.numer
AlternateSubs2: "'aalt' Access All Alternates in Latin lookup 1 subtable" zero.p zero.u zero.sub zero.sup zero.denom zero.numer
AlternateSubs2: "'aalt' Access All Alternates lookup 0 subtable" zero.p zero.u zero.sub zero.sup zero.denom zero.numer
EndChar

StartChar: one
Encoding: 49 49 18
Width: 500
GlyphClass: 2
Flags: MW
HStem: -5 33<162 168.5 332.5 342 342 348> 360 31<242.5 299>
VStem: 215 77<125 156.5 103.5 214 103.5 237>
LayerCount: 2
Back
Fore
SplineSet
147 12 m 0
 147 22 148 28 162 28 c 2
 207 28 l 2
 212 28 214 29 214 37 c 0
 215 66 215 95 215 125 c 2
 215 214 l 2
 215 260 215 307 213 351 c 0
 213 360 214 360 206 360 c 2
 161 360 l 2
 151 360 150 367 150 376 c 0
 150 385 150 393 161 393 c 0
 180 393 230 391 255 391 c 0
 280 391 329 393 348 393 c 0
 359 393 359 387 359 376 c 0
 359 366 359 360 345 360 c 2
 299 360 l 2
 295 360 296 359 295 351 c 0
 292 293 292 196 292 117 c 0
 292 90 292 64 293 37 c 0
 293 29 293 28 302 28 c 2
 342 28 l 2
 354 28 356 21 356 12 c 0
 356 3 355 -5 342 -5 c 0
 323 -5 276 -3 251 -3 c 0
 226 -3 178 -5 159 -5 c 0
 147 -5 147 1 147 12 c 0
EndSplineSet
Substitution2: "'pnum' Proportional Numbers in Latin lookup 12 subtable" one.p
Substitution2: "'lnum' Lining Figures in Latin lookup 11 subtable" one.u
Substitution2: "'subs' Subscript in Latin lookup 10 subtable" one.sub
Substitution2: "'sups' Superscript in Latin lookup 9 subtable" one.sup
Substitution2: "'dnom' Denominators in Latin lookup 6 subtable" one.denom
Substitution2: "'numr' Numerators in Latin lookup 5 subtable" one.numer
AlternateSubs2: "'aalt' Access All Alternates in Latin lookup 1 subtable" one.p one.u one.sub one.sup one.denom one.numer
AlternateSubs2: "'aalt' Access All Alternates lookup 0 subtable" one.p one.u one.sub one.sup one.denom one.numer
EndChar

StartChar: two
Encoding: 50 50 19
Width: 500
GlyphClass: 2
Flags: MW
HStem: -3 64<178 387 387 389 178 405> 361 48<192 229.5>
VStem: 287 74<236.5 299.5>
LayerCount: 2
Back
Fore
SplineSet
57 323 m 0
 57 338 154 409 230 409 c 0
 306 409 361 353 361 280 c 0
 361 193 240 112 178 74 c 0
 167 67 161 64 161 63 c 0
 161 61 166 61 178 61 c 2
 387 61 l 2
 391 61 422 129 425 129 c 0
 429 129 447 125 447 121 c 0
 447 116 428 40 419 5 c 0
 417 -1 412 -3 405 -3 c 2
 79 -3 l 2
 67 -3 60 3 60 11 c 0
 60 19 69 26 74 30 c 0
 127 80 287 150 287 270 c 0
 287 329 253 361 206 361 c 0
 139 361 81 299 76 299 c 0
 72 299 57 314 57 323 c 0
EndSplineSet
Substitution2: "'pnum' Proportional Numbers in Latin lookup 12 subtable" two.p
Substitution2: "'lnum' Lining Figures in Latin lookup 11 subtable" two.u
Substitution2: "'subs' Subscript in Latin lookup 10 subtable" two.sub
Substitution2: "'sups' Superscript in Latin lookup 9 subtable" two.sup
Substitution2: "'dnom' Denominators in Latin lookup 6 subtable" two.denom
Substitution2: "'numr' Numerators in Latin lookup 5 subtable" two.numer
AlternateSubs2: "'aalt' Access All Alternates in Latin lookup 1 subtable" two.p two.u two.sub two.sup two.denom two.numer
AlternateSubs2: "'aalt' Access All Alternates lookup 0 subtable" two.p two.u two.sub two.sup two.denom two.numer
EndChar

StartChar: three
Encoding: 51 51 20
Width: 500
GlyphClass: 2
Flags: MW
HStem: -216 31<213 263.5 213 273> 86 50 366 44<200 250.5>
VStem: 308 67<249 297> 356 69<-77.5 7>
LayerCount: 2
Back
Fore
SplineSet
77 -164 m 0xe8
 77 -151 98 -141 118 -141 c 0
 136 -141 146 -147 161 -156 c 0
 182 -168 193 -185 233 -185 c 0
 294 -185 356 -116 356 -39 c 0xe8
 356 53 310 89 208 89 c 0
 187 89 160 86 155 86 c 0
 141 86 141 98 138 106 c 0
 137 109 136 112 136 116 c 0
 136 130 150 133 159 136 c 0
 258 164 308 200 308 272 c 0
 308 322 275 366 226 366 c 0
 151 366 119 315 113 315 c 0
 108 315 92 330 92 335 c 0
 92 347 162 410 238 410 c 0
 321 410 375 360 375 284 c 0xf0
 375 214 328 179 282 159 c 0
 265 152 247 144 247 141 c 0
 247 138 257 138 275 137 c 0
 361 130 425 87 425 -27 c 0
 425 -139 323 -216 223 -216 c 0
 175 -216 77 -196 77 -164 c 0xe8
EndSplineSet
Substitution2: "'pnum' Proportional Numbers in Latin lookup 12 subtable" three.p
Substitution2: "'lnum' Lining Figures in Latin lookup 11 subtable" three.u
Substitution2: "'subs' Subscript in Latin lookup 10 subtable" three.sub
Substitution2: "'sups' Superscript in Latin lookup 9 subtable" three.sup
Substitution2: "'dnom' Denominators in Latin lookup 6 subtable" three.denom
Substitution2: "'numr' Numerators in Latin lookup 5 subtable" three.numer
AlternateSubs2: "'aalt' Access All Alternates in Latin lookup 1 subtable" three.p three.u three.sub three.sup three.denom three.numer
AlternateSubs2: "'aalt' Access All Alternates lookup 0 subtable" three.p three.u three.sub three.sup three.denom three.numer
EndChar

StartChar: four
Encoding: 52 52 21
Width: 500
GlyphClass: 2
Flags: MW
HStem: -3 60<118 286 286 289 381 382 382 437> 377 20G<345 358.5>
VStem: 302 67<74 290 290 302> 302 78<-201 -196.5 -203.5 -15>
LayerCount: 2
Back
Fore
SplineSet
37 8 m 0xd0
 37 36 98 112 122 140 c 2
 255 300 l 2
 263 309 337 397 353 397 c 0
 364 397 369 387 369 368 c 2
 369 72 l 2xe0
 369 57 369 57 381 57 c 2
 439 57 l 2
 446 57 449 57 449 47 c 2
 449 7 l 2
 449 -3 449 -3 437 -3 c 2
 382 -3 l 2
 374 -3 370 -3 371 -14 c 0
 374 -75 380 -194 380 -199 c 0
 380 -208 374 -212 361 -213 c 2
 316 -217 l 2
 308 -217 302 -211 302 -201 c 2
 302 -15 l 2
 302 -5 301 -3 289 -3 c 2
 58 -3 l 2
 51 -3 37 -3 37 8 c 0xd0
112 83 m 2
 98 66 89 57 118 57 c 2
 286 57 l 2
 302 57 302 58 302 74 c 2
 302 290 l 2
 302 314 299 308 286 293 c 2
 112 83 l 2
EndSplineSet
Substitution2: "'pnum' Proportional Numbers in Latin lookup 12 subtable" four.p
Substitution2: "'lnum' Lining Figures in Latin lookup 11 subtable" four.u
Substitution2: "'subs' Subscript in Latin lookup 10 subtable" four.sub
Substitution2: "'sups' Superscript in Latin lookup 9 subtable" four.sup
Substitution2: "'dnom' Denominators in Latin lookup 6 subtable" four.denom
Substitution2: "'numr' Numerators in Latin lookup 5 subtable" four.numer
AlternateSubs2: "'aalt' Access All Alternates in Latin lookup 1 subtable" four.p four.u four.sub four.sup four.denom four.numer
AlternateSubs2: "'aalt' Access All Alternates lookup 0 subtable" four.p four.u four.sub four.sup four.denom four.numer
EndChar

StartChar: five
Encoding: 53 53 22
Width: 500
GlyphClass: 2
Flags: MW
HStem: -224 38<113 113> 326 68<154.5 178> 394 20G
VStem: 97 48<152.5 215> 306 77<-57.5 53.5>
LayerCount: 2
Back
Fore
SplineSet
97 158 m 0xd8
 97 173 129 306 144 386 c 0
 146 395 152 394 157 394 c 0xd8
 165 394 306 385 369 385 c 0
 380 385 388 386 390 388 c 0
 392 390 398 414 403 414 c 2
 407 414 l 2xb8
 412 414 423 414 423 405 c 0
 421 376 420 363 419 336 c 0
 418 317 393 316 379 316 c 0
 301 316 258 322 178 326 c 0
 168 326 166 324 165 318 c 0
 158 283 145 218 145 212 c 0
 145 208 147 209 153 208 c 0
 280 196 383 153 383 19 c 0
 383 -157 150 -224 113 -224 c 0
 104 -224 102 -219 102 -203 c 0
 102 -190 104 -187 112 -186 c 0
 178 -173 306 -118 306 3 c 0
 306 104 218 143 115 143 c 0
 104 143 97 147 97 158 c 0xd8
EndSplineSet
Substitution2: "'pnum' Proportional Numbers in Latin lookup 12 subtable" five.p
Substitution2: "'lnum' Lining Figures in Latin lookup 11 subtable" five.u
Substitution2: "'subs' Subscript in Latin lookup 10 subtable" five.sub
Substitution2: "'sups' Superscript in Latin lookup 9 subtable" five.sup
Substitution2: "'dnom' Denominators in Latin lookup 6 subtable" five.denom
Substitution2: "'numr' Numerators in Latin lookup 5 subtable" five.numer
AlternateSubs2: "'aalt' Access All Alternates in Latin lookup 1 subtable" five.p five.u five.sub five.sup five.denom five.numer
AlternateSubs2: "'aalt' Access All Alternates lookup 0 subtable" five.p five.u five.sub five.sup five.denom five.numer
EndChar

StartChar: six
Encoding: 54 54 23
Width: 500
GlyphClass: 2
Flags: MW
HStem: -8 37<209 291 209 298.5> 333 28<237.5 269> 624 34
VStem: 45 73<161 220 161 369.5> 370 74<134 215>
LayerCount: 2
Back
Fore
SplineSet
45 231 m 0
 45 508 340 658 368 658 c 0
 377 658 385 641 385 635 c 0
 385 629 378 626 373 624 c 0
 237 566 169 431 147 374 c 0
 142 362 140 355 140 352 c 0
 140 350 141 350 143 350 c 0
 146 350 151 351 161 353 c 0
 193 359 222 361 253 361 c 0
 358 361 444 292 444 189 c 0
 444 65 353 -8 244 -8 c 0
 128 -8 45 75 45 231 c 0
118 201 m 0
 118 121 160 29 258 29 c 0
 324 29 370 100 370 168 c 0
 370 262 321 333 217 333 c 0
 203 333 170 330 152 327 c 0
 130 323 132 321 127 297 c 0
 122 273 118 239 118 201 c 0
EndSplineSet
Substitution2: "'pnum' Proportional Numbers in Latin lookup 12 subtable" six.p
Substitution2: "'lnum' Lining Figures in Latin lookup 11 subtable" six.u
Substitution2: "'subs' Subscript in Latin lookup 10 subtable" six.sub
Substitution2: "'sups' Superscript in Latin lookup 9 subtable" six.sup
Substitution2: "'dnom' Denominators in Latin lookup 6 subtable" six.denom
Substitution2: "'numr' Numerators in Latin lookup 5 subtable" six.numer
AlternateSubs2: "'aalt' Access All Alternates in Latin lookup 1 subtable" six.p six.u six.sub six.sup six.denom six.numer
AlternateSubs2: "'aalt' Access All Alternates lookup 0 subtable" six.p six.u six.sub six.sup six.denom six.numer
EndChar

StartChar: seven
Encoding: 55 55 24
Width: 500
GlyphClass: 2
Flags: MW
HStem: 332 64<289 402> 401 20G<104 119.5>
VStem: 81 31<274 274 274 278.5> 81 47
LayerCount: 2
Back
Fore
SplineSet
81 277 m 0xe0
 81 280 87 336 93 400 c 0
 95 419 96 421 112 421 c 0xe0
 127 421 128 417 128 405 c 2
 128 400 l 2xd0
 128 396 239 396 289 396 c 2
 455 396 l 2
 464 396 475 394 475 384 c 0
 475 380 473 377 471 373 c 0
 349 146 169 -220 158 -220 c 0
 147 -220 119 -205 119 -189 c 0
 119 -182 343 202 408 315 c 0
 417 331 420 332 402 332 c 2
 203 332 l 2
 175 332 119 330 118 322 c 2
 112 274 l 2
 111 266 104 266 99 266 c 0
 88 266 81 268 81 277 c 0xe0
EndSplineSet
Substitution2: "'pnum' Proportional Numbers in Latin lookup 12 subtable" seven.p
Substitution2: "'lnum' Lining Figures in Latin lookup 11 subtable" seven.u
Substitution2: "'subs' Subscript in Latin lookup 10 subtable" seven.sub
Substitution2: "'sups' Superscript in Latin lookup 9 subtable" seven.sup
Substitution2: "'dnom' Denominators in Latin lookup 6 subtable" seven.denom
Substitution2: "'numr' Numerators in Latin lookup 5 subtable" seven.numer
AlternateSubs2: "'aalt' Access All Alternates in Latin lookup 1 subtable" seven.p seven.u seven.sub seven.sup seven.denom seven.numer
AlternateSubs2: "'aalt' Access All Alternates lookup 0 subtable" seven.p seven.u seven.sub seven.sup seven.denom seven.numer
EndChar

StartChar: eight
Encoding: 56 56 25
Width: 500
GlyphClass: 2
Flags: MW
HStem: -9 34<214.5 286 214.5 303.5> 633 28<214.5 280>
VStem: 68 59<122.5 201 122.5 208> 77 64<483 541 483 541.5> 360 51<474.5 543.5> 362 71<120 194.5>
LayerCount: 2
Back
Fore
SplineSet
68 154 m 0xe4
 68 262 147 302 183 320 c 0
 190 324 193 324 193 325 c 0
 193 326 187 329 179 335 c 0
 144 359 77 413 77 495 c 0
 77 588 154 661 250 661 c 0
 338 661 411 600 411 508 c 0xd8
 411 410 341 369 307 344 c 0
 303 341 302 340 302 339 c 0
 302 338 303 338 307 335 c 0
 340 315 433 275 433 154 c 0
 433 57 359 -9 248 -9 c 0
 152 -9 68 57 68 154 c 0xe4
127 164 m 0xe4
 127 81 177 25 252 25 c 0
 320 25 362 87 362 153 c 0
 362 236 304 269 245 301 c 0
 237 306 221 313 219 313 c 0
 216 312 200 302 188 293 c 0
 166 277 127 238 127 164 c 0xe4
141 507 m 0xd8
 141 459 168 423 209 391 c 0
 230 375 249 363 262 357 c 0
 271 353 276 350 277 350 c 0
 278 350 281 352 289 359 c 0
 319 386 360 449 360 500 c 0
 360 587 312 633 248 633 c 0
 181 633 141 575 141 507 c 0xd8
EndSplineSet
Substitution2: "'pnum' Proportional Numbers in Latin lookup 12 subtable" eight.p
Substitution2: "'lnum' Lining Figures in Latin lookup 11 subtable" eight.u
Substitution2: "'subs' Subscript in Latin lookup 10 subtable" eight.sub
Substitution2: "'sups' Superscript in Latin lookup 9 subtable" eight.sup
Substitution2: "'dnom' Denominators in Latin lookup 6 subtable" eight.denom
Substitution2: "'numr' Numerators in Latin lookup 5 subtable" eight.numer
AlternateSubs2: "'aalt' Access All Alternates in Latin lookup 1 subtable" eight.p eight.u eight.sub eight.sup eight.denom eight.numer
AlternateSubs2: "'aalt' Access All Alternates lookup 0 subtable" eight.p eight.u eight.sub eight.sup eight.denom eight.numer
EndChar

StartChar: nine
Encoding: 57 57 26
Width: 500
GlyphClass: 2
Flags: MW
HStem: 29 37<214 255> 365 36<212.5 301>
VStem: 57 71<177 256 177 266> 384 72<163 218.5>
LayerCount: 2
Back
Fore
SplineSet
57 204 m 0
 57 328 144 401 253 401 c 0
 366 401 456 318 456 162 c 0
 456 -135 90 -221 71 -221 c 0
 65 -221 60 -199 60 -192 c 0
 60 -182 292 -144 364 57 c 0
 369 72 366 68 355 62 c 0
 328 46 282 29 228 29 c 0
 122 29 57 102 57 204 c 0
128 214 m 0
 128 140 173 66 255 66 c 0
 322 66 363 89 378 116 c 0
 382 124 384 154 384 172 c 0
 384 265 346 365 256 365 c 0
 169 365 128 298 128 214 c 0
EndSplineSet
Substitution2: "'pnum' Proportional Numbers in Latin lookup 12 subtable" nine.p
Substitution2: "'lnum' Lining Figures in Latin lookup 11 subtable" nine.u
Substitution2: "'subs' Subscript in Latin lookup 10 subtable" nine.sub
Substitution2: "'sups' Superscript in Latin lookup 9 subtable" nine.sup
Substitution2: "'dnom' Denominators in Latin lookup 6 subtable" nine.denom
Substitution2: "'numr' Numerators in Latin lookup 5 subtable" nine.numer
AlternateSubs2: "'aalt' Access All Alternates in Latin lookup 1 subtable" nine.p nine.u nine.sub nine.sup nine.denom nine.numer
AlternateSubs2: "'aalt' Access All Alternates lookup 0 subtable" nine.p nine.u nine.sub nine.sup nine.denom nine.numer
EndChar

StartChar: colon
Encoding: 58 58 27
Width: 221
GlyphClass: 2
Flags: MW
HStem: -11 111<104 113.5 94.5 125.5> 264 111<104 113.5 94.5 125.5>
VStem: 57 107<34 49 309 324>
LayerCount: 2
Back
Fore
SplineSet
57 38 m 0
 57 60 85 100 104 100 c 0
 123 100 164 78 164 50 c 0
 164 18 132 -11 119 -11 c 0
 89 -11 57 21 57 38 c 0
57 313 m 0
 57 335 85 375 104 375 c 0
 123 375 164 353 164 325 c 0
 164 293 132 264 119 264 c 0
 89 264 57 296 57 313 c 0
EndSplineSet
EndChar

StartChar: semicolon
Encoding: 59 59 28
Width: 223
GlyphClass: 2
Flags: MW
HStem: 264 111<105 114.5 95.5 126.5>
VStem: 58 107<309 324> 117 59<-18 -11.5>
LayerCount: 2
Back
Fore
SplineSet
47 -139 m 0xa0
 47 -130 117 -84 117 -34 c 0
 117 11 51 28 51 48 c 0
 51 67 95 91 102 91 c 0
 120 91 176 53 176 25 c 0
 176 -61 73 -159 61 -159 c 0
 52 -159 47 -146 47 -139 c 0xa0
58 313 m 0xc0
 58 335 86 375 105 375 c 0
 124 375 165 353 165 325 c 0
 165 293 133 264 120 264 c 0
 90 264 58 296 58 313 c 0xc0
EndSplineSet
EndChar

StartChar: less
Encoding: 60 60 29
Width: 527
GlyphClass: 2
Flags: MW
HStem: 364 20G<464 473>
LayerCount: 2
Back
Fore
SplineSet
38 211 m 0
 38 221 39 228 55 234 c 0
 462 382 460 384 468 384 c 0
 478 384 490 378 490 356 c 0
 490 345 480 340 472 337 c 2
 157 226 l 2
 140 220 121 212 117 208 c 1
 121 204 140 199 157 193 c 2
 477 81 l 2
 484 79 490 74 490 65 c 0
 490 56 483 38 463 38 c 0
 455 38 459 38 54 185 c 0
 39 190 38 197 38 211 c 0
EndSplineSet
EndChar

StartChar: equal
Encoding: 61 61 30
Width: 527
GlyphClass: 2
Flags: MW
HStem: 107 51<38 480 49 475> 263 50<38 480 49 475>
LayerCount: 2
Back
Fore
SplineSet
28 134 m 0
 28 147 29 158 49 158 c 2
 480 158 l 2
 498 158 499 148 499 134 c 0
 499 117 498 107 475 107 c 2
 48 107 l 2
 28 107 28 117 28 134 c 0
28 290 m 0
 28 303 29 313 49 313 c 2
 480 313 l 2
 498 313 499 303 499 289 c 0
 499 272 498 263 475 263 c 2
 48 263 l 2
 28 263 28 273 28 290 c 0
EndSplineSet
EndChar

StartChar: greater
Encoding: 62 62 31
Width: 527
GlyphClass: 2
Flags: MW
HStem: 364 20G<53.5 63>
LayerCount: 2
Back
Fore
SplineSet
38 65 m 0
 38 73 43 79 50 81 c 2
 371 193 l 2
 389 199 408 205 411 208 c 1
 406 213 387 220 371 226 c 2
 55 337 l 2
 47 340 38 345 38 356 c 0
 38 378 48 384 59 384 c 0
 67 384 65 382 472 234 c 0
 488 228 490 222 490 211 c 0
 490 197 488 190 473 185 c 0
 68 38 72 38 64 38 c 0
 44 38 38 56 38 65 c 0
EndSplineSet
EndChar

StartChar: question
Encoding: 63 63 32
Width: 364
GlyphClass: 2
Flags: MW
HStem: -11 111<140.5 149.5 130.5 161.5> 242 77<189.5 224 224 255>
VStem: 93 107<34 49> 134 34<134.5 135 131 148.5> 308 29<387.5 449>
LayerCount: 2
Back
Fore
SplineSet
57 605 m 2xd8
 57 650 l 2
 57 656 59 670 69 670 c 0
 82 670 83 646 88 645 c 0
 161 633 337 606 337 419 c 0
 337 328 312 242 198 242 c 0
 181 242 177 242 176 228 c 0
 173 196 170 167 168 135 c 0
 168 127 166 126 153 126 c 0
 135 126 134 127 134 142 c 0
 134 155 135 284 136 298 c 0
 137 317 146 319 164 319 c 2
 224 319 l 2
 303 319 308 371 308 404 c 0
 308 494 238 567 83 587 c 0
 70 589 57 588 57 605 c 2xd8
93 38 m 0xe8
 93 60 121 100 140 100 c 0
 159 100 200 78 200 50 c 0
 200 18 168 -11 155 -11 c 0
 126 -11 93 21 93 38 c 0xe8
EndSplineSet
Position2: "'cpsp' Capital Spacing in Latin lookup 0 subtable" dx=4 dy=0 dh=8 dv=0
EndChar

StartChar: at
Encoding: 64 64 33
Width: 795
GlyphClass: 2
Flags: MW
HStem: -116 35<285.5 418.5> 51 36<450.5 483> 51 53 371 27<404.5 435> 403 20G<519.5 533.5> 557 34<369.5 539.5 363.5 540.5>
VStem: 47 40<100 290 100 302> 201 73<136 172.5> 457 98<336.5 413.5> 712 36<308 413.5>
LayerCount: 2
Back
Fore
SplineSet
47 187 m 0xdfc0
 47 417 259 591 468 591 c 0
 611 591 748 526 748 344 c 0
 748 150 557 51 409 51 c 0
 391 51 371 57 371 76 c 0
 371 86 373 103 375 114 c 1
 357 96 309 53 262 53 c 0
 220 53 201 96 201 139 c 0
 201 206 309 398 454 398 c 0
 468 398 483 392 485 392 c 0
 487 393 490 397 497 406 c 0
 507 418 512 423 527 423 c 0
 540 423 555 420 555 407 c 0
 555 403 554 397 552 392 c 0
 526 336 442 147 442 115 c 0
 442 98 442 87 459 87 c 0
 513 87 585 120 645 180 c 0
 686 221 712 279 712 337 c 0
 712 490 610 557 471 557 c 0
 268 557 87 399 87 181 c 0
 87 19 215 -81 356 -81 c 0
 492 -81 580 -32 664 46 c 0
 665 47 674 56 679 56 c 0
 690 56 697 40 697 36 c 0
 697 32 695 29 691 25 c 0
 607 -66 484 -116 353 -116 c 0
 195 -116 47 -10 47 187 c 0xdfc0
274 147 m 0
 274 125 289 104 313 104 c 0xbfc0
 378 104 457 323 457 350 c 0
 457 362 442 371 428 371 c 0
 381 371 274 255 274 147 c 0
EndSplineSet
EndChar

StartChar: A
Encoding: 65 65 34
Width: 698
GlyphClass: 2
Flags: MW
HStem: -6 36<45 47 205.5 211 211 217 466 473.5 662.5 670 670 675> 272 30<227.5 426 247 426 426 429.5 247 437> 670 20G<378.5 386>
LayerCount: 2
Back
Fore
SplineSet
27 15 m 0
 27 29 29 30 45 30 c 2
 75 30 l 2
 84 30 206 328 219 359 c 2
 325 605 l 2
 333 626 350 635 361 661 c 0
 367 674 374 690 383 690 c 0
 389 690 394 686 395 681 c 2
 515 344 l 2
 555 233 628 30 635 30 c 2
 670 30 l 2
 680 30 681 26 681 14 c 0
 681 -1 680 -6 670 -6 c 0
 655 -6 607 -3 577 -3 c 0
 547 -3 485 -6 462 -6 c 0
 450 -6 449 -2 449 15 c 0
 449 29 450 30 466 30 c 2
 521 30 l 1
 521 30 522 30 522 31 c 0
 522 51 471 202 452 255 c 0
 447 271 447 272 437 272 c 2
 235 272 l 2
 220 272 219 269 214 256 c 0
 189 193 134 52 133 31 c 0
 133 30 134 30 134 30 c 1
 211 30 l 2
 223 30 223 26 223 14 c 0
 223 -1 223 -6 211 -6 c 0
 200 -6 161 -3 117 -3 c 0
 76 -3 53 -6 41 -6 c 0
 27 -6 27 -2 27 15 c 0
234 305 m 0
 234 304 234 302 247 302 c 2
 426 302 l 2
 433 302 435 303 435 306 c 0
 435 308 434 311 432 316 c 2
 349 559 l 2
 346 569 345 571 344 571 c 0
 342 571 340 567 337 559 c 2
 239 319 l 2
 236 312 234 307 234 305 c 0
EndSplineSet
Substitution2: "'c2sc' Capitals to Small Capitals in Latin lookup 14 subtable" A.c2
AlternateSubs2: "'aalt' Access All Alternates in Latin lookup 1 subtable" A.c2
AlternateSubs2: "'aalt' Access All Alternates lookup 0 subtable" A.c2
Position2: "'cpsp' Capital Spacing in Latin lookup 0 subtable" dx=4 dy=0 dh=8 dv=0
EndChar

StartChar: B
Encoding: 66 66 35
Width: 592
GlyphClass: 2
Flags: MW
HStem: -5 35<244 279 279 322.5> 323 28<216 282 225 254> 629 38<49 55> 641 27<275.5 307.5>
VStem: 124 88<285.5 317.5 355 358 358 392 392 406> 431 90<455.5 536.5> 456 94<139 211>
LayerCount: 2
Back
Fore
SplineSet
37 649 m 0xea
 37 666 42 667 55 667 c 0xea
 71 667 143 665 173 665 c 0
 212 665 255 668 296 668 c 0
 416 668 521 628 521 504 c 0xdc
 521 407 418 363 372 346 c 0
 367 344 364 343 364 342 c 0
 364 341 365 341 371 340 c 0
 420 333 550 309 550 169 c 0
 550 12 378 -5 267 -5 c 0
 221 -5 184 -3 171 -3 c 0
 141 -3 73 -6 64 -6 c 0
 50 -6 48 -2 48 15 c 0
 48 29 53 30 69 30 c 2
 121 30 l 2
 123 30 124 48 124 69 c 2
 124 392 l 2
 124 506 120 631 116 631 c 2
 55 629 l 2
 43 629 37 632 37 649 c 0xea
212 315 m 0
 212 256 213 30 219 30 c 2
 279 30 l 2
 423 30 456 102 456 176 c 0
 456 246 433 292 371 313 c 0
 344 322 298 323 254 323 c 2
 220 323 l 2
 212 323 212 320 212 315 c 0
212 358 m 2
 212 352 212 351 225 351 c 2
 282 351 l 2
 299 351 309 350 315 350 c 0
 321 350 328 351 334 353 c 0
 379 367 431 406 431 488 c 0
 431 585 358 641 257 641 c 0xdc
 242 641 220 639 216 637 c 0
 213 635 212 481 212 406 c 2
 212 358 l 2
EndSplineSet
Substitution2: "'c2sc' Capitals to Small Capitals in Latin lookup 14 subtable" B.c2
AlternateSubs2: "'aalt' Access All Alternates in Latin lookup 1 subtable" B.c2
AlternateSubs2: "'aalt' Access All Alternates lookup 0 subtable" B.c2
Position2: "'cpsp' Capital Spacing in Latin lookup 0 subtable" dx=4 dy=0 dh=8 dv=0
EndChar

StartChar: C
Encoding: 67 67 36
Width: 731
GlyphClass: 2
Flags: MW
HStem: -19 45<348 459.5> 426 21G<631.5 648> 647 36<323.5 461>
VStem: 42 108<249 423 249 440.5> 623 41<629 638 638 644>
LayerCount: 2
Back
Fore
SplineSet
42 335 m 0
 42 546 199 683 402 683 c 0
 521 683 591 624 611 610 c 0
 620 603 623 603 623 611 c 2
 623 638 l 2
 623 650 625 654 641 654 c 0
 656 654 664 652 664 638 c 0
 664 620 660 491 660 440 c 0
 660 427 655 426 641 426 c 0
 622 426 619 429 619 439 c 0
 619 443 623 522 623 531 c 0
 623 542 527 647 395 647 c 0
 252 647 150 513 150 333 c 0
 150 165 272 26 424 26 c 0
 536 26 615 82 616 91 c 2
 629 207 l 2
 631 219 635 222 643 222 c 0
 646 222 650 221 654 221 c 0
 666 220 669 217 669 210 c 0
 669 207 665 165 653 72 c 0
 650 50 523 -19 396 -19 c 0
 211 -19 42 92 42 335 c 0
EndSplineSet
Substitution2: "'c2sc' Capitals to Small Capitals in Latin lookup 14 subtable" C.c2
AlternateSubs2: "'aalt' Access All Alternates in Latin lookup 1 subtable" C.c2
AlternateSubs2: "'aalt' Access All Alternates lookup 0 subtable" C.c2
Position2: "'cpsp' Capital Spacing in Latin lookup 0 subtable" dx=4 dy=0 dh=8 dv=0
EndChar

StartChar: D
Encoding: 68 68 37
Width: 758
GlyphClass: 2
Flags: MW
HStem: -7 35<39.5 116> 638 31<126 127> 649 32<312 402.5>
VStem: 128 88 609 107<304.5 418.5>
LayerCount: 2
Back
Fore
SplineSet
32 10 m 0xb8
 32 27 39 28 52 28 c 2
 116 28 l 2
 122 28 128 478 128 563 c 0
 128 600 128 638 126 638 c 2
 57 636 l 2
 48 636 43 637 43 651 c 0
 43 663 44 670 57 670 c 0
 61 670 94 669 128 669 c 0xd8
 202 669 292 681 332 681 c 0
 549 681 716 551 716 335 c 0
 716 109 545 -7 358 -7 c 0
 297 -7 234 -3 173 -3 c 0
 145 -3 57 -7 46 -7 c 0
 33 -7 32 -2 32 10 c 0xb8
216 86 m 0
 216 58 216 29 217 28 c 0
 224 25 253 25 272 25 c 0
 606 25 609 261 609 348 c 0
 609 489 494 649 311 649 c 0xb8
 286 649 244 648 223 643 c 0
 220 642 217 541 217 500 c 0
 216 363 216 224 216 86 c 0
EndSplineSet
Substitution2: "'c2sc' Capitals to Small Capitals in Latin lookup 14 subtable" D.c2
AlternateSubs2: "'aalt' Access All Alternates in Latin lookup 1 subtable" D.c2
AlternateSubs2: "'aalt' Access All Alternates lookup 0 subtable" D.c2
Position2: "'cpsp' Capital Spacing in Latin lookup 0 subtable" dx=4 dy=0 dh=8 dv=0
EndChar

StartChar: E
Encoding: 69 69 38
Width: 605
GlyphClass: 2
Flags: MW
HStem: -6 36<57 64.5> -3 40<160 271.5> 322 33<216 220 220 383> 410 20G<451 458.5> 633 35<56 61.5 53.5 62 53.5 109>
VStem: 122 85<198 317> 435 37<257 262.5 252 307 416.5 420 420 424.5> 478 34 536 37<149 153 123 153.5>
LayerCount: 2
Back
Fore
SplineSet
37 15 m 0xbf80
 37 28 41 30 57 30 c 2
 118 30 l 2xbf80
 120 30 122 54 122 102 c 2
 122 198 l 2
 122 309 118 486 118 492 c 0
 118 558 113 633 109 633 c 2
 62 633 l 2
 50 633 45 634 45 651 c 0
 45 664 49 668 58 668 c 0
 65 668 132 665 167 665 c 0
 222 665 375 668 419 668 c 0
 484 668 479 668 480 678 c 0
 482 689 482 693 496 693 c 0
 510 693 516 692 516 679 c 0
 516 660 512 625 512 547 c 0
 512 537 507 536 493 536 c 0
 480 536 475 540 475 551 c 0
 475 555 478 615 478 628 c 0
 478 632 299 635 211 635 c 0
 205 635 205 534 205 510 c 0
 205 467 206 418 207 368 c 0
 207 355 208 355 216 355 c 2
 383 355 l 2
 403 355 435 356 435 368 c 2
 435 420 l 2
 435 429 447 430 455 430 c 0
 462 430 472 429 472 421 c 0
 472 412 470 377 470 341 c 0
 470 305 472 269 472 256 c 0
 472 248 463 247 456 247 c 0
 448 247 435 247 435 257 c 2
 435 307 l 2
 435 314 433 322 383 322 c 2
 220 322 l 2
 210 322 207 324 207 310 c 0
 210 178 213 37 218 37 c 0x7f80
 325 37 513 40 524 40 c 0
 531 40 531 42 533 60 c 0
 535 85 535 110 536 149 c 0
 536 158 545 158 553 158 c 0
 562 158 573 158 573 148 c 0
 573 98 570 38 570 8 c 0
 570 -4 559 -6 550 -6 c 0xbf80
 527 -6 205 -3 175 -3 c 0x7f80
 145 -3 76 -6 53 -6 c 0
 39 -6 37 -2 37 15 c 0xbf80
EndSplineSet
Substitution2: "'c2sc' Capitals to Small Capitals in Latin lookup 14 subtable" E.c2
AlternateSubs2: "'aalt' Access All Alternates in Latin lookup 1 subtable" E.c2
AlternateSubs2: "'aalt' Access All Alternates lookup 0 subtable" E.c2
Position2: "'cpsp' Capital Spacing in Latin lookup 0 subtable" dx=4 dy=0 dh=8 dv=0
EndChar

StartChar: F
Encoding: 70 70 39
Width: 550
GlyphClass: 2
Flags: MW
HStem: -3 33 322 33<205 385 212 385> 410 20G<451 461.5> 633 35<51 53.5 45.5 57 45.5 101>
VStem: 114 85<198 314> 437 37<246 251.5 241 307 417.5 421 421 425.5> 477 37<545.5 553.5>
LayerCount: 2
Back
Fore
SplineSet
37 651 m 0
 37 664 41 668 50 668 c 0
 57 668 124 665 159 665 c 0
 212 665 375 668 418 668 c 0
 486 668 481 668 482 678 c 0
 484 693 489 693 498 693 c 0
 512 693 518 691 518 679 c 0
 518 660 514 625 514 547 c 0
 514 537 509 536 495 536 c 0
 482 536 477 540 477 551 c 0
 477 556 480 617 480 629 c 1
 459 632 303 635 203 635 c 0
 198 635 197 577 197 524 c 0
 197 461 198 391 199 368 c 0
 199 353 197 355 212 355 c 2
 385 355 l 2
 405 355 437 356 437 368 c 2
 437 421 l 2
 437 430 445 430 457 430 c 0
 466 430 474 430 474 422 c 0
 474 413 472 377 472 341 c 0
 472 305 474 258 474 245 c 0
 474 237 465 237 458 237 c 0
 450 237 437 237 437 246 c 2
 437 307 l 2
 437 315 435 322 385 322 c 2
 212 322 l 2
 198 322 199 323 199 305 c 0
 202 174 201 30 205 30 c 2
 286 30 l 2
 298 30 300 26 300 14 c 0
 300 -1 298 -6 286 -6 c 0
 263 -6 196 -3 166 -3 c 0
 136 -3 76 -6 61 -6 c 0
 47 -6 46 -2 46 15 c 0
 46 29 51 30 67 30 c 2
 109 30 l 2
 113 30 114 54 114 102 c 2
 114 198 l 2
 114 309 110 486 110 492 c 0
 110 558 105 633 101 633 c 2
 57 633 l 2
 45 633 37 634 37 651 c 0
EndSplineSet
Substitution2: "'c2sc' Capitals to Small Capitals in Latin lookup 14 subtable" F.c2
AlternateSubs2: "'aalt' Access All Alternates in Latin lookup 1 subtable" F.c2
AlternateSubs2: "'aalt' Access All Alternates lookup 0 subtable" F.c2
Position2: "'cpsp' Capital Spacing in Latin lookup 0 subtable" dx=4 dy=0 dh=8 dv=0
EndChar

StartChar: G
Encoding: 71 71 40
Width: 764
GlyphClass: 2
Flags: MW
HStem: -21 36<344 463.5> 217 36<488.5 492 487 493 487 580 708 716> 647 33<332.5 464 306.5 471.5>
VStem: 42 108<249 423 249 446.5> 587 87<62 178.5> 623 40<639 646 646 652>
LayerCount: 2
Back
Fore
SplineSet
42 335 m 0xf8
 42 558 205 680 408 680 c 0
 520 680 591 634 611 620 c 0
 620 613 623 615 623 621 c 2
 623 646 l 2
 623 658 625 662 641 662 c 0
 656 662 663 660 663 646 c 0
 663 632 660 512 660 461 c 0
 660 448 655 446 641 446 c 0
 622 446 619 449 619 459 c 0
 619 463 623 532 623 541 c 0xf4
 623 552 539 647 404 647 c 0
 261 647 150 513 150 333 c 0
 150 165 264 15 424 15 c 0
 537 15 583 60 584 68 c 0
 586 85 587 127 587 162 c 0
 587 195 583 217 580 217 c 2
 493 217 l 2
 484 217 482 225 482 232 c 0
 482 240 482 253 492 253 c 0
 541 252 594 250 626 250 c 0
 674 250 700 253 716 253 c 0
 726 253 727 244 727 236 c 0
 727 229 726 217 716 217 c 2
 685 217 l 2
 676 217 675 199 675 162 c 0
 675 137 674 106 674 73 c 0
 674 51 531 -21 396 -21 c 0
 211 -21 42 86 42 335 c 0xf8
EndSplineSet
Substitution2: "'c2sc' Capitals to Small Capitals in Latin lookup 14 subtable" G.c2
AlternateSubs2: "'aalt' Access All Alternates in Latin lookup 1 subtable" G.c2
AlternateSubs2: "'aalt' Access All Alternates lookup 0 subtable" G.c2
Position2: "'cpsp' Capital Spacing in Latin lookup 0 subtable" dx=4 dy=0 dh=8 dv=0
EndChar

StartChar: H
Encoding: 72 72 41
Width: 791
GlyphClass: 2
Flags: MW
HStem: -6 36<55 62.5 271.5 283 283 289 537 544.5 729.5 741 741 747> 328 30<212.5 585 220 585 585 591> 636 36<64 70 70 78 63.5 114 259.5 267 526 532 532 539 730 731>
VStem: 119 89<285 321 365.5 387 387 388 252.5 444> 597 87<192 455.5 317.5 322 370 455.5 317.5 492 317.5 525>
LayerCount: 2
Back
Fore
SplineSet
37 15 m 0
 37 29 39 30 55 30 c 2
 113 30 l 2
 118 30 119 180 119 285 c 2
 119 387 l 2
 119 501 118 636 114 636 c 2
 70 636 l 2
 58 636 50 637 50 654 c 0
 50 671 57 672 70 672 c 0
 86 672 121 669 163 669 c 0
 206 669 248 672 271 672 c 0
 285 672 286 668 286 651 c 0
 286 637 283 636 267 636 c 2
 212 636 l 2
 208 636 207 567 207 505 c 0
 207 455 208 403 208 373 c 0
 208 358 208 358 220 358 c 2
 585 358 l 2
 597 358 597 358 597 370 c 2
 597 492 l 2
 597 558 593 636 589 636 c 2
 532 636 l 2
 520 636 515 638 515 654 c 0
 515 670 517 672 531 672 c 0
 547 672 590 669 638 669 c 0
 680 669 725 672 735 672 c 0
 749 672 750 668 750 651 c 0
 750 637 747 636 731 636 c 2
 687 636 l 2
 684 636 684 514 684 397 c 0
 684 238 685 30 688 30 c 2
 741 30 l 2
 753 30 754 26 754 14 c 0
 754 -1 753 -6 741 -6 c 0
 718 -6 676 -3 646 -3 c 0
 616 -3 556 -6 533 -6 c 0
 519 -6 518 -2 518 15 c 0
 518 29 521 30 537 30 c 2
 592 30 l 2
 596 30 597 111 597 192 c 2
 597 316 l 2
 597 328 596 328 591 328 c 2
 217 328 l 2
 208 328 208 328 208 314 c 0
 208 191 211 30 217 30 c 2
 283 30 l 2
 295 30 295 26 295 14 c 0
 295 -1 295 -6 283 -6 c 0
 260 -6 201 -3 171 -3 c 0
 141 -3 74 -6 51 -6 c 0
 37 -6 37 -2 37 15 c 0
EndSplineSet
Substitution2: "'c2sc' Capitals to Small Capitals in Latin lookup 14 subtable" H.c2
AlternateSubs2: "'aalt' Access All Alternates in Latin lookup 1 subtable" H.c2
AlternateSubs2: "'aalt' Access All Alternates lookup 0 subtable" H.c2
Position2: "'cpsp' Capital Spacing in Latin lookup 0 subtable" dx=4 dy=0 dh=8 dv=0
EndChar

StartChar: I
Encoding: 73 73 42
Width: 333
GlyphClass: 2
Flags: MW
HStem: -6 36<48 55.5 284 292 292 298> 636 36<43 49 49 57 42.5 115 280.5 288>
VStem: 123 91<394 481>
LayerCount: 2
Back
Fore
SplineSet
27 15 m 0
 27 29 32 30 48 30 c 2
 114 30 l 2
 122 30 123 263 123 394 c 2
 123 492 l 2
 123 558 118 636 115 636 c 2
 49 636 l 2
 37 636 31 637 31 654 c 0
 31 671 36 672 49 672 c 0
 65 672 116 669 174 669 c 0
 221 669 269 672 292 672 c 0
 304 672 306 668 306 651 c 0
 306 637 304 636 288 636 c 2
 223 636 l 2
 216 636 214 533 214 481 c 2
 214 346 l 2
 214 218 216 30 223 30 c 2
 292 30 l 2
 304 30 306 26 306 14 c 0
 306 -1 304 -6 292 -6 c 0
 276 -6 219 -3 172 -3 c 0
 121 -3 67 -6 44 -6 c 0
 30 -6 27 -2 27 15 c 0
EndSplineSet
Substitution2: "'c2sc' Capitals to Small Capitals in Latin lookup 14 subtable" I.c2
AlternateSubs2: "'aalt' Access All Alternates in Latin lookup 1 subtable" I.c2
AlternateSubs2: "'aalt' Access All Alternates lookup 0 subtable" I.c2
Position2: "'cpsp' Capital Spacing in Latin lookup 0 subtable" dx=4 dy=0 dh=8 dv=0
EndChar

StartChar: J
Encoding: 74 74 43
Width: 333
GlyphClass: 2
Flags: MW
HStem: -215 73<11.5 106> 636 36<45 51 51 59 44.5 117 272.5 277>
VStem: 126 95<87 130 130 370>
LayerCount: 2
Back
Fore
SplineSet
-33 -188 m 0
 -33 -150 29 -121 37 -121 c 0
 55 -121 70 -142 89 -142 c 0
 123 -142 126 -93 126 -5 c 2
 126 492 l 2
 126 558 123 636 117 636 c 2
 51 636 l 2
 39 636 31 637 31 654 c 0
 31 671 38 672 51 672 c 0
 67 672 128 669 177 669 c 0
 218 669 264 672 281 672 c 0
 295 672 296 668 296 651 c 0
 296 637 293 636 277 636 c 2
 226 636 l 2
 222 636 221 492 221 370 c 2
 221 130 l 2
 221 44 213 -66 134 -150 c 0
 105 -181 71 -215 23 -215 c 0
 0 -215 -33 -206 -33 -188 c 0
EndSplineSet
Substitution2: "'c2sc' Capitals to Small Capitals in Latin lookup 14 subtable" J.c2
AlternateSubs2: "'aalt' Access All Alternates in Latin lookup 1 subtable" J.c2
AlternateSubs2: "'aalt' Access All Alternates lookup 0 subtable" J.c2
Position2: "'cpsp' Capital Spacing in Latin lookup 0 subtable" dx=4 dy=0 dh=8 dv=0
EndChar

StartChar: K
Encoding: 75 75 44
Width: 650
GlyphClass: 2
Flags: MW
HStem: -6 36<58 63.5 278.5 289 289 295 440 447.5 629.5 641 641 647> 307 27<218 220 220 239> 631 36<60 66 66 74 59.5 112 267.5 275 417 423 423 431 587 590>
VStem: 118 90<236.5 301.5 344 351 351 476>
LayerCount: 2
Back
Fore
SplineSet
37 15 m 0
 37 29 42 30 58 30 c 2
 111 30 l 2
 117 30 118 114 118 197 c 2
 118 487 l 2
 118 553 116 631 112 631 c 2
 66 631 l 2
 54 631 46 632 46 649 c 0
 46 666 53 667 66 667 c 0
 82 667 129 664 171 664 c 0
 201 664 256 667 279 667 c 0
 293 667 294 663 294 646 c 0
 294 632 291 631 275 631 c 2
 220 631 l 2
 213 631 208 528 208 476 c 2
 208 351 l 2
 208 337 208 334 218 334 c 2
 240 334 l 2
 261 334 429 567 467 615 c 0
 475 626 475 631 463 631 c 2
 423 631 l 2
 411 631 403 632 403 649 c 0
 403 666 410 667 423 667 c 0
 439 667 473 664 511 664 c 0
 548 664 580 667 594 667 c 0
 608 667 608 663 608 646 c 0
 608 632 606 631 590 631 c 2
 542 631 l 2
 537 631 356 412 324 374 c 0
 315 364 317 368 327 356 c 2
 596 46 l 2
 605 36 612 30 625 30 c 2
 641 30 l 2
 653 30 653 26 653 14 c 0
 653 -1 653 -6 641 -6 c 0
 618 -6 569 -3 539 -3 c 0
 509 -3 459 -6 436 -6 c 0
 422 -6 422 -2 422 15 c 0
 422 29 427 30 440 30 c 2
 473 30 l 2
 488 30 483 35 476 43 c 2
 259 300 l 2
 254 306 254 307 239 307 c 2
 220 307 l 2
 208 307 208 307 208 296 c 0
 208 177 210 30 217 30 c 2
 289 30 l 2
 301 30 303 26 303 14 c 0
 303 -1 302 -6 290 -6 c 0
 267 -6 199 -3 169 -3 c 0
 139 -3 75 -6 52 -6 c 0
 38 -6 37 -2 37 15 c 0
EndSplineSet
Substitution2: "'c2sc' Capitals to Small Capitals in Latin lookup 14 subtable" K.c2
AlternateSubs2: "'aalt' Access All Alternates in Latin lookup 1 subtable" K.c2
AlternateSubs2: "'aalt' Access All Alternates lookup 0 subtable" K.c2
Position2: "'cpsp' Capital Spacing in Latin lookup 0 subtable" dx=4 dy=0 dh=8 dv=0
EndChar

StartChar: L
Encoding: 76 76 45
Width: 592
GlyphClass: 2
Flags: MW
HStem: -6 36<57 64.5> -6 46 636 33<162 226>
VStem: 125 93<319 424>
LayerCount: 2
Back
Fore
SplineSet
37 15 m 0xb0
 37 28 41 30 57 30 c 2
 117 30 l 2xb0
 123 30 125 181 125 319 c 2
 125 550 l 2
 125 598 123 636 120 636 c 2
 61 636 l 2
 47 636 44 639 44 654 c 0
 44 670 48 672 64 672 c 0
 80 672 147 669 177 669 c 0
 207 669 274 672 297 672 c 0
 314 672 315 669 315 654 c 0
 315 641 313 636 296 636 c 2
 226 636 l 2
 219 636 218 514 218 424 c 2
 218 147 l 2
 218 87 221 34 224 34 c 0
 326 34 505 39 516 40 c 0x70
 532 41 533 39 536 60 c 2
 548 146 l 2
 549 153 555 156 562 155 c 0
 574 154 585 152 585 143 c 0
 585 134 568 37 564 8 c 0
 563 -4 558 -6 539 -6 c 0
 516 -6 205 -3 175 -3 c 0
 145 -3 76 -6 53 -6 c 0
 39 -6 37 -2 37 15 c 0xb0
EndSplineSet
Substitution2: "'c2sc' Capitals to Small Capitals in Latin lookup 14 subtable" L.c2
Substitution2: "'locl' Localized Forms in Latin lookup 2 subtable" L.CAT
AlternateSubs2: "'aalt' Access All Alternates in Latin lookup 1 subtable" L.c2 L.CAT
AlternateSubs2: "'aalt' Access All Alternates lookup 0 subtable" L.c2
Position2: "'cpsp' Capital Spacing in Latin lookup 0 subtable" dx=4 dy=0 dh=8 dv=0
EndChar

StartChar: M
Encoding: 77 77 46
Width: 895
GlyphClass: 2
Flags: MW
HStem: -10 21G<416 423.5> -6 36<53 56.5 207.5 219 219 225 645 647 842.5 852 852 858> 636 33
VStem: 101 44<129 129> 119 34 697 88
LayerCount: 2
Back
Fore
SplineSet
32 15 m 0x74
 32 29 37 30 53 30 c 2
 94 30 l 2
 98 30 98 75 101 129 c 0x74
 104 190 119 556 119 626 c 0
 119 634 119 636 100 636 c 2
 50 636 l 2
 40 636 40 640 40 652 c 0
 40 667 40 672 50 672 c 0
 64 672 125 669 161 669 c 0
 183 669 218 672 224 672 c 0
 234 672 238 670 243 657 c 2
 453 133 l 2
 461 113 463 118 469 134 c 2
 665 644 l 2
 673 665 675 669 691 669 c 2
 739 669 l 2
 769 669 818 672 841 672 c 0
 855 672 856 668 856 651 c 0
 856 637 853 636 837 636 c 2
 790 636 l 1
 787 631 785 602 785 559 c 2
 785 469 l 2
 785 297 792 30 800 30 c 2
 852 30 l 2
 864 30 868 27 868 14 c 0
 868 -1 866 -6 854 -6 c 0
 831 -6 777 -3 747 -3 c 0
 704 -3 654 -6 640 -6 c 0
 626 -6 624 -2 624 15 c 0
 624 29 629 30 645 30 c 2
 690 30 l 2x6c
 694 30 697 115 697 204 c 0
 697 295 694 496 692 581 c 0
 691 613 688 603 679 581 c 2
 494 108 l 2
 475 61 462 58 438 11 c 0
 432 -2 427 -10 420 -10 c 0
 412 -10 407 4 400 20 c 2
 167 595 l 2
 157 621 155 623 153 594 c 0xac
 148 462 145 260 145 129 c 0
 145 76 146 30 150 30 c 2
 219 30 l 2
 231 30 233 26 233 14 c 0
 233 -1 231 -6 219 -6 c 0
 196 -6 161 -3 131 -3 c 0
 101 -3 65 -6 48 -6 c 0
 34 -6 32 -2 32 15 c 0x74
EndSplineSet
Substitution2: "'c2sc' Capitals to Small Capitals in Latin lookup 14 subtable" M.c2
AlternateSubs2: "'aalt' Access All Alternates in Latin lookup 1 subtable" M.c2
AlternateSubs2: "'aalt' Access All Alternates lookup 0 subtable" M.c2
Position2: "'cpsp' Capital Spacing in Latin lookup 0 subtable" dx=4 dy=0 dh=8 dv=0
EndChar

StartChar: N
Encoding: 78 78 47
Width: 814
GlyphClass: 2
Flags: MW
HStem: -21 21G<678 686> -6 36<56 58.5 232.5 244 244 250> 636 36<48 54 54 61 48 119 564 570 570 573.5 756 757>
VStem: 111 43<129 129> 119 36 664 44<580 587>
LayerCount: 2
Back
Fore
SplineSet
37 15 m 0x74
 37 29 40 30 56 30 c 2
 102 30 l 2
 110 30 109 65 111 129 c 0x74
 116 291 119 602 119 636 c 1
 54 636 l 2
 42 636 40 640 40 652 c 0
 40 667 42 672 54 672 c 0
 68 672 145 669 166 669 c 0
 188 669 215 672 221 672 c 0
 233 672 235 668 243 658 c 2
 649 159 l 2
 665 139 666 145 666 165 c 2
 666 207 l 2
 666 305 664 482 664 583 c 0
 664 591 664 636 663 636 c 2
 570 636 l 2
 558 636 558 640 558 652 c 0
 558 667 558 672 570 672 c 0
 577 672 634 669 678 669 c 0
 718 669 749 672 763 672 c 0
 777 672 777 668 777 651 c 0
 777 637 773 636 757 636 c 2
 712 636 l 2
 710 636 708 610 708 580 c 0
 707 425 695 15 695 4 c 0
 695 -12 690 -21 682 -21 c 0
 674 -21 668 -11 662 -4 c 2
 170 594 l 2
 161 604 156 613 156 594 c 0
 155 554 155 525 155 472 c 0xac
 155 366 154 224 154 129 c 0
 154 76 155 30 158 30 c 2
 244 30 l 2
 256 30 256 26 256 14 c 0
 256 -1 256 -6 244 -6 c 0
 221 -6 181 -3 136 -3 c 0
 92 -3 65 -6 52 -6 c 0
 38 -6 37 -2 37 15 c 0x74
EndSplineSet
Substitution2: "'c2sc' Capitals to Small Capitals in Latin lookup 14 subtable" N.c2
AlternateSubs2: "'aalt' Access All Alternates in Latin lookup 1 subtable" N.c2
AlternateSubs2: "'aalt' Access All Alternates lookup 0 subtable" N.c2
Position2: "'cpsp' Capital Spacing in Latin lookup 0 subtable" dx=4 dy=0 dh=8 dv=0
EndChar

StartChar: O
Encoding: 79 79 48
Width: 752
GlyphClass: 2
Flags: MW
HStem: -14 34<300 452 300 469.5> 644 34<304.5 455>
VStem: 42 100<255.5 421 255.5 427> 612 98<256.5 409>
LayerCount: 2
Back
Fore
SplineSet
42 318 m 0
 42 536 199 678 385 678 c 0
 585 678 710 519 710 324 c 0
 710 122 569 -14 370 -14 c 0
 209 -14 42 102 42 318 c 0
142 345 m 0
 142 166 229 20 371 20 c 0
 533 20 612 180 612 333 c 0
 612 485 535 644 375 644 c 0
 234 644 142 497 142 345 c 0
EndSplineSet
Substitution2: "'c2sc' Capitals to Small Capitals in Latin lookup 14 subtable" O.c2
AlternateSubs2: "'aalt' Access All Alternates in Latin lookup 1 subtable" O.c2
AlternateSubs2: "'aalt' Access All Alternates lookup 0 subtable" O.c2
Position2: "'cpsp' Capital Spacing in Latin lookup 0 subtable" dx=4 dy=0 dh=8 dv=0
EndChar

StartChar: P
Encoding: 80 80 49
Width: 564
GlyphClass: 2
Flags: MW
HStem: -3 33 287 28<287 303.5 238 376> 629 38<48.5 55> 638 32<292.5 306>
VStem: 125 87<474 526 526 553.5> 455 92<422.5 533.5>
LayerCount: 2
Back
Fore
SplineSet
37 649 m 0xec
 37 666 42 667 55 667 c 0xec
 71 667 156 665 173 665 c 0
 203 665 281 670 304 670 c 0xdc
 441 670 547 608 547 471 c 0
 547 341 447 287 305 287 c 0
 269 287 246 290 218 290 c 0
 211 290 211 288 211 282 c 2
 211 216 l 2
 211 143 212 30 215 30 c 2
 286 30 l 2
 298 30 300 26 300 14 c 0
 300 -1 298 -6 286 -6 c 0
 263 -6 201 -3 171 -3 c 0
 141 -3 71 -6 62 -6 c 0
 48 -6 47 -2 47 15 c 0
 47 29 52 30 68 30 c 2
 116 30 l 2
 124 30 125 350 125 474 c 2
 125 526 l 2
 125 581 125 631 121 631 c 2
 55 629 l 2
 40 629 37 632 37 649 c 0xec
212 325 m 2
 212 317 229 315 247 315 c 0
 360 315 455 359 455 486 c 0
 455 581 365 638 247 638 c 0xdc
 237 638 225 638 216 637 c 0
 213 636 212 611 212 586 c 2
 212 325 l 2
EndSplineSet
Substitution2: "'c2sc' Capitals to Small Capitals in Latin lookup 14 subtable" P.c2
AlternateSubs2: "'aalt' Access All Alternates in Latin lookup 1 subtable" P.c2
AlternateSubs2: "'aalt' Access All Alternates lookup 0 subtable" P.c2
Position2: "'cpsp' Capital Spacing in Latin lookup 0 subtable" dx=4 dy=0 dh=8 dv=0
EndChar

StartChar: Q
Encoding: 81 81 50
Width: 783
GlyphClass: 2
Flags: MW
HStem: -190 69<617.5 640> -125 62<179 206.5> 644 34<311.5 462.5>
VStem: 42 93<310.5 432 310.5 449> 637 104<259 408>
LayerCount: 2
Back
Fore
SplineSet
42 340 m 0x78
 42 558 207 678 392 678 c 0
 592 678 741 536 741 340 c 0
 741 178 639 52 495 11 c 0
 471 4 372 -39 328 -59 c 0
 320 -63 311 -66 328 -67 c 0
 360 -69 419 -71 460 -80 c 0
 528 -95 596 -121 639 -121 c 0
 707 -121 737 -90 746 -90 c 0
 750 -90 763 -104 763 -110 c 0
 763 -127 677 -190 603 -190 c 0xb8
 465 -190 306 -107 254 -107 c 0
 230 -107 197 -125 187 -125 c 0
 171 -125 148 -93 148 -80 c 0
 148 -65 159 -62 176 -62 c 0
 183 -62 191 -63 198 -63 c 0
 215 -63 233 -62 254 -57 c 0
 279 -50 347 -21 378 -6 c 0
 384 -3 385 -2 385 -1 c 0
 385 0 382 0 374 1 c 0
 198 25 42 119 42 340 c 0x78
135 356 m 0
 135 265 169 178 219 121 c 0
 275 57 412 21 434 21 c 0
 463 21 637 110 637 332 c 0
 637 484 543 644 382 644 c 0
 241 644 135 508 135 356 c 0
EndSplineSet
Substitution2: "'c2sc' Capitals to Small Capitals in Latin lookup 14 subtable" Q.c2
AlternateSubs2: "'aalt' Access All Alternates in Latin lookup 1 subtable" Q.c2
AlternateSubs2: "'aalt' Access All Alternates lookup 0 subtable" Q.c2
Position2: "'cpsp' Capital Spacing in Latin lookup 0 subtable" dx=4 dy=0 dh=8 dv=0
EndChar

StartChar: R
Encoding: 82 82 51
Width: 641
GlyphClass: 2
Flags: MW
HStem: -6 36<77 77.5 267.5 279 279 285 611 629 629 634> 309 27 629 38<50.5 56> 639 32<306.5 312.5>
VStem: 124 86<273 289 289 304.5 341 343 343 358.5> 448 91<451 532.5> 480 92
LayerCount: 2
Back
Fore
SplineSet
37 649 m 0xea
 37 666 44 667 57 667 c 0xea
 73 667 143 665 173 665 c 0
 203 665 295 671 318 671 c 0
 418 671 539 641 539 498 c 0xdc
 539 404 445 351 403 332 c 0
 395 328 393 328 403 325 c 0
 468 304 566 258 572 92 c 0
 574 33 576 30 583 30 c 2
 629 30 l 2
 640 30 644 26 644 5 c 0
 644 -3 640 -6 628 -6 c 0
 594 -6 491 -3 491 -3 c 2
 484 -3 480 -1 480 8 c 2
 480 66 l 2
 480 186 470 306 310 309 c 0
 289 309 246 310 218 310 c 0
 210 310 210 307 210 302 c 0
 210 244 216 30 221 30 c 2
 279 30 l 2
 291 30 293 26 293 14 c 0
 293 -1 291 -6 279 -6 c 0
 256 -6 201 -3 171 -3 c 0
 141 -3 82 -6 73 -6 c 0
 59 -6 56 -2 56 15 c 0
 56 29 61 30 77 30 c 2
 120 30 l 2
 123 30 124 93 124 156 c 2
 124 289 l 2
 124 428 121 631 114 631 c 2
 56 629 l 2
 42 629 37 634 37 649 c 0xea
210 343 m 2
 210 339 211 338 223 338 c 0
 266 337 317 337 351 336 c 0
 356 336 359 336 362 337 c 0
 409 359 448 401 448 484 c 0
 448 581 359 639 266 639 c 0xdc
 250 639 230 639 215 637 c 0
 212 637 210 611 210 586 c 2
 210 343 l 2
EndSplineSet
Substitution2: "'c2sc' Capitals to Small Capitals in Latin lookup 14 subtable" R.c2
AlternateSubs2: "'aalt' Access All Alternates in Latin lookup 1 subtable" R.c2
AlternateSubs2: "'aalt' Access All Alternates lookup 0 subtable" R.c2
Position2: "'cpsp' Capital Spacing in Latin lookup 0 subtable" dx=4 dy=0 dh=8 dv=0
EndChar

StartChar: S
Encoding: 83 83 52
Width: 528
GlyphClass: 2
Flags: MW
HStem: -18 39<248.5 313 248.5 325> 645 20G<435 452.5> 646 34<234 287 214.5 307.5>
VStem: 52 89<429 545> 58 39<175 175 175 181.5> 408 88<115 226.5> 422 37<482.5 562>
LayerCount: 2
Back
Fore
SplineSet
52 488 m 0xb4
 52 602 160 680 269 680 c 0xb4
 305 680 349 676 406 637 c 0
 411 633 417 630 421 630 c 0
 424 630 425 642 425 648 c 0
 426 663 427 665 443 665 c 0xd4
 462 665 465 664 465 648 c 0
 465 637 459 540 459 489 c 0
 459 476 458 472 441 472 c 0
 422 472 419 477 419 487 c 0
 419 491 422 542 422 551 c 0
 422 573 344 646 271 646 c 0
 197 646 141 592 141 520 c 0xb2
 141 338 496 415 496 178 c 0
 496 52 381 -18 269 -18 c 0
 159 -18 69 16 68 31 c 0
 66 67 58 163 58 177 c 0
 58 186 58 192 73 192 c 2
 78 192 l 2
 91 192 96 188 97 175 c 2xac
 103 81 l 2
 105 55 219 21 278 21 c 0
 348 21 408 72 408 139 c 0
 408 314 52 252 52 488 c 0xb4
EndSplineSet
Substitution2: "'c2sc' Capitals to Small Capitals in Latin lookup 14 subtable" S.c2
AlternateSubs2: "'aalt' Access All Alternates in Latin lookup 1 subtable" S.c2
AlternateSubs2: "'aalt' Access All Alternates lookup 0 subtable" S.c2
Position2: "'cpsp' Capital Spacing in Latin lookup 0 subtable" dx=4 dy=0 dh=8 dv=0
EndChar

StartChar: T
Encoding: 84 84 53
Width: 690
GlyphClass: 2
Flags: MW
HStem: -3 33 632 34<130 531 174 299 406.5 410 410 525> 670 20G<45 56.5 647.5 660>
VStem: 18 37<536.5 545> 34 35<672 672> 305 91 635 34
LayerCount: 2
Back
Fore
SplineSet
18 542 m 0xf6
 18 545 30 622 34 672 c 0
 35 686 37 690 53 690 c 0
 60 690 69 690 69 681 c 2
 69 671 l 2xee
 69 666 127 666 174 666 c 2
 531 666 l 2
 591 666 637 669 637 674 c 0
 638 687 642 690 653 690 c 0
 667 690 673 690 673 676 c 0
 673 657 669 619 669 541 c 0
 669 531 664 531 650 531 c 0
 637 531 632 534 632 545 c 0
 632 550 635 615 635 625 c 0
 635 630 576 632 525 632 c 2
 410 632 l 2
 403 632 403 530 402 477 c 0
 402 474 396 217 396 92 c 0
 396 60 396 30 398 30 c 2
 469 30 l 2
 481 30 483 26 483 14 c 0
 483 -1 481 -6 469 -6 c 0
 446 -6 379 -3 349 -3 c 0
 319 -3 249 -6 226 -6 c 0
 212 -6 211 -2 211 15 c 0
 211 29 214 30 230 30 c 2
 292 30 l 2
 301 30 305 441 305 545 c 0
 305 589 303 632 299 632 c 2
 157 632 l 2
 103 632 64 628 63 622 c 2
 55 545 l 2
 54 532 51 531 40 531 c 0
 31 531 18 531 18 542 c 0xf6
EndSplineSet
Substitution2: "'c2sc' Capitals to Small Capitals in Latin lookup 14 subtable" T.c2
AlternateSubs2: "'aalt' Access All Alternates in Latin lookup 1 subtable" T.c2
AlternateSubs2: "'aalt' Access All Alternates lookup 0 subtable" T.c2
Position2: "'cpsp' Capital Spacing in Latin lookup 0 subtable" dx=4 dy=0 dh=8 dv=0
EndChar

StartChar: U
Encoding: 85 85 54
Width: 755
GlyphClass: 2
Flags: MW
HStem: -14 51<311.5 356.5> 631 36<49 55 55 63 48.5 93 254.5 262 514 520 520 528 696 697>
VStem: 96 88<166 243.5> 576 87
LayerCount: 2
Back
Fore
SplineSet
37 649 m 0
 37 666 42 667 55 667 c 0
 71 667 120 664 150 664 c 0
 180 664 243 667 266 667 c 0
 280 667 281 663 281 646 c 0
 281 632 278 631 262 631 c 2
 197 631 l 2
 189 631 184 270 184 228 c 0
 184 102 241 37 382 37 c 0
 466 37 524 71 552 90 c 0
 576 106 576 101 576 247 c 2
 576 552 l 2
 576 593 575 631 570 631 c 2
 520 631 l 2
 508 631 500 632 500 649 c 0
 500 666 507 667 520 667 c 0
 536 667 593 664 623 664 c 0
 653 664 691 667 701 667 c 0
 715 667 718 663 718 646 c 0
 718 632 713 631 697 631 c 2
 674 631 l 2
 666 631 667 463 663 317 c 0
 660 180 656 46 656 25 c 0
 656 18 655 -10 632 -10 c 0
 608 -10 589 63 570 63 c 0
 564 63 543 53 525 43 c 0
 478 16 395 -14 318 -14 c 0
 114 -14 96 105 96 227 c 0
 96 260 97 496 97 575 c 0
 97 606 97 631 93 631 c 2
 55 631 l 2
 43 631 37 632 37 649 c 0
EndSplineSet
Substitution2: "'c2sc' Capitals to Small Capitals in Latin lookup 14 subtable" U.c2
AlternateSubs2: "'aalt' Access All Alternates in Latin lookup 1 subtable" U.c2
AlternateSubs2: "'aalt' Access All Alternates lookup 0 subtable" U.c2
Position2: "'cpsp' Capital Spacing in Latin lookup 0 subtable" dx=4 dy=0 dh=8 dv=0
EndChar

StartChar: V
Encoding: 86 86 55
Width: 685
GlyphClass: 2
Flags: MW
HStem: -28 130<314.5 368.5> 631 36<20 26 26 32.5 19.5 57 238.5 246 475 481 481 486 656 665>
LayerCount: 2
Back
Fore
SplineSet
7 649 m 0
 7 666 13 667 26 667 c 0
 39 667 90 664 120 664 c 0
 150 664 227 667 250 667 c 0
 264 667 267 663 267 646 c 0
 267 632 262 631 246 631 c 2
 176 631 l 1
 176 629 l 2
 176 619 182 595 188 579 c 0
 225 471 306 250 347 143 c 0
 357 116 364 102 367 102 c 0
 370 102 376 115 386 141 c 0
 438 277 558 569 558 618 c 0
 558 628 557 631 552 631 c 2
 481 631 l 2
 469 631 460 632 460 649 c 0
 460 665 464 667 478 667 c 0
 494 667 553 664 583 664 c 0
 613 664 651 667 661 667 c 0
 675 667 678 663 678 646 c 0
 678 632 673 631 657 631 c 0
 631 631 632 628 624 610 c 2
 393 67 l 2
 382 42 376 40 365 24 c 0
 345 -5 341 -28 322 -28 c 0
 307 -28 300 30 265 109 c 0
 262 115 63 631 57 631 c 2
 26 631 l 2
 14 631 7 632 7 649 c 0
EndSplineSet
Substitution2: "'c2sc' Capitals to Small Capitals in Latin lookup 14 subtable" V.c2
AlternateSubs2: "'aalt' Access All Alternates in Latin lookup 1 subtable" V.c2
AlternateSubs2: "'aalt' Access All Alternates lookup 0 subtable" V.c2
Position2: "'cpsp' Capital Spacing in Latin lookup 0 subtable" dx=4 dy=0 dh=8 dv=0
EndChar

StartChar: W
Encoding: 87 87 56
Width: 1008
GlyphClass: 2
Flags: MW
HStem: -28 130<644 702.5> -28 146<268 326.5> 631 36<21 27 27 35 20.5 63 215.5 223 386 392 392 400 611.5 620 807 813 813 820 979 988.5>
VStem: 483 73
LayerCount: 2
Back
Fore
SplineSet
7 649 m 0x70
 7 666 14 667 27 667 c 0
 43 667 93 664 123 664 c 0
 153 664 204 667 227 667 c 0
 241 667 244 663 244 646 c 0
 244 632 239 631 223 631 c 2
 173 631 l 2
 170 631 167 631 166 625 c 0
 167 617 190 537 193 527 c 0
 236 381 308 163 314 143 c 0
 320 126 322 118 325 118 c 0x70
 328 118 330 127 337 143 c 2
 480 508 l 2
 483 516 483 521 483 525 c 0
 483 532 480 539 476 555 c 0
 465 595 452 631 449 631 c 2
 392 631 l 2
 380 631 372 632 372 649 c 0
 372 666 379 667 392 667 c 0
 408 667 473 664 503 664 c 0
 533 664 600 667 623 667 c 0
 637 667 640 663 640 646 c 0
 640 632 633 631 620 631 c 2
 557 631 l 2
 556 629 556 628 556 625 c 0
 556 602 571 539 574 527 c 0
 612 387 678 164 684 143 c 0
 693 115 697 102 701 102 c 0
 704 102 709 115 719 141 c 0
 770 277 884 569 884 618 c 0
 884 628 883 631 878 631 c 2
 813 631 l 2
 801 631 793 632 793 649 c 0
 793 666 800 667 813 667 c 0
 827 667 863 664 916 664 c 0
 952 664 974 667 984 667 c 0
 998 667 1001 663 1001 648 c 0
 1001 635 997 631 980 631 c 0
 954 631 954 628 947 610 c 2
 726 67 l 2
 716 42 709 39 698 24 c 0
 678 -5 671 -28 655 -28 c 0xb0
 633 -28 625 33 600 109 c 0
 599 112 551 292 508 439 c 0
 505 451 503 457 501 457 c 0
 499 457 497 451 492 439 c 2
 350 67 l 2
 340 42 333 39 322 24 c 0
 302 -5 295 -28 279 -28 c 0
 257 -28 249 33 224 109 c 0
 222 115 69 631 63 631 c 2
 27 631 l 2
 15 631 7 632 7 649 c 0x70
EndSplineSet
Substitution2: "'c2sc' Capitals to Small Capitals in Latin lookup 14 subtable" W.c2
AlternateSubs2: "'aalt' Access All Alternates in Latin lookup 1 subtable" W.c2
AlternateSubs2: "'aalt' Access All Alternates lookup 0 subtable" W.c2
Position2: "'cpsp' Capital Spacing in Latin lookup 0 subtable" dx=4 dy=0 dh=8 dv=0
EndChar

StartChar: X
Encoding: 88 88 57
Width: 638
GlyphClass: 2
Flags: MW
HStem: -6 36<26 34 180.5 188 188 196 396 403.5 604 610 610 619.5> 631 36<46 52 52 59 44.5 91 257.5 263 427 435 435 439 577 585>
LayerCount: 2
Back
Fore
SplineSet
7 12 m 0
 7 29 14 30 26 30 c 2
 63 30 l 2
 68 30 99 77 135 129 c 0
 179 194 231 256 279 318 c 0
 284 325 283 328 278 335 c 0
 263 360 97 631 91 631 c 2
 52 631 l 2
 40 631 32 632 32 649 c 0
 32 666 38 667 51 667 c 0
 67 667 140 664 170 664 c 0
 200 664 246 667 269 667 c 0
 283 667 284 663 284 646 c 0
 284 632 279 631 263 631 c 2
 222 631 l 2
 210 631 214 628 217 620 c 0
 237 571 300 459 333 401 c 0
 336 397 340 389 342 389 c 0
 343 389 344 390 346 393 c 0
 365 420 419 503 428 517 c 0
 461 566 491 615 491 630 c 2
 491 631 l 1
 435 631 l 2
 419 631 414 632 414 646 c 0
 414 663 417 667 431 667 c 0
 447 667 473 664 509 664 c 0
 539 664 569 667 585 667 c 0
 598 667 604 665 604 649 c 0
 604 632 597 631 585 631 c 2
 562 631 l 2
 559 631 537 604 515 572 c 0
 456 487 384 396 364 366 c 0
 361 362 362 358 364 355 c 0
 395 306 570 30 576 30 c 2
 610 30 l 2
 629 30 631 29 631 12 c 0
 631 -5 628 -6 612 -6 c 0
 596 -6 538 -3 508 -3 c 0
 478 -3 415 -6 392 -6 c 0
 378 -6 375 -2 375 15 c 0
 375 29 380 30 396 30 c 2
 446 30 l 2
 455 30 456 33 451 41 c 0
 425 93 344 227 306 291 c 0
 303 296 301 297 298 292 c 0
 269 251 173 112 135 50 c 0
 126 35 121 30 133 30 c 2
 188 30 l 2
 204 30 209 29 209 15 c 0
 209 -2 206 -6 192 -6 c 0
 169 -6 139 -3 109 -3 c 0
 79 -3 42 -6 26 -6 c 0
 13 -6 7 -4 7 12 c 0
EndSplineSet
Substitution2: "'c2sc' Capitals to Small Capitals in Latin lookup 14 subtable" X.c2
AlternateSubs2: "'aalt' Access All Alternates in Latin lookup 1 subtable" X.c2
AlternateSubs2: "'aalt' Access All Alternates lookup 0 subtable" X.c2
Position2: "'cpsp' Capital Spacing in Latin lookup 0 subtable" dx=4 dy=0 dh=8 dv=0
EndChar

StartChar: Y
Encoding: 89 89 58
Width: 597
GlyphClass: 2
Flags: MW
HStem: -3 33 636 36<19 25 25 31.5 18.5 54 240.5 245 413 421 421 423 563 571>
VStem: 260 91<259.5 276.5>
LayerCount: 2
Back
Fore
SplineSet
7 654 m 0
 7 671 12 672 25 672 c 0
 38 672 73 669 131 669 c 0
 188 669 232 672 249 672 c 0
 260 672 263 668 263 651 c 0
 263 637 261 636 245 636 c 2
 186 636 l 2
 173 636 174 635 178 625 c 0
 199 574 291 408 320 352 c 0
 328 337 328 334 336 349 c 0
 363 401 475 611 475 633 c 0
 475 635 474 636 473 636 c 2
 421 636 l 2
 405 636 400 637 400 651 c 0
 400 668 403 672 417 672 c 0
 429 672 453 669 495 669 c 0
 538 669 555 672 571 672 c 0
 584 672 590 670 590 654 c 0
 590 637 583 636 571 636 c 2
 537 636 l 2
 532 636 393 384 354 322 c 0
 351 318 351 316 351 313 c 0
 351 206 353 30 360 30 c 2
 429 30 l 2
 441 30 443 26 443 14 c 0
 443 -1 441 -6 429 -6 c 0
 406 -6 368 -3 309 -3 c 0
 267 -3 209 -6 195 -6 c 0
 181 -6 180 -2 180 15 c 0
 180 29 183 30 199 30 c 2
 250 30 l 2
 259 30 260 150 260 271 c 0
 260 282 257 286 253 293 c 0
 224 347 63 636 54 636 c 2
 25 636 l 2
 13 636 7 637 7 654 c 0
EndSplineSet
Substitution2: "'c2sc' Capitals to Small Capitals in Latin lookup 14 subtable" Y.c2
AlternateSubs2: "'aalt' Access All Alternates in Latin lookup 1 subtable" Y.c2
AlternateSubs2: "'aalt' Access All Alternates lookup 0 subtable" Y.c2
Position2: "'cpsp' Capital Spacing in Latin lookup 0 subtable" dx=4 dy=0 dh=8 dv=0
EndChar

StartChar: Z
Encoding: 90 90 59
Width: 601
GlyphClass: 2
Flags: MW
HStem: -3 43 626 38<161 418> 666 20G<77 88>
VStem: 48 40 533 41<150 154>
LayerCount: 2
Back
Fore
SplineSet
37 15 m 0
 37 30 272 373 427 618 c 0
 429 620 429 622 429 623 c 0
 429 625 426 626 418 626 c 2
 106 626 l 2
 102 626 102 625 101 618 c 0
 97 595 89 544 88 540 c 0
 86 529 86 522 77 522 c 0
 72 522 48 524 48 532 c 0
 48 535 61 610 70 677 c 0
 71 682 70 686 84 686 c 0
 92 686 107 685 106 678 c 2
 105 670 l 2
 105 667 106 664 161 664 c 2
 546 664 l 2
 559 664 562 661 562 646 c 0
 562 628 325 302 183 59 c 0
 176 49 172 40 184 40 c 2
 524 40 l 2
 531 40 528 42 530 60 c 0
 532 85 532 111 533 150 c 0
 533 158 547 159 554 159 c 0
 563 159 574 159 574 149 c 0
 574 99 571 38 571 8 c 0
 571 -4 563 -6 554 -6 c 0
 442 -6 152 -3 48 -3 c 0
 39 -3 37 1 37 15 c 0
EndSplineSet
Substitution2: "'c2sc' Capitals to Small Capitals in Latin lookup 14 subtable" Z.c2
AlternateSubs2: "'aalt' Access All Alternates in Latin lookup 1 subtable" Z.c2
AlternateSubs2: "'aalt' Access All Alternates lookup 0 subtable" Z.c2
Position2: "'cpsp' Capital Spacing in Latin lookup 0 subtable" dx=4 dy=0 dh=8 dv=0
EndChar

StartChar: bracketleft
Encoding: 91 91 60
Width: 296
GlyphClass: 2
Flags: MW
HStem: -144 42<138 245 138 245> 651 42<133 138 138 245>
VStem: 77 51<-97.5 -93 -93 642>
LayerCount: 2
Back
Fore
SplineSet
77 -129 m 2
 77 678 l 2
 77 689 79 693 92 693 c 2
 245 693 l 2
 257 693 259 690 259 681 c 2
 259 667 l 2
 259 653 257 651 245 651 c 2
 138 651 l 2
 128 651 128 651 128 642 c 2
 128 -93 l 2
 128 -102 128 -102 138 -102 c 2
 245 -102 l 2
 257 -102 259 -104 259 -118 c 2
 259 -130 l 2
 259 -139 258 -144 245 -144 c 2
 93 -144 l 2
 80 -144 77 -144 77 -129 c 2
EndSplineSet
Substitution2: "'case' Case-Sensitive Forms in Latin lookup 16 subtable" bracketleft.u
Substitution2: "'subs' Subscript in Latin lookup 10 subtable" bracketleft.sub
Substitution2: "'sups' Superscript in Latin lookup 9 subtable" bracketleft.sup
Substitution2: "'dnom' Denominators in Latin lookup 6 subtable" bracketleft.denom
Substitution2: "'numr' Numerators in Latin lookup 5 subtable" bracketleft.numer
AlternateSubs2: "'aalt' Access All Alternates in Latin lookup 1 subtable" bracketleft.u bracketleft.sub bracketleft.sup bracketleft.denom bracketleft.numer
AlternateSubs2: "'aalt' Access All Alternates lookup 0 subtable" bracketleft.u bracketleft.sub bracketleft.sup bracketleft.denom bracketleft.numer
EndChar

StartChar: backslash
Encoding: 92 92 61
Width: 406
GlyphClass: 2
Flags: MW
VStem: 6 57<688 699.5> 335 66<-230 -203>
LayerCount: 2
Back
Fore
SplineSet
6 696 m 0
 6 703 12 707 31 707 c 0
 58 707 58 704 63 688 c 2
 380 -162 l 2
 389 -185 401 -220 401 -224 c 0
 401 -236 383 -236 372 -236 c 0
 345 -236 346 -234 335 -203 c 2
 21 648 l 2
 15 663 6 691 6 696 c 0
EndSplineSet
EndChar

StartChar: bracketright
Encoding: 93 93 62
Width: 296
GlyphClass: 2
Flags: MW
HStem: -144 42<45 158 51 158 158 163 51 206> 651 42<45 203 51 158>
VStem: 168 51<-93 642 642 646.5>
LayerCount: 2
Back
Fore
SplineSet
37 -118 m 2
 37 -104 39 -102 51 -102 c 2
 158 -102 l 2
 168 -102 168 -102 168 -93 c 2
 168 642 l 2
 168 651 168 651 158 651 c 2
 51 651 l 2
 39 651 37 653 37 667 c 2
 37 679 l 2
 37 688 38 693 51 693 c 2
 203 693 l 2
 216 693 219 692 219 679 c 2
 219 -128 l 2
 219 -139 219 -144 206 -144 c 2
 51 -144 l 2
 39 -144 37 -141 37 -132 c 2
 37 -118 l 2
EndSplineSet
Substitution2: "'case' Case-Sensitive Forms in Latin lookup 16 subtable" bracketright.u
Substitution2: "'subs' Subscript in Latin lookup 10 subtable" bracketright.sub
Substitution2: "'sups' Superscript in Latin lookup 9 subtable" bracketright.sup
Substitution2: "'dnom' Denominators in Latin lookup 6 subtable" bracketright.denom
Substitution2: "'numr' Numerators in Latin lookup 5 subtable" bracketright.numer
AlternateSubs2: "'aalt' Access All Alternates in Latin lookup 1 subtable" bracketright.u bracketright.sub bracketright.sup bracketright.denom bracketright.numer
AlternateSubs2: "'aalt' Access All Alternates lookup 0 subtable" bracketright.u bracketright.sub bracketright.sup bracketright.denom bracketright.numer
EndChar

StartChar: asciicircum
Encoding: 94 94 63
Width: 402
GlyphClass: 2
Flags: MW
HStem: 305 328<69 195 195 335>
VStem: 47 312<309 309>
LayerCount: 2
Back
Fore
SplineSet
47 309 m 1
 195 633 l 1
 196 634 l 2
 199 635 201 635 203 635 c 0
 205 635 207 635 210 634 c 2
 211 633 l 1
 359 309 l 1
 349 306 341 305 329 305 c 0
 319 305 313 306 302 308 c 2
 301 308 l 1
 201 535 l 1
 105 308 l 1
 103 308 l 2
 91 306 89 305 75 305 c 0
 63 305 56 306 47 309 c 1
EndSplineSet
EndChar

StartChar: underscore
Encoding: 95 95 64
Width: 410
GlyphClass: 2
Flags: MW
HStem: -73 51<29.5 374 39 374 39 374>
LayerCount: 2
Back
Fore
SplineSet
22 -41 m 2
 22 -27 26 -22 39 -22 c 2
 374 -22 l 2
 387 -22 388 -29 388 -36 c 2
 388 -50 l 2
 388 -57 388 -73 374 -73 c 2
 36 -73 l 2
 23 -73 22 -67 22 -53 c 2
 22 -41 l 2
EndSplineSet
EndChar

StartChar: grave
Encoding: 96 96 65
Width: 400
GlyphClass: 2
Flags: MW
HStem: 446 169<122 195 122 211>
VStem: 95 72<588 588 588 591>
LayerCount: 2
Back
Fore
SplineSet
95 582 m 0
 95 600 110 615 134 615 c 0
 150 615 161 605 167 588 c 2
 216 458 l 2
 217 456 218 453 218 451 c 0
 218 447 214 446 211 446 c 2
 195 446 l 2
 190 446 188 449 185 453 c 2
 103 560 l 2
 98 567 95 574 95 582 c 0
EndSplineSet
EndChar

StartChar: a
Encoding: 97 97 66
Width: 419
GlyphClass: 2
Flags: MW
HStem: -20 57<294 351> 372 30<175 221.5>
VStem: 32 76<83.5 117> 46 74<296 310> 264 71<61 308 192 308 242.5 270.5>
LayerCount: 2
Back
Fore
SplineSet
32 71 m 0xe8
 32 163 160 205 259 222 c 0
 264 223 264 226 264 235 c 0
 264 306 263 372 180 372 c 0
 170 372 158 370 149 366 c 0
 122 355 120 340 120 299 c 0
 120 293 119 283 113 279 c 0
 96 267 60 249 55 249 c 0
 50 249 46 257 46 268 c 0xd8
 46 352 135 402 201 402 c 0
 304 402 335 348 335 268 c 0
 335 217 329 86 329 64 c 0
 329 42 344 37 347 37 c 0
 355 37 385 62 387 62 c 0
 392 62 403 48 403 42 c 0
 403 40 376 21 352 3 c 0
 334 -10 317 -20 310 -20 c 0
 278 -20 274 10 268 26 c 0
 265 35 264 33 257 29 c 0
 228 11 177 -17 133 -17 c 0
 70 -17 32 18 32 71 c 0xe8
108 99 m 0xe8
 108 68 130 33 170 33 c 0
 208 33 264 54 264 61 c 2
 264 192 l 2
 264 199 263 200 261 200 c 0
 258 200 228 194 200 185 c 0
 153 170 108 144 108 99 c 0xe8
EndSplineSet
Substitution2: "'smcp' Lowercase to Small Capitals in Latin lookup 13 subtable" a.sc
Substitution2: "'subs' Subscript in Latin lookup 10 subtable" a.sub
Substitution2: "'sups' Superscript in Latin lookup 9 subtable" a.sup
Substitution2: "'dnom' Denominators in Latin lookup 6 subtable" a.denom
Substitution2: "'numr' Numerators in Latin lookup 5 subtable" a.numer
AlternateSubs2: "'aalt' Access All Alternates in Latin lookup 1 subtable" a.sc a.sub a.sup a.denom a.numer
AlternateSubs2: "'aalt' Access All Alternates lookup 0 subtable" a.sc a.sub a.sup a.denom a.numer
EndChar

StartChar: b
Encoding: 98 98 67
Width: 485
GlyphClass: 2
Flags: MW
HStem: -16 33<222.5 283 222.5 297.5> 354 35<238 265.5> 636 43
VStem: 86 72<107 333.5> 380 78<143 233>
LayerCount: 2
Back
Fore
SplineSet
1 639 m 0
 1 641 2 663 7 663 c 0
 55 667 147 679 153 679 c 0
 160 679 161 676 161 671 c 0
 161 644 158 538 158 390 c 0
 158 373 158 361 160 361 c 0
 163 361 213 389 263 389 c 0
 378 389 458 301 458 188 c 0
 458 59 354 -16 241 -16 c 0
 196 -16 170 3 145 3 c 0
 121 3 108 -15 92 -15 c 0
 82 -15 82 -5 82 1 c 0
 82 7 86 28 86 186 c 0
 86 334 81 636 71 636 c 0
 63 636 15 630 10 630 c 0
 1 630 1 633 1 639 c 0
156 64 m 0
 156 18 208 17 237 17 c 0
 329 17 380 99 380 187 c 0
 380 279 308 354 223 354 c 0
 195 354 158 337 158 330 c 0
 158 228 156 97 156 64 c 0
EndSplineSet
Substitution2: "'smcp' Lowercase to Small Capitals in Latin lookup 13 subtable" b.sc
Substitution2: "'subs' Subscript in Latin lookup 10 subtable" b.sub
Substitution2: "'sups' Superscript in Latin lookup 9 subtable" b.sup
Substitution2: "'dnom' Denominators in Latin lookup 6 subtable" b.denom
Substitution2: "'numr' Numerators in Latin lookup 5 subtable" b.numer
AlternateSubs2: "'aalt' Access All Alternates in Latin lookup 1 subtable" b.sc b.sub b.sup b.denom b.numer
AlternateSubs2: "'aalt' Access All Alternates lookup 0 subtable" b.sc b.sub b.sup b.denom b.numer
EndChar

StartChar: c
Encoding: 99 99 68
Width: 412
GlyphClass: 2
Flags: MW
HStem: -13 50<203.5 273.5> 369 33<193.5 265.5>
VStem: 32 71<160.5 241 160.5 252> 314 63
LayerCount: 2
Back
Fore
SplineSet
32 177 m 0
 32 327 143 402 241 402 c 0
 307 402 377 357 377 303 c 0
 377 294 375 288 366 281 c 0
 357 274 344 267 334 267 c 0
 325 267 317 270 314 280 c 0
 298 326 296 369 235 369 c 0
 152 369 103 280 103 202 c 0
 103 119 153 37 254 37 c 0
 323 37 370 67 375 67 c 0
 382 67 385 66 385 56 c 0
 385 50 323 -13 224 -13 c 0
 105 -13 32 62 32 177 c 0
EndSplineSet
Substitution2: "'smcp' Lowercase to Small Capitals in Latin lookup 13 subtable" c.sc
Substitution2: "'subs' Subscript in Latin lookup 10 subtable" c.sub
Substitution2: "'sups' Superscript in Latin lookup 9 subtable" c.sup
Substitution2: "'dnom' Denominators in Latin lookup 6 subtable" c.denom
Substitution2: "'numr' Numerators in Latin lookup 5 subtable" c.numer
AlternateSubs2: "'aalt' Access All Alternates in Latin lookup 1 subtable" c.sc c.sub c.sup c.denom c.numer
AlternateSubs2: "'aalt' Access All Alternates lookup 0 subtable" c.sc c.sub c.sup c.denom c.numer
EndChar

StartChar: d
Encoding: 100 100 69
Width: 499
GlyphClass: 2
Flags: MW
HStem: -26 21G<341.5 347.5> -16 43<202 225.5> 356 1 631 34 640 43
VStem: 27 79<142 232 142 238.5> 339 68<168 307 307 312 168 403>
LayerCount: 2
Back
Fore
SplineSet
27 181 m 0x66
 27 296 116 382 233 382 c 0
 290 382 333 357 336 357 c 0
 338 357 339 363 339 371 c 0
 339 435 334 640 328 640 c 0x6e
 322 640 268 631 261 631 c 0
 256 631 255 636 257 649 c 0
 259 662 258 664 266 665 c 0x36
 332 672 392 683 408 683 c 0
 412 683 413 681 413 667 c 0
 413 633 407 494 407 184 c 0
 407 152 408 105 409 69 c 0
 410 26 414 17 431 17 c 0
 434 17 457 21 467 22 c 0
 473 23 477 23 477 16 c 0
 477 2 477 -9 468 -10 c 2
 468 -10 350 -26 345 -26 c 0xae
 338 -26 337 -23 337 -14 c 0
 337 -12 338 18 338 22 c 0
 338 27 335 28 327 23 c 0
 293 2 245 -16 206 -16 c 0
 116 -16 27 35 27 181 c 0x66
106 188 m 0
 106 96 149 27 255 27 c 0
 282 27 339 43 339 57 c 2
 339 307 l 2
 339 317 296 356 245 356 c 0
 159 356 106 276 106 188 c 0
EndSplineSet
Substitution2: "'smcp' Lowercase to Small Capitals in Latin lookup 13 subtable" d.sc
Substitution2: "'subs' Subscript in Latin lookup 10 subtable" d.sub
Substitution2: "'sups' Superscript in Latin lookup 9 subtable" d.sup
Substitution2: "'dnom' Denominators in Latin lookup 6 subtable" d.denom
Substitution2: "'numr' Numerators in Latin lookup 5 subtable" d.numer
AlternateSubs2: "'aalt' Access All Alternates in Latin lookup 1 subtable" d.sc d.sub d.sup d.denom d.numer
AlternateSubs2: "'aalt' Access All Alternates lookup 0 subtable" d.sc d.sub d.sup d.denom d.numer
EndChar

StartChar: e
Encoding: 101 101 70
Width: 424
GlyphClass: 2
Flags: MW
HStem: -18 50<210 275> 227 23<113 113.5> 371 28<190 237.5>
VStem: 28 75<142.5 200 142.5 245> 311 75<256 279.5 230.5 304>
LayerCount: 2
Back
Fore
SplineSet
28 185 m 0
 28 305 112 399 234 399 c 0
 335 399 386 322 386 237 c 0
 386 224 339 222 329 222 c 0
 318 222 121 227 106 227 c 1
 104 222 103 206 103 194 c 0
 103 91 174 32 246 32 c 0
 330 32 372 97 378 97 c 0
 381 97 398 82 398 80 c 0
 398 74 327 -18 223 -18 c 0
 97 -18 28 66 28 185 c 0
108 255 m 0
 108 251 109 250 117 250 c 0
 122 250 224 252 274 254 c 0
 299 255 311 254 311 258 c 0
 311 350 253 371 222 371 c 0
 158 371 112 304 108 255 c 0
EndSplineSet
Substitution2: "'smcp' Lowercase to Small Capitals in Latin lookup 13 subtable" e.sc
Substitution2: "'subs' Subscript in Latin lookup 10 subtable" e.sub
Substitution2: "'sups' Superscript in Latin lookup 9 subtable" e.sup
Substitution2: "'dnom' Denominators in Latin lookup 6 subtable" e.denom
Substitution2: "'numr' Numerators in Latin lookup 5 subtable" e.numer
AlternateSubs2: "'aalt' Access All Alternates in Latin lookup 1 subtable" e.sc e.sub e.sup e.denom e.numer
AlternateSubs2: "'aalt' Access All Alternates lookup 0 subtable" e.sc e.sub e.sup e.denom e.numer
EndChar

StartChar: f
Encoding: 102 102 71
Width: 306
GlyphClass: 2
Flags: MW
HStem: -5 33<47 63 229.5 241 241 246> 344 31<183 294 294 295> 653 28<191.5 235>
VStem: 87 77<172 232 232 244> 262 67
LayerCount: 2
Back
Fore
SplineSet
32 12 m 0
 32 22 35 28 47 28 c 2
 84 28 l 2
 88 28 88 64 88 88 c 0
 88 123 87 161 87 172 c 2
 87 232 l 2
 87 256 87 343 85 343 c 2
 52 343 l 2
 40 343 38 346 38 359 c 0
 38 372 40 375 49 375 c 2
 79 375 l 2
 85 375 86 375 86 384 c 0
 86 433 84 428 84 481 c 0
 84 586 124 681 243 681 c 0
 283 681 329 654 329 611 c 0
 329 586 293 561 278 561 c 0
 269 561 263 563 262 573 c 0
 256 619 252 653 218 653 c 0
 165 653 162 555 162 492 c 0
 162 449 161 432 160 389 c 0
 160 375 164 375 183 375 c 2
 294 375 l 2
 299 375 304 375 304 368 c 0
 304 366 301 344 295 344 c 2
 183 344 l 2
 168 344 164 343 164 335 c 2
 164 169 l 2
 164 102 167 28 173 28 c 2
 241 28 l 2
 253 28 253 24 253 12 c 0
 253 0 253 -5 239 -5 c 0
 220 -5 160 -3 131 -3 c 0
 106 -3 78 -5 48 -5 c 0
 34 -5 32 1 32 12 c 0
EndSplineSet
Substitution2: "'smcp' Lowercase to Small Capitals in Latin lookup 13 subtable" f.sc
Substitution2: "'subs' Subscript in Latin lookup 10 subtable" f.sub
Substitution2: "'sups' Superscript in Latin lookup 9 subtable" f.sup
Substitution2: "'dnom' Denominators in Latin lookup 6 subtable" f.denom
Substitution2: "'numr' Numerators in Latin lookup 5 subtable" f.numer
AlternateSubs2: "'aalt' Access All Alternates in Latin lookup 1 subtable" f.sc f.sub f.sup f.denom f.numer
AlternateSubs2: "'aalt' Access All Alternates lookup 0 subtable" f.sc f.sub f.sup f.denom f.numer
EndChar

StartChar: g
Encoding: 103 103 72
Width: 425
GlyphClass: 2
Flags: MW
HStem: -293 32<169 236.5 169 265> -54 57<89 90 89 97 89 133> 367 31<177.5 234.5>
VStem: 12 51<-197.5 -140.5> 31 70<201.5 282.5 201.5 291> 45 33<10.5 32> 302 68<200 263.5 200 283> 360 63<-176 -121>
LayerCount: 2
Back
Fore
SplineSet
12 -173 m 0xf1
 12 -108 85 -73 135 -59 c 0
 150 -54 154 -54 133 -54 c 2
 97 -54 l 2
 80 -54 61 -48 54 -33 c 0
 46 -13 45 5 45 16 c 0
 45 34 50 48 65 51 c 0
 69 52 169 78 169 79 c 0
 169 80 165 81 160 82 c 0xe4
 86 103 31 151 31 246 c 0xe8
 31 336 120 398 210 398 c 0
 286 398 329 347 334 347 c 0
 338 347 377 364 407 366 c 0
 414 366 419 346 419 335 c 0
 419 331 418 326 413 326 c 0
 403 325 358 317 358 314 c 0
 358 310 370 284 370 243 c 0
 370 157 325 115 253 88 c 0
 207 70 147 55 80 36 c 0
 79 36 78 34 78 30 c 0xe6
 78 20 88 3 90 3 c 0
 217 -5 423 9 423 -124 c 0
 423 -228 330 -293 200 -293 c 0
 117 -293 12 -256 12 -173 c 0xf1
63 -166 m 0xf1
 63 -229 139 -261 199 -261 c 0
 274 -261 360 -233 360 -148 c 0
 360 -94 263 -71 189 -71 c 0
 142 -71 63 -103 63 -166 c 0xf1
101 250 m 0
 101 153 184 98 207 98 c 0
 244 98 302 155 302 244 c 0xea
 302 322 264 367 205 367 c 0
 150 367 101 315 101 250 c 0
EndSplineSet
Substitution2: "'smcp' Lowercase to Small Capitals in Latin lookup 13 subtable" g.sc
Substitution2: "'subs' Subscript in Latin lookup 10 subtable" g.sub
Substitution2: "'sups' Superscript in Latin lookup 9 subtable" g.sup
Substitution2: "'dnom' Denominators in Latin lookup 6 subtable" g.denom
Substitution2: "'numr' Numerators in Latin lookup 5 subtable" g.numer
AlternateSubs2: "'aalt' Access All Alternates in Latin lookup 1 subtable" g.sc g.sub g.sup g.denom g.numer
AlternateSubs2: "'aalt' Access All Alternates lookup 0 subtable" g.sc g.sub g.sup g.denom g.numer
EndChar

StartChar: h
Encoding: 104 104 73
Width: 503
GlyphClass: 2
Flags: MW
HStem: -5 33<39 53 202.5 212 212 218.5 303 320 457.5 467 467 473.5> 341 47<280.5 295.5> 658 20G<157.5 165>
VStem: 78 91 86 75<177.5 309> 356 74<160 180>
LayerCount: 2
Back
Fore
SplineSet
7 641 m 0xf4
 7 657 8 659 14 660 c 0
 71 668 154 678 161 678 c 0xec
 169 678 169 674 169 664 c 0xf4
 169 652 161 493 161 354 c 0
 161 344 160 343 168 348 c 0
 199 365 259 388 302 388 c 0
 417 388 430 288 430 180 c 2
 430 95 l 2
 430 60 430 28 433 28 c 2
 467 28 l 2
 480 28 481 22 481 12 c 0
 481 2 480 -5 467 -5 c 0
 448 -5 422 -3 393 -3 c 0
 368 -3 335 -5 305 -5 c 0
 291 -5 291 1 291 12 c 0
 291 22 292 28 303 28 c 2
 351 28 l 2
 356 28 356 108 356 212 c 0
 356 284 328 341 263 341 c 0
 224 341 195 330 175 320 c 0
 161 313 161 310 161 308 c 2
 161 308 162 126 162 116 c 0
 162 76 162 28 166 28 c 2
 212 28 l 2
 225 28 225 22 225 12 c 0
 225 3 225 -5 212 -5 c 0
 193 -5 155 -3 126 -3 c 0
 101 -3 68 -5 38 -5 c 0
 24 -5 24 1 24 12 c 0
 24 22 27 28 39 28 c 2
 82 28 l 2
 86 28 86 143 86 212 c 0xec
 86 339 83 529 78 619 c 0
 77 634 76 633 72 633 c 0
 70 633 18 626 13 626 c 0
 7 626 7 631 7 641 c 0xf4
EndSplineSet
Substitution2: "'smcp' Lowercase to Small Capitals in Latin lookup 13 subtable" h.sc
Substitution2: "'subs' Subscript in Latin lookup 10 subtable" h.sub
Substitution2: "'sups' Superscript in Latin lookup 9 subtable" h.sup
Substitution2: "'dnom' Denominators in Latin lookup 6 subtable" h.denom
Substitution2: "'numr' Numerators in Latin lookup 5 subtable" h.numer
AlternateSubs2: "'aalt' Access All Alternates in Latin lookup 1 subtable" h.sc h.sub h.sup h.denom h.numer
AlternateSubs2: "'aalt' Access All Alternates lookup 0 subtable" h.sc h.sub h.sup h.denom h.numer
EndChar

StartChar: i
Encoding: 105 105 74
Width: 249
GlyphClass: 2
Flags: MW
HStem: -5 33<40 46.5 205.5 215 215 220.5> 350 31<27 44> 509 102<124.5 132.5>
VStem: 74 108<550 572> 93 74<114.5 207>
LayerCount: 2
Back
Fore
SplineSet
20 354 m 0xe8
 20 357 22 363 25 371 c 0
 29 381 32 381 44 381 c 0
 99 383 152 386 157 386 c 0
 167 386 167 383 167 377 c 2
 167 207 l 2
 167 183 167 28 172 28 c 2
 215 28 l 2
 227 28 227 23 227 12 c 0
 227 2 226 -5 215 -5 c 0
 196 -5 154 -3 129 -3 c 0
 104 -3 56 -5 37 -5 c 0
 25 -5 25 1 25 12 c 0
 25 22 26 28 40 28 c 2
 90 28 l 2
 93 28 93 104 93 125 c 0
 93 195 92 266 89 339 c 0
 88 353 84 352 77 352 c 0
 74 352 33 350 29 350 c 0
 25 350 20 350 20 354 c 0xe8
74 553 m 0xf0
 74 591 112 611 137 611 c 0
 159 611 182 599 182 568 c 0
 182 532 147 509 118 509 c 0
 96 509 74 523 74 553 c 0xf0
EndSplineSet
Substitution2: "'smcp' Lowercase to Small Capitals in Latin lookup 13 subtable" i.sc
Substitution2: "'subs' Subscript in Latin lookup 10 subtable" i.sub
Substitution2: "'sups' Superscript in Latin lookup 9 subtable" i.sup
Substitution2: "'dnom' Denominators in Latin lookup 6 subtable" i.denom
Substitution2: "'numr' Numerators in Latin lookup 5 subtable" i.numer
Substitution2: "'locl' Localized Forms in Latin lookup 4 subtable" i.TRK
AlternateSubs2: "'aalt' Access All Alternates in Latin lookup 1 subtable" i.sc i.sub i.sup i.denom i.numer i.TRK
AlternateSubs2: "'aalt' Access All Alternates lookup 0 subtable" i.sc i.sub i.sup i.denom i.numer
EndChar

StartChar: j
Encoding: 106 106 75
Width: 292
GlyphClass: 2
Flags: MW
HStem: -278 79<37 39> 342 33<49.5 53 49.5 53.5> 536 102<127.5 135.5>
VStem: 77 108<577 599> 127 78<-26.5 270>
LayerCount: 2
Back
Fore
SplineSet
2 -255 m 0xe8
 2 -232 30 -199 44 -199 c 0
 65 -199 92 -203 101 -203 c 0
 127 -203 136 -188 136 -173 c 0
 136 -134 127 -41 127 258 c 0
 127 282 127 307 125 334 c 0
 124 346 123 345 119 345 c 0
 112 345 58 342 49 342 c 0
 44 342 42 341 42 346 c 0
 42 353 46 375 53 375 c 0
 111 377 187 381 190 381 c 0
 201 381 200 372 200 355 c 0
 200 266 205 155 205 27 c 0
 205 -80 198 -156 150 -218 c 0
 131 -242 54 -278 24 -278 c 0
 9 -278 2 -267 2 -255 c 0xe8
77 580 m 0xf0
 77 618 115 638 140 638 c 0
 162 638 185 626 185 595 c 0
 185 559 150 536 121 536 c 0
 99 536 77 550 77 580 c 0xf0
EndSplineSet
Substitution2: "'smcp' Lowercase to Small Capitals in Latin lookup 13 subtable" j.sc
Substitution2: "'subs' Subscript in Latin lookup 10 subtable" j.sub
Substitution2: "'sups' Superscript in Latin lookup 9 subtable" j.sup
Substitution2: "'dnom' Denominators in Latin lookup 6 subtable" j.denom
Substitution2: "'numr' Numerators in Latin lookup 5 subtable" j.numer
AlternateSubs2: "'aalt' Access All Alternates in Latin lookup 1 subtable" j.sc j.sub j.sup j.denom j.numer
AlternateSubs2: "'aalt' Access All Alternates lookup 0 subtable" j.sc j.sub j.sup j.denom j.numer
EndChar

StartChar: k
Encoding: 107 107 76
Width: 449
GlyphClass: 2
Flags: MW
HStem: -5 33<30 36.5 176.5 186 186 192 288 295 421 428 428 435> 190 22<157 187 165 172> 357 33<255.5 261 261 267 255.5 285 378.5 385> 642 42
VStem: 82 70<76 93 93 177 217.5 222>
LayerCount: 2
Back
Fore
SplineSet
6 649 m 2
 6 660 l 2
 6 668 7 673 18 674 c 0
 56 677 149 684 155 684 c 0
 164 684 163 680 163 668 c 2
 152 222 l 2
 152 213 153 212 165 212 c 2
 187 212 l 2
 200 212 207 223 214 233 c 0
 242 270 269 308 292 346 c 0
 299 356 295 357 285 357 c 2
 261 357 l 2
 248 357 248 363 248 373 c 0
 248 383 249 390 262 390 c 0
 272 390 298 388 324 388 c 0
 350 388 371 390 386 390 c 0
 395 390 398 385 398 373 c 0
 398 363 397 357 385 357 c 2
 353 357 l 2
 344 357 266 260 245 235 c 0
 235 223 237 225 245 215 c 2
 396 40 l 2
 406 28 408 28 416 28 c 2
 428 28 l 2
 442 28 442 24 442 12 c 0
 442 1 442 -5 428 -5 c 0
 414 -5 384 -3 359 -3 c 0
 334 -3 302 -5 288 -5 c 0
 275 -5 275 1 275 12 c 0
 275 22 276 28 288 28 c 2
 301 28 l 2
 311 28 309 31 304 38 c 2
 194 174 l 2
 182 189 181 190 172 190 c 2
 160 190 l 2
 154 190 152 189 152 177 c 2
 152 93 l 2
 152 59 152 28 154 28 c 2
 186 28 l 2
 199 28 199 22 199 9 c 0
 199 2 198 -5 186 -5 c 0
 167 -5 144 -3 115 -3 c 0
 82 -3 42 -5 31 -5 c 0
 18 -5 18 1 18 12 c 0
 18 22 18 28 30 28 c 2
 74 28 l 2
 82 28 82 28 82 43 c 2
 82 236 l 2
 82 414 81 642 74 642 c 0
 71 642 26 639 17 639 c 0
 7 639 6 640 6 649 c 2
EndSplineSet
Substitution2: "'smcp' Lowercase to Small Capitals in Latin lookup 13 subtable" k.sc
Substitution2: "'subs' Subscript in Latin lookup 10 subtable" k.sub
Substitution2: "'sups' Superscript in Latin lookup 9 subtable" k.sup
Substitution2: "'dnom' Denominators in Latin lookup 6 subtable" k.denom
Substitution2: "'numr' Numerators in Latin lookup 5 subtable" k.numer
AlternateSubs2: "'aalt' Access All Alternates in Latin lookup 1 subtable" k.sc k.sub k.sup k.denom k.numer
AlternateSubs2: "'aalt' Access All Alternates lookup 0 subtable" k.sc k.sub k.sup k.denom k.numer
EndChar

StartChar: l
Encoding: 108 108 77
Width: 257
GlyphClass: 2
Flags: MW
HStem: -5 33<39 55 209.5 219 219 225> 643 38
VStem: 95 76<96.5 134.5>
LayerCount: 2
Back
Fore
SplineSet
16 644 m 0
 16 645 17 656 19 663 c 0
 21 672 23 671 31 672 c 0
 71 675 149 681 155 681 c 0
 165 681 165 674 165 663 c 0
 166 356 171 265 171 64 c 0
 171 39 172 28 176 28 c 2
 219 28 l 2
 231 28 231 23 231 12 c 0
 231 0 231 -5 219 -5 c 0
 200 -5 165 -3 136 -3 c 0
 111 -3 70 -5 40 -5 c 0
 28 -5 27 1 27 12 c 0
 27 22 28 28 39 28 c 2
 90 28 l 2
 95 28 95 83 95 110 c 0
 95 159 92 538 84 627 c 0
 82 645 78 643 73 643 c 0
 67 643 25 639 21 639 c 0
 17 639 16 639 16 644 c 0
EndSplineSet
Substitution2: "'smcp' Lowercase to Small Capitals in Latin lookup 13 subtable" l.sc
Substitution2: "'subs' Subscript in Latin lookup 10 subtable" l.sub
Substitution2: "'sups' Superscript in Latin lookup 9 subtable" l.sup
Substitution2: "'dnom' Denominators in Latin lookup 6 subtable" l.denom
Substitution2: "'numr' Numerators in Latin lookup 5 subtable" l.numer
Substitution2: "'locl' Localized Forms in Latin lookup 2 subtable" l.CAT
AlternateSubs2: "'aalt' Access All Alternates in Latin lookup 1 subtable" l.sc l.sub l.sup l.denom l.numer l.CAT
AlternateSubs2: "'aalt' Access All Alternates lookup 0 subtable" l.sc l.sub l.sup l.denom l.numer
EndChar

StartChar: m
Encoding: 109 109 78
Width: 739
GlyphClass: 2
Flags: MW
HStem: -5 33<36 45 193.5 203 203 209.5 296 314 441.5 451 451 456 538 551 693.5 703 703 709.5> 341 50<281 304> 344 40
VStem: 90 73<163 272 272 286> 341 72<101 124 124 144> 587 76<221 249.5>
LayerCount: 2
Back
Fore
SplineSet
21 350 m 0xbc
 21 353 24 362 26 369 c 0
 29 379 29 378 43 379 c 0
 84 381 145 384 150 384 c 0xbc
 162 384 162 381 162 370 c 2
 162 340 l 2
 162 331 162 331 167 335 c 0
 197 356 252 391 310 391 c 0
 386 391 396 340 399 340 c 0
 402 340 470 389 536 389 c 0
 635 389 663 327 663 240 c 0
 663 202 661 80 661 70 c 0
 661 45 662 28 663 28 c 2
 703 28 l 2
 716 28 717 22 717 12 c 0
 717 2 716 -5 703 -5 c 0
 684 -5 653 -3 624 -3 c 0
 599 -3 566 -5 536 -5 c 0
 524 -5 523 1 523 12 c 0
 523 23 527 28 538 28 c 2
 579 28 l 2
 587 28 587 180 587 216 c 0
 587 283 571 341 501 341 c 0
 454 341 407 315 407 313 c 0
 407 306 413 296 413 236 c 2
 413 124 l 2
 413 75 413 28 415 28 c 2
 451 28 l 2
 464 28 464 22 464 12 c 0
 464 2 461 -5 451 -5 c 0
 432 -5 403 -3 374 -3 c 0
 349 -3 329 -5 299 -5 c 0
 285 -5 283 0 283 12 c 0
 283 22 284 28 296 28 c 2
 334 28 l 2
 341 28 341 80 341 122 c 0
 341 166 340 209 340 216 c 0
 340 285 337 341 271 341 c 0xdc
 222 341 188 324 173 312 c 0
 163 304 163 301 163 296 c 2
 163 57 l 2
 163 28 164 28 179 28 c 2
 203 28 l 2
 216 28 217 22 217 12 c 0
 217 2 216 -5 203 -5 c 0
 184 -5 149 -3 124 -3 c 0
 99 -3 53 -5 37 -5 c 0
 28 -5 25 -2 25 11 c 0
 25 21 26 28 36 28 c 2
 78 28 l 2
 83 28 86 37 88 57 c 0
 90 77 90 118 90 163 c 2
 90 272 l 2
 90 300 89 327 88 340 c 0
 87 347 88 347 82 347 c 0
 66 346 30 344 26 344 c 0
 23 344 21 345 21 350 c 0xbc
EndSplineSet
Substitution2: "'smcp' Lowercase to Small Capitals in Latin lookup 13 subtable" m.sc
Substitution2: "'subs' Subscript in Latin lookup 10 subtable" m.sub
Substitution2: "'sups' Superscript in Latin lookup 9 subtable" m.sup
Substitution2: "'dnom' Denominators in Latin lookup 6 subtable" m.denom
Substitution2: "'numr' Numerators in Latin lookup 5 subtable" m.numer
AlternateSubs2: "'aalt' Access All Alternates in Latin lookup 1 subtable" m.sc m.sub m.sup m.denom m.numer
AlternateSubs2: "'aalt' Access All Alternates lookup 0 subtable" m.sc m.sub m.sup m.denom m.numer
EndChar

StartChar: n
Encoding: 110 110 79
Width: 514
GlyphClass: 2
Flags: MW
HStem: -5 33<41 56 206.5 215 215 222 316 330 467.5 475 475 481.5> 339 48<275 309.5> 343 34
VStem: 94 72 365 77<179.5 248>
LayerCount: 2
Back
Fore
SplineSet
20 348 m 0xb8
 20 352 24 362 26 367 c 0
 29 375 28 376 42 377 c 0xb8
 56 378 124 382 153 384 c 0
 168 385 166 380 166 370 c 2
 166 336 l 2
 166 325 170 332 177 336 c 0
 207 355 244 387 306 387 c 0
 424 387 442 305 442 207 c 0
 442 152 437 52 437 37 c 0
 437 28 437 28 445 28 c 2
 475 28 l 2
 488 28 492 25 492 12 c 0
 492 3 491 -5 477 -5 c 0
 458 -5 431 -3 402 -3 c 0
 377 -3 345 -5 315 -5 c 0
 300 -5 300 -1 300 11 c 0
 300 24 305 28 316 28 c 2
 359 28 l 2
 363 28 365 112 365 212 c 0
 365 284 347 339 272 339 c 0xd8
 233 339 204 321 184 311 c 0
 169 303 168 299 168 291 c 0
 168 209 167 126 167 44 c 0
 167 28 168 28 177 28 c 2
 215 28 l 2
 229 28 229 22 229 12 c 0
 229 3 229 -5 216 -5 c 0
 197 -5 161 -3 132 -3 c 0
 107 -3 71 -5 41 -5 c 0
 28 -5 28 1 28 12 c 0
 28 22 29 28 41 28 c 2
 86 28 l 2
 92 28 94 205 94 237 c 0
 94 271 94 305 92 336 c 0
 91 350 87 347 81 347 c 0
 78 347 29 343 25 343 c 0
 21 343 20 345 20 348 c 0xb8
EndSplineSet
Substitution2: "'smcp' Lowercase to Small Capitals in Latin lookup 13 subtable" n.sc
Substitution2: "'subs' Subscript in Latin lookup 10 subtable" n.sub
Substitution2: "'sups' Superscript in Latin lookup 9 subtable" n.sup
Substitution2: "'dnom' Denominators in Latin lookup 6 subtable" n.denom
Substitution2: "'numr' Numerators in Latin lookup 5 subtable" n.numer
AlternateSubs2: "'aalt' Access All Alternates in Latin lookup 1 subtable" n.sc n.sub n.sup n.denom n.numer
AlternateSubs2: "'aalt' Access All Alternates lookup 0 subtable" n.sc n.sub n.sup n.denom n.numer
EndChar

StartChar: o
Encoding: 111 111 80
Width: 446
GlyphClass: 2
Flags: MW
HStem: -18 32<181.5 271.5 181.5 282> 367 32<177.5 263.5>
VStem: 27 77<132 224 132 242.5> 341 78<162 240>
LayerCount: 2
Back
Fore
SplineSet
27 183 m 0
 27 302 110 399 235 399 c 0
 346 399 419 308 419 197 c 0
 419 73 345 -18 219 -18 c 0
 110 -18 27 73 27 183 c 0
104 169 m 0
 104 95 144 14 219 14 c 0
 324 14 341 120 341 204 c 0
 341 276 304 367 223 367 c 0
 132 367 104 279 104 169 c 0
EndSplineSet
Substitution2: "'smcp' Lowercase to Small Capitals in Latin lookup 13 subtable" o.sc
Substitution2: "'subs' Subscript in Latin lookup 10 subtable" o.sub
Substitution2: "'sups' Superscript in Latin lookup 9 subtable" o.sup
Substitution2: "'dnom' Denominators in Latin lookup 6 subtable" o.denom
Substitution2: "'numr' Numerators in Latin lookup 5 subtable" o.numer
AlternateSubs2: "'aalt' Access All Alternates in Latin lookup 1 subtable" o.sc o.sub o.sup o.denom o.numer
AlternateSubs2: "'aalt' Access All Alternates lookup 0 subtable" o.sc o.sub o.sup o.denom o.numer
EndChar

StartChar: p
Encoding: 112 112 81
Width: 512
GlyphClass: 2
Flags: MW
HStem: -282 31 -12 25<249.5 310.5 249.5 334.5> 344 33<28 30 28 32> 345 41<284.5 311>
VStem: 108 73<-8 -3 40.5 48 48 49 49 155.5> 402 78<147.5 235.5>
LayerCount: 2
Back
Fore
SplineSet
21 348 m 0xec
 21 349 26 377 30 377 c 0xec
 97 379 162 383 166 383 c 0
 175 383 180 381 180 366 c 2
 180 346 l 2
 180 334 189 343 196 348 c 0
 220 365 263 386 306 386 c 0xdc
 423 386 480 301 480 194 c 0
 480 92 401 -12 268 -12 c 0
 225 -12 186 5 183 5 c 0
 181 5 181 2 181 -8 c 2
 184 -187 l 2
 185 -220 186 -251 189 -251 c 2
 259 -251 l 2
 273 -251 273 -257 273 -267 c 0
 273 -276 272 -284 259 -284 c 0
 240 -284 180 -282 151 -282 c 0
 126 -282 81 -284 51 -284 c 0
 39 -284 38 -278 38 -267 c 0
 38 -257 39 -251 51 -251 c 2
 105 -251 l 2
 108 -251 108 -159 108 -94 c 2
 108 48 l 2
 108 263 104 294 101 335 c 0
 100 348 98 346 88 346 c 0
 77 346 34 344 30 344 c 0
 23 344 21 344 21 348 c 0xec
181 49 m 2
 181 32 234 13 265 13 c 0
 356 13 402 108 402 187 c 0
 402 284 347 345 275 345 c 0xdc
 247 345 227 339 212 332 c 0
 182 317 181 307 181 306 c 2
 181 49 l 2
EndSplineSet
Substitution2: "'smcp' Lowercase to Small Capitals in Latin lookup 13 subtable" p.sc
Substitution2: "'subs' Subscript in Latin lookup 10 subtable" p.sub
Substitution2: "'sups' Superscript in Latin lookup 9 subtable" p.sup
Substitution2: "'dnom' Denominators in Latin lookup 6 subtable" p.denom
Substitution2: "'numr' Numerators in Latin lookup 5 subtable" p.numer
AlternateSubs2: "'aalt' Access All Alternates in Latin lookup 1 subtable" p.sc p.sub p.sup p.denom p.numer
AlternateSubs2: "'aalt' Access All Alternates lookup 0 subtable" p.sc p.sub p.sup p.denom p.numer
EndChar

StartChar: q
Encoding: 113 113 82
Width: 490
GlyphClass: 2
Flags: MW
HStem: -294 35 -283 35<416 425 425 452 452 455> -16 38<205 230.5> 351 33<191.5 267> 373 20G<393.5 408.5>
VStem: 32 77<151 229.5 151 239> 336 76<41 77>
LayerCount: 2
Back
Fore
SplineSet
32 180 m 0xa6
 32 298 122 384 243 384 c 0xb6
 300 384 342 358 360 358 c 0
 375 358 384 393 403 393 c 0
 414 393 417 386 417 375 c 0
 413 256 412 168 412 77 c 2
 412 -88 l 2
 412 -154 412 -248 416 -248 c 2
 452 -248 l 2
 464 -248 468 -249 468 -266 c 0
 468 -280 468 -283 455 -283 c 2
 425 -283 l 2x6e
 338 -283 266 -294 260 -294 c 0
 250 -294 250 -286 250 -273 c 0
 250 -267 251 -260 262 -259 c 0
 325 -253 333 -258 333 -230 c 2
 335 0 l 2
 335 10 330 6 320 3 c 0
 296 -4 252 -16 209 -16 c 0
 130 -16 32 37 32 180 c 0xa6
109 191 m 0
 109 111 160 22 250 22 c 0
 281 22 336 30 336 41 c 2
 336 291 l 2
 336 328 299 351 235 351 c 0
 148 351 109 268 109 191 c 0
EndSplineSet
Substitution2: "'smcp' Lowercase to Small Capitals in Latin lookup 13 subtable" q.sc
Substitution2: "'subs' Subscript in Latin lookup 10 subtable" q.sub
Substitution2: "'sups' Superscript in Latin lookup 9 subtable" q.sup
Substitution2: "'dnom' Denominators in Latin lookup 6 subtable" q.denom
Substitution2: "'numr' Numerators in Latin lookup 5 subtable" q.numer
AlternateSubs2: "'aalt' Access All Alternates in Latin lookup 1 subtable" q.sc q.sub q.sup q.denom q.numer
AlternateSubs2: "'aalt' Access All Alternates lookup 0 subtable" q.sc q.sub q.sup q.denom q.numer
EndChar

StartChar: r
Encoding: 114 114 83
Width: 329
GlyphClass: 2
Flags: MW
HStem: -3 31 338 59<199 278> 346 30<25.5 43>
VStem: 96 66
LayerCount: 2
Back
Fore
SplineSet
21 349 m 0xb0
 21 353 24 363 25 368 c 0
 27 376 29 376 43 376 c 0xb0
 80 377 144 379 151 379 c 0
 163 379 163 379 163 370 c 0
 163 354 162 330 162 312 c 0
 162 296 161 300 166 310 c 0
 189 365 230 397 262 397 c 0
 294 397 322 365 322 351 c 0
 322 339 300 306 281 306 c 0
 259 306 239 338 222 338 c 0xd0
 176 338 168 224 168 137 c 0
 168 81 170 28 177 28 c 2
 243 28 l 2
 255 28 256 22 256 12 c 0
 256 3 256 -5 243 -5 c 0
 224 -5 163 -3 134 -3 c 0
 109 -3 75 -5 45 -5 c 0
 33 -5 32 1 32 12 c 0
 32 22 32 28 44 28 c 2
 88 28 l 2
 95 28 96 97 96 162 c 0
 96 243 94 348 88 348 c 0
 82 348 31 346 28 346 c 0
 23 346 21 346 21 349 c 0xb0
EndSplineSet
Substitution2: "'smcp' Lowercase to Small Capitals in Latin lookup 13 subtable" r.sc
Substitution2: "'subs' Subscript in Latin lookup 10 subtable" r.sub
Substitution2: "'sups' Superscript in Latin lookup 9 subtable" r.sup
Substitution2: "'dnom' Denominators in Latin lookup 6 subtable" r.denom
Substitution2: "'numr' Numerators in Latin lookup 5 subtable" r.numer
AlternateSubs2: "'aalt' Access All Alternates in Latin lookup 1 subtable" r.sc r.sub r.sup r.denom r.numer
AlternateSubs2: "'aalt' Access All Alternates lookup 0 subtable" r.sc r.sub r.sup r.denom r.numer
EndChar

StartChar: s
Encoding: 115 115 84
Width: 337
GlyphClass: 2
Flags: MW
HStem: -15 29<155 193.5 155 198.5> 369 27<153 200.5>
VStem: 35 64<281.5 314.5> 240 65<68.5 98.5>
LayerCount: 2
Back
Fore
SplineSet
32 50 m 0
 32 70 58 92 65 92 c 0
 72 92 76 76 86 63 c 0
 107 37 133 14 177 14 c 0
 210 14 240 33 240 76 c 0
 240 121 200 142 153 162 c 0
 99 186 35 213 35 280 c 0
 35 349 110 396 182 396 c 0
 259 396 289 352 289 324 c 0
 289 312 257 304 244 304 c 0
 219 304 232 369 169 369 c 0
 137 369 99 352 99 302 c 0
 99 261 136 246 179 225 c 0
 236 198 305 168 305 106 c 0
 305 31 236 -15 161 -15 c 0
 100 -15 32 15 32 50 c 0
EndSplineSet
Substitution2: "'hist' Historical Forms in Latin lookup 15 subtable" longs
Substitution2: "'smcp' Lowercase to Small Capitals in Latin lookup 13 subtable" s.sc
Substitution2: "'subs' Subscript in Latin lookup 10 subtable" s.sub
Substitution2: "'sups' Superscript in Latin lookup 9 subtable" s.sup
Substitution2: "'dnom' Denominators in Latin lookup 6 subtable" s.denom
Substitution2: "'numr' Numerators in Latin lookup 5 subtable" s.numer
AlternateSubs2: "'aalt' Access All Alternates in Latin lookup 1 subtable" longs s.sc s.sub s.sup s.denom s.numer
AlternateSubs2: "'aalt' Access All Alternates lookup 0 subtable" longs s.sc s.sub s.sup s.denom s.numer
EndChar

StartChar: t
Encoding: 116 116 85
Width: 289
GlyphClass: 2
Flags: MW
HStem: -12 53<119 209.5> 335 40<147 256 153 244>
VStem: 73 72<84.5 95>
LayerCount: 2
Back
Fore
SplineSet
31 344 m 0
 31 348 33 351 36 354 c 2
 127 481 l 2
 131 487 135 490 140 490 c 0
 148 490 151 485 151 478 c 0
 151 475 145 398 145 382 c 0
 145 375 145 375 153 375 c 2
 256 375 l 2
 261 375 263 374 263 369 c 0
 263 365 261 358 260 353 c 0
 256 339 253 335 244 335 c 2
 149 335 l 2
 145 335 145 318 145 292 c 2
 145 100 l 2
 145 69 147 41 190 41 c 0
 229 41 262 57 272 57 c 0
 276 57 277 48 277 42 c 0
 277 37 277 36 272 32 c 0
 251 17 183 -12 148 -12 c 0
 90 -12 73 28 73 59 c 0
 73 131 75 247 75 276 c 0
 75 315 73 334 64 334 c 2
 39 334 l 2
 33 334 31 338 31 344 c 0
EndSplineSet
Substitution2: "'smcp' Lowercase to Small Capitals in Latin lookup 13 subtable" t.sc
Substitution2: "'subs' Subscript in Latin lookup 10 subtable" t.sub
Substitution2: "'sups' Superscript in Latin lookup 9 subtable" t.sup
Substitution2: "'dnom' Denominators in Latin lookup 6 subtable" t.denom
Substitution2: "'numr' Numerators in Latin lookup 5 subtable" t.numer
AlternateSubs2: "'aalt' Access All Alternates in Latin lookup 1 subtable" t.sc t.sub t.sup t.denom t.numer
AlternateSubs2: "'aalt' Access All Alternates lookup 0 subtable" t.sc t.sub t.sup t.denom t.numer
EndChar

StartChar: u
Encoding: 117 117 86
Width: 510
GlyphClass: 2
Flags: MW
HStem: -19 42 -2 31 352 35
VStem: 77 76<122 279 279 302> 349 74<55 110 54 173 54 184>
LayerCount: 2
Back
Fore
SplineSet
11 357 m 0xb8
 11 361 13 369 15 374 c 0
 18 383 21 382 33 383 c 0
 55 384 142 387 147 387 c 0
 153 387 153 384 153 378 c 2
 153 106 l 2
 153 53 202 42 261 42 c 0
 295 42 349 48 349 55 c 2
 349 173 l 2
 349 195 347 356 341 356 c 0
 333 356 294 354 291 354 c 0
 287 354 283 354 283 357 c 0
 283 360 284 372 285 375 c 0
 286 382 289 384 298 384 c 0
 349 386 409 389 414 389 c 0
 425 389 424 386 424 380 c 2
 424 380 423 141 423 79 c 0
 423 29 426 23 439 23 c 0xb8
 441 23 480 29 483 29 c 0
 489 29 489 22 489 16 c 0
 489 1 489 0 476 -2 c 0x78
 442 -7 361 -19 357 -19 c 0
 351 -19 353 32 350 32 c 0
 348 32 263 -14 189 -14 c 0
 92 -14 77 55 77 122 c 2
 77 279 l 2
 77 325 75 353 68 353 c 0
 65 353 23 352 19 352 c 0
 14 352 11 353 11 357 c 0xb8
EndSplineSet
Substitution2: "'smcp' Lowercase to Small Capitals in Latin lookup 13 subtable" u.sc
Substitution2: "'subs' Subscript in Latin lookup 10 subtable" u.sub
Substitution2: "'sups' Superscript in Latin lookup 9 subtable" u.sup
Substitution2: "'dnom' Denominators in Latin lookup 6 subtable" u.denom
Substitution2: "'numr' Numerators in Latin lookup 5 subtable" u.numer
AlternateSubs2: "'aalt' Access All Alternates in Latin lookup 1 subtable" u.sc u.sub u.sup u.denom u.numer
AlternateSubs2: "'aalt' Access All Alternates lookup 0 subtable" u.sc u.sub u.sup u.denom u.numer
EndChar

StartChar: v
Encoding: 118 118 87
Width: 461
GlyphClass: 2
Flags: MW
HStem: -28 21G<199.5 210> 352 33<29 35 35 44.5 29 53 186 196 307 313 313 318 420.5 427>
LayerCount: 2
Back
Fore
SplineSet
22 368 m 0
 22 377 23 385 35 385 c 0
 54 385 76 383 105 383 c 0
 130 383 177 385 195 385 c 0
 206 385 206 379 206 368 c 0
 206 358 205 352 196 352 c 2
 161 352 l 2
 150 352 146 350 146 347 c 0
 148 337 211 150 240 85 c 0
 244 77 246 72 248 72 c 0
 250 72 252 75 255 83 c 0
 279 140 349 308 349 339 c 0
 349 349 346 352 342 352 c 2
 313 352 l 2
 300 352 300 358 300 368 c 0
 300 378 300 385 314 385 c 0
 322 385 354 383 374 383 c 0
 396 383 413 385 428 385 c 0
 438 385 439 379 439 368 c 0
 439 358 437 352 427 352 c 2
 408 352 l 2
 402 352 402 350 397 342 c 0
 375 302 316 145 271 51 c 0
 255 17 247 19 221 -20 c 0
 217 -25 212 -28 208 -28 c 0
 191 -28 181 21 175 40 c 0
 164 74 106 235 66 339 c 0
 61 351 62 352 53 352 c 2
 35 352 l 2
 23 352 22 358 22 368 c 0
EndSplineSet
Substitution2: "'smcp' Lowercase to Small Capitals in Latin lookup 13 subtable" v.sc
Substitution2: "'subs' Subscript in Latin lookup 10 subtable" v.sub
Substitution2: "'sups' Superscript in Latin lookup 9 subtable" v.sup
Substitution2: "'dnom' Denominators in Latin lookup 6 subtable" v.denom
Substitution2: "'numr' Numerators in Latin lookup 5 subtable" v.numer
AlternateSubs2: "'aalt' Access All Alternates in Latin lookup 1 subtable" v.sc v.sub v.sup v.denom v.numer
AlternateSubs2: "'aalt' Access All Alternates lookup 0 subtable" v.sc v.sub v.sup v.denom v.numer
EndChar

StartChar: w
Encoding: 119 119 88
Width: 697
GlyphClass: 2
Flags: MW
HStem: -28 21G<198.5 207.5 457.5 468> 352 33<29 36 36 45.5 29 52 183 193 287.5 294 294 306 428.5 440 543.5 549 549 554 660.5 663>
LayerCount: 2
Back
Fore
SplineSet
22 368 m 0
 22 377 22 385 36 385 c 0
 55 385 76 383 105 383 c 0
 130 383 174 385 192 385 c 0
 206 385 206 379 206 368 c 0
 206 358 205 352 193 352 c 2
 166 352 l 2
 155 352 152 348 152 345 c 0
 152 338 211 151 239 85 c 0
 242 79 244 76 246 76 c 0
 249 76 251 82 255 92 c 0
 274 140 314 238 335 298 c 0
 340 311 342 318 342 324 c 0
 342 330 341 331 337 339 c 0
 331 351 321 352 306 352 c 2
 294 352 l 2
 281 352 280 358 280 368 c 0
 280 377 280 385 294 385 c 0
 319 385 335 383 369 383 c 0
 395 383 416 385 441 385 c 0
 455 385 455 379 455 368 c 0
 455 358 452 352 440 352 c 2
 419 352 l 2
 409 352 410 348 410 344 c 0
 412 334 465 151 491 85 c 0
 495 74 498 70 500 70 c 0
 502 70 504 75 508 84 c 0
 530 136 591 318 591 340 c 0
 591 346 591 352 583 352 c 2
 549 352 l 2
 537 352 536 358 536 368 c 0
 536 378 537 385 550 385 c 0
 558 385 590 383 610 383 c 0
 632 383 657 385 664 385 c 0
 674 385 676 379 676 368 c 0
 676 358 674 352 663 352 c 2
 657 352 l 2
 650 352 646 350 642 342 c 0
 621 302 571 145 526 51 c 0
 510 17 503 20 480 -19 c 0
 476 -26 470 -28 466 -28 c 0
 449 -28 438 21 433 40 c 0
 426 64 394 176 364 264 c 0
 362 268 361 273 359 273 c 0
 357 273 355 269 353 264 c 0
 328 198 298 112 269 52 c 0
 253 18 244 22 221 -19 c 0
 217 -26 209 -28 206 -28 c 0
 191 -28 178 21 172 40 c 0
 162 74 107 225 68 339 c 0
 64 351 61 352 52 352 c 2
 36 352 l 2
 22 352 22 358 22 368 c 0
EndSplineSet
Substitution2: "'smcp' Lowercase to Small Capitals in Latin lookup 13 subtable" w.sc
Substitution2: "'subs' Subscript in Latin lookup 10 subtable" w.sub
Substitution2: "'sups' Superscript in Latin lookup 9 subtable" w.sup
Substitution2: "'dnom' Denominators in Latin lookup 6 subtable" w.denom
Substitution2: "'numr' Numerators in Latin lookup 5 subtable" w.numer
AlternateSubs2: "'aalt' Access All Alternates in Latin lookup 1 subtable" w.sc w.sub w.sup w.denom w.numer
AlternateSubs2: "'aalt' Access All Alternates lookup 0 subtable" w.sc w.sub w.sup w.denom w.numer
EndChar

StartChar: x
Encoding: 120 120 89
Width: 468
GlyphClass: 2
Flags: MW
HStem: -5 33<31 39.5 151.5 159 159 166 288 292 425.5 430 430 437> 352 33<49 56 56 60.5 49 78 195.5 204.5 313 319 319 322.5 430 439>
LayerCount: 2
Back
Fore
SplineSet
22 12 m 0
 22 26 25 28 37 28 c 0
 55 28 57 30 82 56 c 2
 202 179 l 2
 209 186 210 187 205 194 c 2
 98 338 l 2
 88 351 87 352 78 352 c 2
 56 352 l 2
 42 352 42 358 42 368 c 0
 42 377 42 385 56 385 c 0
 65 385 108 383 137 383 c 0
 162 383 192 385 199 385 c 0
 210 385 211 379 211 368 c 0
 211 358 211 352 200 352 c 0
 185 352 180 352 180 348 c 0
 180 346 183 339 188 333 c 2
 251 241 l 2
 259 228 258 231 269 242 c 0
 278 251 340 324 350 337 c 0
 354 342 356 345 356 347 c 0
 356 350 355 352 335 352 c 2
 319 352 l 2
 306 352 306 358 306 368 c 0
 306 378 306 385 320 385 c 0
 325 385 350 383 377 383 c 0
 406 383 426 385 434 385 c 0
 445 385 446 380 446 368 c 0
 446 358 445 352 433 352 c 0
 413 352 405 339 389 324 c 0
 349 287 305 241 284 220 c 0
 278 214 276 212 276 210 c 0
 276 208 278 205 284 197 c 0
 309 162 373 74 400 40 c 0
 409 28 410 28 418 28 c 2
 430 28 l 2
 444 28 444 22 444 12 c 0
 444 3 444 -5 431 -5 c 0
 420 -5 388 -3 359 -3 c 0
 334 -3 295 -5 289 -5 c 0
 275 -5 275 1 275 12 c 0
 275 22 276 28 288 28 c 2
 301 28 l 2
 311 28 315 30 315 34 c 0
 315 41 304 52 297 64 c 0
 277 96 248 137 233 157 c 0
 229 162 227 165 225 165 c 0
 223 165 221 163 217 158 c 0
 196 133 146 77 123 45 c 0
 115 33 114 28 129 28 c 2
 159 28 l 2
 173 28 173 22 173 12 c 0
 173 3 173 -5 159 -5 c 0
 144 -5 123 -3 94 -3 c 0
 69 -3 47 -5 32 -5 c 0
 22 -5 22 0 22 12 c 0
EndSplineSet
Substitution2: "'smcp' Lowercase to Small Capitals in Latin lookup 13 subtable" x.sc
Substitution2: "'subs' Subscript in Latin lookup 10 subtable" x.sub
Substitution2: "'sups' Superscript in Latin lookup 9 subtable" x.sup
Substitution2: "'dnom' Denominators in Latin lookup 6 subtable" x.denom
Substitution2: "'numr' Numerators in Latin lookup 5 subtable" x.numer
AlternateSubs2: "'aalt' Access All Alternates in Latin lookup 1 subtable" x.sc x.sub x.sup x.denom x.numer
AlternateSubs2: "'aalt' Access All Alternates lookup 0 subtable" x.sc x.sub x.sup x.denom x.numer
EndChar

StartChar: y
Encoding: 121 121 90
Width: 467
GlyphClass: 2
Flags: MW
HStem: -298 86 352 33<29 35 35 43 29 55 192.5 201 300.5 306 306 311 427.5 433>
LayerCount: 2
Back
Fore
SplineSet
22 368 m 0
 22 377 23 385 35 385 c 0
 51 385 83 383 112 383 c 0
 150 383 185 385 200 385 c 0
 214 385 216 379 216 368 c 0
 216 358 213 352 201 352 c 2
 182 352 l 2
 168 352 159 350 159 345 c 0
 159 329 217 173 248 97 c 0
 256 79 261 65 264 65 c 0
 266 65 271 78 278 97 c 0
 302 167 348 300 358 338 c 0
 359 342 359 344 359 346 c 0
 359 351 355 352 341 352 c 2
 306 352 l 2
 293 352 293 358 293 368 c 0
 293 378 294 385 307 385 c 0
 315 385 354 383 374 383 c 0
 396 383 423 385 432 385 c 0
 443 385 445 380 445 368 c 0
 445 358 445 352 433 352 c 2
 418 352 l 2
 412 352 409 352 406 344 c 0
 390 300 281 22 273 2 c 0
 270 -5 252 -60 233 -115 c 0
 215 -166 211 -183 168 -236 c 0
 153 -255 151 -260 126 -272 c 0
 101 -284 71 -298 63 -298 c 0
 47 -298 42 -285 42 -275 c 0
 42 -264 52 -245 62 -231 c 0
 69 -221 82 -215 91 -212 c 0
 118 -202 168 -190 179 -163 c 0
 196 -121 223 -53 223 -43 c 0
 223 -28 108 239 67 339 c 0
 62 351 62 352 55 352 c 2
 35 352 l 2
 22 352 22 358 22 368 c 0
EndSplineSet
Substitution2: "'smcp' Lowercase to Small Capitals in Latin lookup 13 subtable" y.sc
Substitution2: "'subs' Subscript in Latin lookup 10 subtable" y.sub
Substitution2: "'sups' Superscript in Latin lookup 9 subtable" y.sup
Substitution2: "'dnom' Denominators in Latin lookup 6 subtable" y.denom
Substitution2: "'numr' Numerators in Latin lookup 5 subtable" y.numer
AlternateSubs2: "'aalt' Access All Alternates in Latin lookup 1 subtable" y.sc y.sub y.sup y.denom y.numer
AlternateSubs2: "'aalt' Access All Alternates lookup 0 subtable" y.sc y.sub y.sup y.denom y.numer
EndChar

StartChar: z
Encoding: 122 122 91
Width: 413
GlyphClass: 2
Flags: MW
HStem: -3 33<143 150 143 352> 358 34<102 102>
VStem: 344 32<102 112>
LayerCount: 2
Back
Fore
SplineSet
32 10 m 0
 32 16 37 24 43 32 c 2
 256 346 l 2
 265 359 264 363 253 363 c 2
 102 358 l 2
 80 357 81 358 77 341 c 2
 67 298 l 2
 65 288 64 284 51 285 c 0
 43 286 34 286 34 291 c 0
 34 295 39 344 42 376 c 0
 43 389 43 392 59 392 c 2
 340 392 l 2
 355 392 367 391 367 382 c 0
 367 376 362 370 357 363 c 2
 146 53 l 2
 140 44 136 30 150 30 c 2
 324 34 l 2
 338 34 337 39 338 48 c 2
 344 102 l 2
 346 116 345 117 364 117 c 0
 375 117 376 114 376 110 c 0
 376 103 373 46 371 15 c 0
 370 0 368 -3 352 -3 c 2
 57 -3 l 2
 44 -3 32 -3 32 10 c 0
EndSplineSet
Substitution2: "'smcp' Lowercase to Small Capitals in Latin lookup 13 subtable" z.sc
Substitution2: "'subs' Subscript in Latin lookup 10 subtable" z.sub
Substitution2: "'sups' Superscript in Latin lookup 9 subtable" z.sup
Substitution2: "'dnom' Denominators in Latin lookup 6 subtable" z.denom
Substitution2: "'numr' Numerators in Latin lookup 5 subtable" z.numer
AlternateSubs2: "'aalt' Access All Alternates in Latin lookup 1 subtable" z.sc z.sub z.sup z.denom z.numer
AlternateSubs2: "'aalt' Access All Alternates lookup 0 subtable" z.sc z.sub z.sup z.denom z.numer
EndChar

StartChar: braceleft
Encoding: 123 123 92
Width: 307
GlyphClass: 2
Flags: MW
HStem: -144 32<227.5 258 227.5 260.5> 660 32<227.5 258>
VStem: 114 58<52 126 416 422 422 496 496 562.5>
LayerCount: 2
Back
Fore
SplineSet
37 274 m 0
 37 310 114 251 114 416 c 2
 114 496 l 2
 114 629 116 692 255 692 c 0
 266 692 270 689 270 676 c 0
 270 661 263 660 253 660 c 0
 202 660 172 647 172 571 c 2
 172 422 l 2
 172 335 169 297 112 278 c 0
 101 274 102 273 112 270 c 0
 169 251 172 213 172 126 c 2
 172 -23 l 2
 172 -99 202 -112 253 -112 c 0
 263 -112 270 -113 270 -128 c 0
 270 -141 266 -144 255 -144 c 0
 116 -144 114 -81 114 52 c 2
 114 132 l 2
 114 297 37 238 37 274 c 0
EndSplineSet
Substitution2: "'case' Case-Sensitive Forms in Latin lookup 16 subtable" braceleft.u
AlternateSubs2: "'aalt' Access All Alternates in Latin lookup 1 subtable" braceleft.u
AlternateSubs2: "'aalt' Access All Alternates lookup 0 subtable" braceleft.u
EndChar

StartChar: bar
Encoding: 124 124 93
Width: 247
GlyphClass: 2
Flags: MW
VStem: 97 53<-187 745>
LayerCount: 2
Back
Fore
SplineSet
97 -187 m 2
 97 746 l 2
 97 763 106 765 118 765 c 2
 125 765 l 2
 144 765 150 764 150 745 c 2
 150 -187 l 2
 150 -201 150 -212 135 -212 c 2
 114 -212 l 2
 98 -212 97 -208 97 -187 c 2
EndSplineSet
EndChar

StartChar: braceright
Encoding: 125 125 94
Width: 307
GlyphClass: 2
Flags: MW
HStem: -144 32<49 79.5 49 121.5> 660 32<49 79.5>
VStem: 135 58<-14.5 52 52 126 126 132 422 496>
LayerCount: 2
Back
Fore
SplineSet
37 -128 m 0
 37 -113 44 -112 54 -112 c 0
 105 -112 135 -99 135 -23 c 2
 135 126 l 2
 135 213 138 251 195 270 c 0
 208 275 207 273 195 278 c 0
 138 297 135 335 135 422 c 2
 135 571 l 2
 135 647 105 660 54 660 c 0
 44 660 37 661 37 676 c 0
 37 689 41 692 52 692 c 0
 191 692 193 629 193 496 c 2
 193 416 l 2
 193 251 270 310 270 274 c 0
 270 238 193 297 193 132 c 2
 193 52 l 2
 193 -81 191 -144 52 -144 c 0
 41 -144 37 -141 37 -128 c 0
EndSplineSet
Substitution2: "'case' Case-Sensitive Forms in Latin lookup 16 subtable" braceright.u
AlternateSubs2: "'aalt' Access All Alternates in Latin lookup 1 subtable" braceright.u
AlternateSubs2: "'aalt' Access All Alternates lookup 0 subtable" braceright.u
EndChar

StartChar: asciitilde
Encoding: 126 126 95
Width: 793
GlyphClass: 2
Flags: MW
HStem: 107 48<540 620> 245 54<166.5 243>
LayerCount: 2
Back
Fore
SplineSet
42 117 m 0
 42 120 44 129 46 135 c 0
 59 182 105 299 228 299 c 0
 373 299 483 155 597 155 c 0
 669 155 705 258 714 288 c 0
 717 300 722 299 733 297 c 0
 740 295 746 295 746 287 c 0
 746 286 746 283 745 280 c 0
 729 216 678 107 562 107 c 0
 412 107 302 245 184 245 c 0
 111 245 84 156 75 121 c 0
 73 113 72 105 65 105 c 0
 62 105 58 106 54 107 c 0
 47 109 42 109 42 117 c 0
EndSplineSet
EndChar

StartChar: exclamdown
Encoding: 161 161 97
Width: 261
GlyphClass: 2
Flags: MW
HStem: -11 21G<111.5 136> 565 111<127.5 136.5 115.5 146.5>
VStem: 77 107<616 631> 89 78<5.5 19> 115 33<483 488>
LayerCount: 2
Back
Fore
SplineSet
77 615 m 0xe0
 77 647 109 676 122 676 c 0
 151 676 184 644 184 627 c 0
 184 605 156 565 137 565 c 0
 118 565 77 587 77 615 c 0xe0
89 13 m 0xd0
 89 25 103 219 115 483 c 0
 115 493 125 496 132 496 c 0
 139 496 148 493 148 483 c 0xc8
 154 260 167 71 167 17 c 0
 167 -6 149 -11 123 -11 c 0
 100 -11 89 -7 89 13 c 0xd0
EndSplineSet
Position2: "'cpsp' Capital Spacing in Latin lookup 0 subtable" dx=4 dy=0 dh=8 dv=0
EndChar

StartChar: cent
Encoding: 162 162 98
Width: 407
GlyphClass: 2
Flags: MW
HStem: -13 50<244 268.5>
VStem: 27 71<171 237.5 171 246> 309 63
LayerCount: 2
Back
Fore
SplineSet
27 177 m 0
 27 315 121 389 212 400 c 0
 220 401 219 403 220 411 c 2
 224 466 l 2
 225 484 227 496 229 496 c 2
 237 496 l 2
 244 496 254 495 254 491 c 0
 254 489 249 437 247 411 c 0
 247 402 245 402 257 401 c 0
 315 392 372 351 372 303 c 0
 372 294 370 287 361 281 c 0
 352 274 339 267 329 267 c 0
 320 267 312 270 309 280 c 0
 295 320 291 358 251 367 c 0
 245 368 244 368 243 360 c 2
 217 48 l 2
 217 42 216 41 221 40 c 0
 230 38 239 37 249 37 c 0
 318 37 365 67 370 67 c 0
 375 67 380 63 380 56 c 0
 380 50 318 -13 219 -13 c 0
 214 -13 211 -12 210 -18 c 0
 204 -82 202 -133 198 -133 c 2
 190 -133 l 2
 184 -133 175 -132 175 -128 c 0
 175 -124 179 -81 184 -18 c 0
 184 -10 186 -11 174 -9 c 0
 82 8 27 78 27 177 c 0
98 202 m 0
 98 140 126 78 183 51 c 0
 190 48 190 50 190 52 c 2
 215 360 l 2
 215 366 215 367 212 367 c 2
 208 367 l 1
 139 352 98 273 98 202 c 0
EndSplineSet
Substitution2: "'subs' Subscript in Latin lookup 10 subtable" cent.sub
Substitution2: "'sups' Superscript in Latin lookup 9 subtable" cent.sup
Substitution2: "'dnom' Denominators in Latin lookup 6 subtable" cent.denom
Substitution2: "'numr' Numerators in Latin lookup 5 subtable" cent.numer
AlternateSubs2: "'aalt' Access All Alternates in Latin lookup 1 subtable" cent.sub cent.sup cent.denom cent.numer
AlternateSubs2: "'aalt' Access All Alternates lookup 0 subtable" cent.sub cent.sup cent.denom cent.numer
EndChar

StartChar: sterling
Encoding: 163 163 99
Width: 510
GlyphClass: 2
Flags: MW
HStem: -11 50<377.5 401> 3 53 245 30<55 56 56 105 105 110.5 55 111 200 321> 639 29<237 299.5>
VStem: 37 87 111 74<245 290 444.5 460> 118 67<283.5 285.5> 337 62<549 613.5> 448 40<70.5 81.5>
LayerCount: 2
Back
Fore
SplineSet
37 -56 m 0x7980
 37 -30 77 -15 106 6 c 0
 119 15 119 17 119 23 c 0
 121 59 123 90 123 128 c 0
 123 162 122 196 120 232 c 0
 119 244 117 245 111 245 c 2x7580
 56 245 l 2
 48 245 44 248 44 261 c 0
 44 272 48 275 55 275 c 2
 105 275 l 2
 116 275 118 275 118 281 c 0x7380
 118 290 111 389 111 500 c 0
 111 603 193 668 281 668 c 0
 341 668 399 640 399 587 c 0
 399 563 381 543 356 543 c 0
 350 543 337 544 337 554 c 0
 337 588 325 639 274 639 c 0
 190 639 185 555 185 460 c 2
 185 290 l 2x7580
 185 277 185 275 200 275 c 2
 321 275 l 2
 329 275 333 272 333 260 c 0
 333 249 330 245 321 245 c 2
 194 245 l 2
 188 245 186 244 185 232 c 0
 181 144 160 69 150 41 c 0
 148 37 151 38 153 39 c 0xb380
 168 46 196 56 230 56 c 0x7380
 283 56 356 39 399 39 c 0
 428 39 448 46 448 73 c 0
 448 90 404 112 404 124 c 0
 404 133 422 159 440 159 c 0
 459 159 488 134 488 101 c 0
 488 40 429 -11 373 -11 c 0xb380
 318 -11 159 3 140 3 c 0
 135 3 130 -2 124 -19 c 0
 115 -44 106 -83 68 -83 c 0
 54 -83 37 -75 37 -56 c 0x7980
EndSplineSet
EndChar

StartChar: currency
Encoding: 164 164 100
Width: 494
GlyphClass: 2
Flags: MW
HStem: -19 20G 23 56<224.5 264> 329 53<224.5 265 224.5 277.5> 405 20G<42 55.5 431 447>
VStem: 65 57<184 223.5> 367 58<182.5 222 182.5 236.5>
LayerCount: 2
Back
Fore
SplineSet
22 8 m 0
 22 21 32 29 40 37 c 2
 99 97 l 1
 77 128 65 164 65 204 c 0
 65 243 77 280 98 309 c 1
 40 369 l 2
 39 370 22 382 22 398 c 0
 22 414 35 425 49 425 c 0
 62 425 71 416 79 408 c 2
 139 348 l 1
 169 370 205 382 244 382 c 0
 286 382 323 368 350 348 c 1
 410 408 l 2
 412 410 423 425 439 425 c 0
 455 425 467 412 467 398 c 0
 467 385 457 377 449 369 c 2
 389 308 l 1
 411 277 425 242 425 202 c 0
 425 163 410 126 389 98 c 1
 449 37 l 2
 450 36 467 24 467 8 c 0
 467 -8 453 -20 439 -20 c 0
 426 -20 418 -10 410 -2 c 2
 350 58 l 1
 320 36 284 23 244 23 c 0
 205 23 167 36 139 57 c 1
 79 -2 l 2
 77 -4 65 -19 49 -19 c 0
 33 -19 22 -6 22 8 c 0
122 202 m 0
 122 133 178 79 244 79 c 0
 310 79 367 135 367 203 c 0
 367 270 311 329 244 329 c 0
 176 329 122 270 122 202 c 0
EndSplineSet
EndChar

StartChar: yen
Encoding: 165 165 101
Width: 597
GlyphClass: 2
Flags: MW
HStem: -3 33 220 30<84 260 87 260 351 528> 342 30<84 209 87 209 87 226 384 528> 636 36<19 25 25 31.5 18.5 54 240.5 245 413 421 421 423 563 571>
VStem: 260 91<169 220 250 271 271 276.5>
LayerCount: 2
Back
Fore
SplineSet
7 654 m 0
 7 671 12 672 25 672 c 0
 38 672 73 669 131 669 c 0
 188 669 232 672 249 672 c 0
 260 672 263 668 263 651 c 0
 263 637 261 636 245 636 c 2
 186 636 l 2
 173 636 174 635 178 625 c 0
 199 574 291 408 320 352 c 0
 328 337 328 334 336 349 c 0
 363 401 475 611 475 633 c 0
 475 635 474 636 473 636 c 2
 421 636 l 2
 405 636 400 637 400 651 c 0
 400 668 403 672 417 672 c 0
 429 672 453 669 495 669 c 0
 538 669 555 672 571 672 c 0
 584 672 590 670 590 654 c 0
 590 637 583 636 571 636 c 2
 537 636 l 2
 533 636 439 467 384 372 c 1
 528 372 l 2
 534 372 534 361 534 357 c 0
 534 353 534 342 528 342 c 2
 366 342 l 1
 354 322 l 2
 351 318 351 316 351 313 c 2
 351 250 l 1
 528 250 l 2
 534 250 534 239 534 235 c 0
 534 231 534 220 528 220 c 2
 351 220 l 1
 352 126 355 30 360 30 c 2
 429 30 l 2
 441 30 443 26 443 14 c 0
 443 -1 441 -6 429 -6 c 0
 406 -6 368 -3 309 -3 c 0
 267 -3 209 -6 195 -6 c 0
 181 -6 180 -2 180 15 c 0
 180 29 183 30 199 30 c 2
 250 30 l 2
 258 30 260 118 260 220 c 1
 87 220 l 2
 81 220 81 232 81 236 c 0
 81 240 81 250 87 250 c 2
 260 250 l 1
 260 271 l 2
 260 282 257 286 253 293 c 2
 226 342 l 1
 87 342 l 2
 81 342 81 354 81 358 c 0
 81 362 81 372 87 372 c 2
 209 372 l 1
 151 476 61 636 54 636 c 2
 25 636 l 2
 13 636 7 637 7 654 c 0
EndSplineSet
EndChar

StartChar: brokenbar
Encoding: 166 166 102
Width: 247
GlyphClass: 2
Flags: MW
VStem: 97 53<-187 189 379 745>
LayerCount: 2
Back
Fore
SplineSet
97 -187 m 2
 97 189 l 2
 97 202 103 206 111 206 c 2
 136 206 l 2
 144 206 150 202 150 189 c 2
 150 -187 l 2
 150 -201 150 -212 135 -212 c 2
 114 -212 l 2
 98 -212 97 -208 97 -187 c 2
97 379 m 2
 97 746 l 2
 97 763 106 765 118 765 c 2
 125 765 l 2
 144 765 150 764 150 745 c 2
 150 379 l 2
 150 361 145 357 133 357 c 2
 115 357 l 2
 101 357 97 360 97 379 c 2
EndSplineSet
EndChar

StartChar: section
Encoding: 167 167 103
Width: 381
GlyphClass: 2
Flags: MW
HStem: -229 48<194 214.5> 634 46<148.5 174.5>
VStem: 37 45<321 341.5> 60 41<551.5 591> 277 40<-139.5 -94.5> 298 46<104 144.5>
LayerCount: 2
Back
Fore
SplineSet
37 310 m 0xe8
 37 373 88 416 107 430 c 0
 112 433 109 439 105 444 c 0
 92 462 60 512 60 556 c 0
 60 626 109 680 188 680 c 0
 231 680 305 670 305 632 c 0
 305 608 285 601 265 601 c 0
 217 601 200 634 149 634 c 0
 128 634 101 627 101 594 c 0
 101 509 344 316 344 132 c 0xd4
 344 76 299 53 277 36 c 0
 270 30 269 27 269 26 c 0
 269 25 271 20 275 13 c 0
 290 -14 317 -68 317 -102 c 0
 317 -177 261 -229 168 -229 c 0
 125 -229 62 -225 62 -182 c 0
 62 -167 77 -156 93 -156 c 0
 110 -156 123 -164 137 -169 c 0
 151 -174 180 -181 208 -181 c 0
 247 -181 277 -166 277 -132 c 0
 277 -57 37 151 37 310 c 0xe8
82 357 m 0xe4
 82 285 212 102 247 54 c 0
 253 46 254 46 255 46 c 0
 256 46 259 47 267 54 c 0
 281 67 298 87 298 102 c 0
 298 187 162 363 129 409 c 0
 123 417 123 418 115 411 c 0
 102 401 82 379 82 357 c 0xe4
EndSplineSet
EndChar

StartChar: dieresis
Encoding: 168 168 104
Width: 400
GlyphClass: 2
Flags: MW
HStem: 489 102<116.5 124.5 276.5 284.5>
VStem: 66 108<530 552> 226 108<530 552>
LayerCount: 2
Back
Fore
SplineSet
66 533 m 0
 66 571 104 591 129 591 c 0
 151 591 174 579 174 548 c 0
 174 512 139 489 110 489 c 0
 88 489 66 503 66 533 c 0
226 533 m 0
 226 571 264 591 289 591 c 0
 311 591 334 579 334 548 c 0
 334 512 299 489 270 489 c 0
 248 489 226 503 226 533 c 0
EndSplineSet
EndChar

StartChar: copyright
Encoding: 169 169 105
Width: 843
GlyphClass: 2
Flags: MW
HStem: -186 38<327 513 327 524.5> -30 36<390.5 477.5> 386 20G<578 588> 398 26<374.5 461> 526 38<327 513>
VStem: 51 40<96 282 96 293.5> 193 71<145.5 256.5 145.5 269> 565 33<394 397 397 401.5> 749 40<96 282>
LayerCount: 2
Back
Fore
SplineSet
51 189 m 0xcf80
 51 398 211 564 420 564 c 0
 629 564 789 400 789 189 c 0
 789 -20 629 -186 420 -186 c 0
 211 -186 51 -20 51 189 c 0xcf80
91 189 m 0
 91 3 234 -148 420 -148 c 0
 606 -148 749 3 749 189 c 0
 749 375 606 526 420 526 c 0
 234 526 91 375 91 189 c 0
193 201 m 0
 193 337 295 424 425 424 c 0xdf80
 502 424 546 386 559 377 c 0
 563 374 565 374 565 378 c 2
 565 397 l 2
 565 406 573 406 583 406 c 0xef80
 593 406 598 406 598 397 c 0
 598 391 596 303 596 270 c 0
 596 261 592 258 583 258 c 0
 572 258 562 259 562 266 c 0
 562 269 565 318 565 324 c 0
 565 332 502 398 420 398 c 0xdf80
 329 398 264 314 264 199 c 0
 264 92 342 6 439 6 c 0
 536 6 572 56 580 56 c 0
 585 56 595 37 595 34 c 0
 595 24 534 -30 421 -30 c 0
 302 -30 193 45 193 201 c 0
EndSplineSet
EndChar

StartChar: ordfeminine
Encoding: 170 170 106
Width: 352
GlyphClass: 2
Flags: MW
HStem: 332 71<251 334> 335 45<135 136> 509 22<222 223.5 222 224> 646 29<155 191.5>
VStem: 32 69<419 445> 45 67<590.5 593 590.5 601.5> 225 60<401 414 401 503>
LayerCount: 2
Back
Fore
SplineSet
32 407 m 0x7a
 32 483 140 517 222 531 c 0
 225 531 225 533 225 535 c 2
 225 540 l 2
 225 596 224 646 159 646 c 0
 151 646 143 645 136 642 c 0
 115 634 113 624 112 593 c 0
 112 588 112 577 105 573 c 0
 91 564 62 552 56 552 c 0
 50 552 45 557 45 567 c 0
 45 636 121 675 177 675 c 0
 264 675 290 632 290 568 c 0
 290 527 285 423 285 405 c 0
 285 397 289 385 300 384 c 0
 304 386 326 403 331 403 c 0
 337 403 344 393 344 387 c 0
 344 380 306 355 289 342 c 0
 283 338 274 332 265 332 c 0xb6
 237 332 231 371 229 381 c 1
 225 378 221 374 216 371 c 0
 199 360 154 335 118 335 c 0
 65 335 32 363 32 407 c 0x7a
101 431 m 0x7a
 101 407 119 380 151 380 c 0
 182 380 220 396 225 400 c 1
 225 503 l 2
 225 507 224 509 224 509 c 2
 220 509 197 504 175 497 c 0
 137 485 101 466 101 431 c 0x7a
EndSplineSet
EndChar

StartChar: guillemotleft
Encoding: 171 171 107
Width: 408
GlyphClass: 2
Flags: MW
HStem: 58 270<183 186 183 186 333 336 183 336>
VStem: 47 92<189 197> 197 92<189 197>
LayerCount: 2
Back
Fore
SplineSet
47 193 m 0
 47 201 75 223 103 250 c 0
 141 285 181 328 185 328 c 0
 187 328 202 315 202 313 c 0
 202 305 139 203 139 193 c 0
 139 183 202 83 202 73 c 0
 202 69 187 58 185 58 c 0
 180 58 141 101 103 136 c 0
 75 162 47 185 47 193 c 0
197 193 m 0
 197 201 225 223 253 250 c 0
 291 285 331 328 335 328 c 0
 337 328 352 315 352 313 c 0
 352 305 289 203 289 193 c 0
 289 183 352 83 352 73 c 0
 352 69 337 58 335 58 c 0
 330 58 291 101 253 136 c 0
 225 162 197 185 197 193 c 0
EndSplineSet
Substitution2: "'case' Case-Sensitive Forms in Latin lookup 16 subtable" guillemotleft.u
AlternateSubs2: "'aalt' Access All Alternates in Latin lookup 1 subtable" guillemotleft.u
AlternateSubs2: "'aalt' Access All Alternates lookup 0 subtable" guillemotleft.u
EndChar

StartChar: logicalnot
Encoding: 172 172 108
Width: 527
GlyphClass: 2
Flags: MW
HStem: 185 50<39.5 477 50 426>
VStem: 449 51<60 171 171 176.5>
LayerCount: 2
Back
Fore
SplineSet
28 215 m 0
 28 234 41 235 50 235 c 2
 477 235 l 2
 495 235 500 231 500 213 c 2
 500 55 l 2
 500 44 495 37 481 37 c 0
 462 37 449 38 449 60 c 2
 449 171 l 2
 449 182 442 185 426 185 c 2
 50 185 l 2
 29 185 28 196 28 215 c 0
EndSplineSet
EndChar

StartChar: uni00AD
Encoding: 173 173 109
Width: 258
GlyphClass: 2
Flags: MW
HStem: 195 49 203 48
VStem: 21 210<199 243.5>
LayerCount: 2
Back
Fore
SplineSet
21 201 m 0xa0
 21 208 31 243 40 244 c 0xa0
 50 245 221 251 227 251 c 0
 231 251 231 245 231 242 c 0
 231 230 228 204 221 203 c 0x60
 207 202 42 195 28 195 c 0
 24 195 21 197 21 201 c 0xa0
EndSplineSet
Substitution2: "'case' Case-Sensitive Forms in Latin lookup 16 subtable" uni00AD.u
AlternateSubs2: "'aalt' Access All Alternates in Latin lookup 1 subtable" uni00AD.u
AlternateSubs2: "'aalt' Access All Alternates lookup 0 subtable" uni00AD.u
EndChar

StartChar: registered
Encoding: 174 174 110
Width: 536
GlyphClass: 2
Flags: MW
HStem: 220 29<207 329 207 338> 325 24<159 159.5 250 255 255 258.5 404.5 415> 469 21<225 227 225 227> 620 22<266 267.5> 691 29<207 329>
VStem: 22 31<409 531 409 540> 179 46<455.5 464 464 469 490 493.5> 326 49<537.5 574> 340 53<349 349.5 349 363 349 388.5> 483 31<409 531>
LayerCount: 2
Back
Fore
SplineSet
22 470 m 0xfe40
 22 610 128 720 268 720 c 0
 408 720 514 611 514 470 c 0
 514 330 408 220 268 220 c 0
 128 220 22 330 22 470 c 0xfe40
53 470 m 0
 53 348 146 249 268 249 c 0
 390 249 483 348 483 470 c 0
 483 592 390 691 268 691 c 0
 146 691 53 592 53 470 c 0
139 628 m 0
 139 640 145 640 151 640 c 0
 159 640 191 639 204 639 c 0
 217 639 261 642 271 642 c 0
 317 642 375 628 375 559 c 0xff40
 375 516 337 493 316 482 c 1
 347 471 388 446 391 374 c 0
 392 357 393 350 393 349 c 2
 415 349 l 2
 423 349 423 344 423 334 c 0
 423 326 418 325 412 325 c 0
 397 325 350 326 350 326 c 2
 345 326 340 329 340 336 c 2
 340 363 l 2xfec0
 340 414 336 460 279 467 c 0
 264 469 245 469 227 469 c 2
 225 469 l 1
 225 442 227 366 229 349 c 1
 255 349 l 2
 262 349 263 346 263 339 c 0
 263 332 263 325 255 325 c 0
 245 325 216 326 203 326 c 0
 190 326 162 325 157 325 c 0
 149 325 147 329 147 339 c 0
 147 348 151 349 159 349 c 2
 177 349 l 1
 178 359 179 380 179 404 c 2
 179 464 l 2
 179 523 178 600 175 616 c 1
 151 615 l 2
 144 615 139 616 139 628 c 0
225 490 m 1
 227 490 l 2
 249 490 274 489 289 489 c 1
 309 499 326 518 326 553 c 0
 326 595 288 620 247 620 c 0
 240 620 233 619 226 619 c 1
 225 614 225 607 225 599 c 2
 225 490 l 1
EndSplineSet
EndChar

StartChar: macron
Encoding: 175 175 111
Width: 400
GlyphClass: 2
Flags: MW
HStem: 506 46<99.5 296 103 296>
VStem: 95 210<518 541 541 542 512.5 545.5>
LayerCount: 2
Back
Fore
SplineSet
95 518 m 2
 95 541 l 2
 95 550 95 552 103 552 c 2
 296 552 l 2
 303 552 305 550 305 542 c 2
 305 517 l 2
 305 508 305 506 296 506 c 2
 103 506 l 2
 96 506 95 508 95 518 c 2
EndSplineSet
EndChar

StartChar: degree
Encoding: 176 176 112
Width: 256
GlyphClass: 2
Flags: MW
HStem: 444 37<113 143 113 153> 589 37<113 143>
VStem: 37 37<520 550 520 560> 182 37<520 550>
LayerCount: 2
Back
Fore
SplineSet
37 535 m 0
 37 585 78 626 128 626 c 0
 178 626 219 585 219 535 c 0
 219 485 178 444 128 444 c 0
 78 444 37 485 37 535 c 0
74 535 m 0
 74 505 98 481 128 481 c 0
 158 481 182 505 182 535 c 0
 182 565 158 589 128 589 c 0
 98 589 74 565 74 535 c 0
EndSplineSet
EndChar

StartChar: plusminus
Encoding: 177 177 113
Width: 527
GlyphClass: 2
Flags: MW
HStem: 70 50<42 478 49 475> 298 51<38.5 230 49 225 297 475>
VStem: 238 50<152 284 356 357 357 493>
LayerCount: 2
Back
Fore
SplineSet
28 90 m 0
 28 108 29 120 49 120 c 2
 478 120 l 2
 495 120 499 113 499 97 c 0
 499 82 497 70 475 70 c 2
 48 70 l 2
 36 70 28 73 28 90 c 0
28 324 m 0
 28 336 32 349 49 349 c 2
 230 349 l 2
 238 349 238 351 238 356 c 2
 238 495 l 2
 238 508 247 513 257 513 c 0
 281 513 288 509 288 493 c 2
 288 357 l 2
 288 352 289 349 297 349 c 2
 480 349 l 2
 490 349 499 346 499 331 c 0
 499 311 498 298 475 298 c 2
 297 298 l 2
 289 298 288 294 288 284 c 2
 288 152 l 2
 288 137 279 135 269 135 c 0
 249 135 238 136 238 152 c 2
 238 284 l 2
 238 296 239 298 225 298 c 2
 48 298 l 2
 29 298 28 309 28 324 c 0
EndSplineSet
EndChar

StartChar: uni00B2
Encoding: 178 178 114
Width: 360
GlyphClass: 2
Flags: MW
HStem: 347 56<58.5 288 111 288 111 293> 716 48<133.5 183.5>
VStem: 231 61<594 656> 294 27<452 455.5>
LayerCount: 2
Back
Fore
SplineSet
37 671 m 0
 37 685 94 764 173 764 c 0
 258 764 292 692 292 644 c 0
 292 544 172 453 131 423 c 0
 125 419 115 408 111 403 c 1
 288 403 l 1
 290 414 293 443 294 452 c 0
 294 459 299 461 307 460 c 0
 312 460 321 459 321 452 c 0
 321 447 311 382 308 355 c 0
 307 349 300 347 293 347 c 2
 63 347 l 2
 54 347 47 351 47 359 c 0
 47 369 87 428 92 432 c 0
 129 464 231 542 231 636 c 0
 231 676 207 716 160 716 c 0
 96 716 65 655 53 655 c 0
 46 655 37 663 37 671 c 0
EndSplineSet
EndChar

StartChar: uni00B3
Encoding: 179 179 115
Width: 360
GlyphClass: 2
Flags: MW
HStem: 339 30<172.5 200 172.5 200> 528 40 725 39<145 183.5>
VStem: 226 63<643 683.5> 257 61<431 479>
LayerCount: 2
Back
Fore
SplineSet
62 368 m 0xe8
 62 389 78 400 97 400 c 0
 109 400 117 397 127 393 c 0
 148 385 165 369 180 369 c 0
 220 369 257 406 257 456 c 0xe8
 257 502 240 532 186 532 c 0
 165 532 121 528 113 528 c 0
 98 528 97 547 97 552 c 0
 97 565 112 567 116 568 c 0
 196 585 226 603 226 662 c 0
 226 705 201 725 166 725 c 0
 114 725 95 692 82 692 c 0
 74 692 66 700 66 708 c 0
 66 721 115 764 175 764 c 0
 240 764 289 725 289 672 c 0xf0
 289 614 239 588 195 570 c 1
 264 565 318 531 318 470 c 0
 318 390 235 339 165 339 c 0
 132 339 62 344 62 368 c 0xe8
EndSplineSet
EndChar

StartChar: acute
Encoding: 180 180 116
Width: 400
GlyphClass: 2
Flags: MW
HStem: 446 169<187.5 278 189 278>
VStem: 233 72<588 588>
LayerCount: 2
Back
Fore
SplineSet
182 451 m 0
 182 453 183 456 184 458 c 2
 233 588 l 2
 239 605 250 615 266 615 c 0
 290 615 305 600 305 582 c 0
 305 574 302 567 297 560 c 2
 215 453 l 2
 212 449 210 446 205 446 c 2
 189 446 l 2
 186 446 182 447 182 451 c 0
EndSplineSet
EndChar

StartChar: uni00B5
Encoding: 181 181 117
Width: 509
GlyphClass: 2
Flags: MW
HStem: -18 59<153.5 171> 359 20G<143 151>
VStem: 22 46<-94.5 -89.5> 317 66<63 67.5> 364 69
LayerCount: 2
Back
Fore
SplineSet
22 -136 m 0xf0
 22 -43 57 41 82 156 c 0
 129 364 136 379 150 379 c 0
 152 379 192 379 192 359 c 0
 192 338 155 240 141 128 c 0
 140 116 138 100 138 85 c 0
 138 60 143 41 164 41 c 0
 230 41 322 224 364 330 c 0
 380 371 382 380 390 380 c 0
 404 380 433 375 433 362 c 0xe8
 433 349 383 114 383 70 c 0
 383 56 395 47 405 47 c 0
 439 47 447 114 466 114 c 0
 477 114 477 105 477 98 c 0
 477 59 423 -20 354 -20 c 0
 323 -20 317 11 317 47 c 0
 317 88 333 174 333 184 c 0
 333 187 333 187 331 184 c 0
 322 169 300 134 277 100 c 0
 247 57 206 -18 136 -18 c 0
 108 -18 96 14 90 34 c 0
 87 45 86 46 83 34 c 0
 76 3 68 -56 68 -79 c 0
 68 -110 92 -145 92 -156 c 0
 92 -161 85 -186 59 -186 c 0
 41 -186 22 -170 22 -136 c 0xf0
EndSplineSet
EndChar

StartChar: paragraph
Encoding: 182 182 118
Width: 492
GlyphClass: 2
Flags: MW
HStem: -234 40<283 348 288 348 348 352 288 376> 617 40<391.5 394 394 444>
VStem: 37 251<318 501> 277 112<-223 -205 -205 -202> 356 33<-189 610> 356 99<625 629 629 643 625 644 625 650>
LayerCount: 2
Back
Fore
SplineSet
37 417 m 0xe0
 37 585 185 647 273 647 c 0
 286 647 288 643 288 633 c 2
 288 162 l 2
 288 156 286 151 280 151 c 0
 209 151 37 219 37 417 c 0xe0
277 -205 m 2xd0
 277 -199 278 -194 288 -194 c 2
 348 -194 l 2
 356 -194 356 -194 356 -189 c 2xe8
 356 644 l 2
 356 656 359 657 368 657 c 2
 444 657 l 2
 454 657 455 653 455 643 c 2
 455 629 l 2xc4
 455 621 455 617 444 617 c 2
 394 617 l 2
 389 617 389 617 389 610 c 2xc8
 389 -224 l 2xd0
 389 -234 389 -234 376 -234 c 2
 288 -234 l 2xe0
 278 -234 277 -229 277 -223 c 2
 277 -205 l 2xd0
EndSplineSet
EndChar

StartChar: periodcentered
Encoding: 183 183 119
Width: 147
GlyphClass: 2
Flags: MW
HStem: 289 102<72.5 80.5>
VStem: 22 108<330 352>
LayerCount: 2
Back
Fore
SplineSet
22 333 m 0
 22 371 60 391 85 391 c 0
 107 391 130 379 130 348 c 0
 130 312 95 289 66 289 c 0
 44 289 22 303 22 333 c 0
EndSplineSet
EndChar

StartChar: cedilla
Encoding: 184 184 120
Width: 400
GlyphClass: 2
Flags: MW
HStem: -231 30<179.5 207.5 168.5 234> -106 41<186.5 250>
VStem: 248 61<-158.5 -136.5>
LayerCount: 2
Back
Fore
SplineSet
114 -196 m 0
 114 -191 116 -186 124 -186 c 0
 130 -186 152 -201 185 -201 c 0
 230 -201 248 -185 248 -148 c 0
 248 -125 237 -106 196 -106 c 0
 177 -106 164 -115 159 -115 c 0
 156 -115 148 -110 148 -107 c 0
 148 -103 178 -26 189 0 c 1
 212 0 l 1
 188 -66 l 2
 187 -70 187 -70 195 -68 c 0
 203 -66 214 -65 221 -65 c 0
 279 -65 309 -103 309 -136 c 0
 309 -181 268 -231 200 -231 c 0
 159 -231 128 -215 117 -205 c 0
 115 -203 114 -199 114 -196 c 0
EndSplineSet
EndChar

StartChar: uni00B9
Encoding: 185 185 121
Width: 360
GlyphClass: 2
Flags: MW
HStem: 345 32<109 114.5 266 272 272 276.5> 718 30<103 105> 739 20
VStem: 167 63<377 565>
LayerCount: 2
Back
Fore
SplineSet
92 364 m 0xb0
 92 375 98 377 109 377 c 2
 166 377 l 1
 167 389 167 414 167 424 c 2
 167 565 l 2
 167 633 167 721 163 721 c 0x90
 161 721 107 718 103 718 c 0
 94 718 92 725 92 727 c 2
 92 739 l 2xb0
 92 748 100 748 106 748 c 0x90
 206 753 216 759 221 759 c 0
 231 759 231 756 231 742 c 0
 231 614 230 515 230 396 c 2
 230 377 l 1
 272 377 l 2
 281 377 282 372 282 364 c 0
 282 355 282 345 271 345 c 0
 261 345 242 347 200 347 c 0
 153 347 123 345 106 345 c 0
 95 345 92 350 92 364 c 0xb0
EndSplineSet
EndChar

StartChar: ordmasculine
Encoding: 186 186 122
Width: 384
GlyphClass: 2
Flags: MW
HStem: 334 29<159 227.5 159 242> 643 29<156 224>
VStem: 27 70<456.5 530 456.5 545.5> 285 72<478 545>
LayerCount: 2
Back
Fore
SplineSet
27 497 m 0
 27 594 97 672 202 672 c 0
 295 672 357 598 357 508 c 0
 357 408 295 334 189 334 c 0
 97 334 27 407 27 497 c 0
97 486 m 0
 97 427 129 363 189 363 c 0
 266 363 285 442 285 514 c 0
 285 576 256 643 192 643 c 0
 120 643 97 574 97 486 c 0
EndSplineSet
EndChar

StartChar: guillemotright
Encoding: 187 187 123
Width: 408
GlyphClass: 2
Flags: MW
HStem: 58 270<72 75 222 225>
VStem: 119 92<189 197 189 198> 269 92<189 197 189 198>
LayerCount: 2
Back
Fore
SplineSet
56 73 m 0
 56 81 119 183 119 193 c 0
 119 203 56 303 56 313 c 0
 56 317 71 328 73 328 c 0
 78 328 117 285 155 250 c 0
 183 224 211 201 211 193 c 0
 211 185 183 163 155 136 c 0
 117 101 77 58 73 58 c 0
 71 58 56 71 56 73 c 0
206 73 m 0
 206 81 269 183 269 193 c 0
 269 203 206 303 206 313 c 0
 206 317 221 328 223 328 c 0
 228 328 267 285 305 250 c 0
 333 224 361 201 361 193 c 0
 361 185 333 163 305 136 c 0
 267 101 227 58 223 58 c 0
 221 58 206 71 206 73 c 0
EndSplineSet
Substitution2: "'case' Case-Sensitive Forms in Latin lookup 16 subtable" guillemotright.u
AlternateSubs2: "'aalt' Access All Alternates in Latin lookup 1 subtable" guillemotright.u
AlternateSubs2: "'aalt' Access All Alternates lookup 0 subtable" guillemotright.u
EndChar

StartChar: onequarter
Encoding: 188 188 124
Width: 774
GlyphClass: 2
Flags: MW
HStem: -16 21<211.5 226.5> -13 21<627.5 632> 128 48<465 622 492 619 687 733> 245 32<109 114.5 266 272 272 276.5> 397 20<662 672.5> 618 30<103 105> 639 20 651 20<624 640.5>
VStem: 167 63<277 465> 626 57<123 180 181 347 347 347>
LayerCount: 2
Back
Fore
SplineSet
446 138 m 0x6840
 446 145 446 159 457 178 c 0
 485 227 555 313 607 369 c 0
 616 379 627 386 634 391 c 0
 650 405 657 417 667 417 c 0
 678 417 683 403 683 392 c 2
 683 180 l 2
 683 176 683 176 687 176 c 2
 738 176 l 2
 746 176 748 169 748 163 c 2
 748 141 l 2
 748 132 742 128 733 128 c 2
 687 128 l 2
 684 128 684 128 684 125 c 2
 684 2 l 2
 684 -2 681 -9 675 -9 c 2
 632 -13 l 2
 623 -13 623 -5 623 -2 c 2
 626 123 l 2
 626 128 626 128 619 128 c 2
 466 128 l 2
 464 128 446 127 446 138 c 0x6840
492 176 m 1
 622 176 l 2
 626 176 626 177 626 181 c 2
 626 347 l 1
 598 317 515 215 492 176 c 1
195 -10 m 0x81
 195 -8 199 -2 201 2 c 2
 610 660 l 2
 615 667 613 671 635 671 c 0
 646 671 658 670 658 665 c 0
 658 664 655 659 654 657 c 2
 244 -3 l 2
 236 -16 235 -16 218 -16 c 0
 205 -16 195 -16 195 -10 c 0x81
92 264 m 0x1280
 92 275 98 277 109 277 c 2
 166 277 l 1
 167 289 167 314 167 324 c 2
 167 465 l 2
 167 533 167 621 163 621 c 0x1080
 161 621 107 618 103 618 c 0
 94 618 92 625 92 627 c 2
 92 639 l 2x1280
 92 648 100 648 106 648 c 0x1080
 206 653 216 659 221 659 c 0
 231 659 231 656 231 642 c 0
 231 514 230 415 230 296 c 2
 230 277 l 1
 272 277 l 2
 281 277 282 272 282 264 c 0
 282 255 282 245 271 245 c 0
 261 245 242 247 200 247 c 0
 153 247 123 245 106 245 c 0
 95 245 92 250 92 264 c 0x1280
EndSplineSet
EndChar

StartChar: onehalf
Encoding: 189 189 125
Width: 844
GlyphClass: 2
Flags: MW
HStem: -16 21<211.5 226.5> -3 56<542.5 772 595 772 595 777> 245 32<109 114.5 266 272 272 276.5> 366 48<617.5 667.5> 618 30<103 105> 639 20 651 20<624 640.5>
VStem: 167 63<277 465> 715 61<244 306> 778 27<102 105.5>
LayerCount: 2
Back
Fore
SplineSet
521 321 m 0x50c0
 521 335 578 414 657 414 c 0
 742 414 776 342 776 294 c 0
 776 194 656 103 615 73 c 0
 609 69 599 58 595 53 c 1
 772 53 l 1
 774 64 777 93 778 102 c 0
 778 109 783 111 791 110 c 0
 796 110 805 109 805 102 c 0
 805 97 795 32 792 5 c 0
 791 -1 784 -3 777 -3 c 2
 547 -3 l 2
 538 -3 531 1 531 9 c 0
 531 19 571 78 576 82 c 0
 613 114 715 192 715 286 c 0
 715 326 691 366 644 366 c 0
 580 366 549 305 537 305 c 0
 530 305 521 313 521 321 c 0x50c0
195 -10 m 0x82
 195 -8 199 -2 201 2 c 2
 610 660 l 2
 615 667 613 671 635 671 c 0
 646 671 658 670 658 665 c 0
 658 664 655 659 654 657 c 2
 244 -3 l 2
 236 -16 235 -16 218 -16 c 0
 205 -16 195 -16 195 -10 c 0x82
92 264 m 0x25
 92 275 98 277 109 277 c 2
 166 277 l 1
 167 289 167 314 167 324 c 2
 167 465 l 2
 167 533 167 621 163 621 c 0x21
 161 621 107 618 103 618 c 0
 94 618 92 625 92 627 c 2
 92 639 l 2x25
 92 648 100 648 106 648 c 0x21
 206 653 216 659 221 659 c 0
 231 659 231 656 231 642 c 0
 231 514 230 415 230 296 c 2
 230 277 l 1
 272 277 l 2
 281 277 282 272 282 264 c 0
 282 255 282 245 271 245 c 0
 261 245 242 247 200 247 c 0
 153 247 123 245 106 245 c 0
 95 245 92 250 92 264 c 0x25
EndSplineSet
EndChar

StartChar: threequarters
Encoding: 190 190 126
Width: 774
GlyphClass: 2
Flags: MW
HStem: -16 21<211.5 226.5> -13 21<627.5 632> 128 48<465 622 492 619 687 733> 239 30<172.5 200 172.5 200> 397 20<662 672.5> 428 40 625 39<145 183.5> 651 20<624 640.5>
VStem: 226 63<543 583.5> 257 61<331 379> 626 57<123 180 181 347 347 347>
LayerCount: 2
Back
Fore
SplineSet
446 138 m 0x6820
 446 145 446 159 457 178 c 0
 485 227 555 313 607 369 c 0
 616 379 627 386 634 391 c 0
 650 405 657 417 667 417 c 0
 678 417 683 403 683 392 c 2
 683 180 l 2
 683 176 683 176 687 176 c 2
 738 176 l 2
 746 176 748 169 748 163 c 2
 748 141 l 2
 748 132 742 128 733 128 c 2
 687 128 l 2
 684 128 684 128 684 125 c 2
 684 2 l 2
 684 -2 681 -9 675 -9 c 2
 632 -13 l 2
 623 -13 623 -5 623 -2 c 2
 626 123 l 2
 626 128 626 128 619 128 c 2
 466 128 l 2
 464 128 446 127 446 138 c 0x6820
492 176 m 1
 622 176 l 2
 626 176 626 177 626 181 c 2
 626 347 l 1
 598 317 515 215 492 176 c 1
195 -10 m 0x81
 195 -8 199 -2 201 2 c 2
 610 660 l 2
 615 667 613 671 635 671 c 0
 646 671 658 670 658 665 c 0
 658 664 655 659 654 657 c 2
 244 -3 l 2
 236 -16 235 -16 218 -16 c 0
 205 -16 195 -16 195 -10 c 0x81
62 268 m 0x1640
 62 289 78 300 97 300 c 0
 109 300 117 297 127 293 c 0
 148 285 165 269 180 269 c 0
 220 269 257 306 257 356 c 0x1640
 257 402 240 432 186 432 c 0
 165 432 121 428 113 428 c 0
 98 428 97 447 97 452 c 0
 97 465 112 467 116 468 c 0
 196 485 226 503 226 562 c 0
 226 605 201 625 166 625 c 0
 114 625 95 592 82 592 c 0
 74 592 66 600 66 608 c 0
 66 621 115 664 175 664 c 0
 240 664 289 625 289 572 c 0x1680
 289 514 239 488 195 470 c 1
 264 465 318 431 318 370 c 0
 318 290 235 239 165 239 c 0
 132 239 62 244 62 268 c 0x1640
EndSplineSet
EndChar

StartChar: questiondown
Encoding: 191 191 127
Width: 364
GlyphClass: 2
Flags: MW
HStem: 340 77<109 140 140 174.5 109 200> 559 111<214.5 223.5 202.5 233.5>
VStem: 27 29<210 271.5 210 285.5> 164 107<610 625> 196 34<524 524.5 510.5 528>
LayerCount: 2
Back
Fore
SplineSet
27 240 m 0xe8
 27 331 52 417 166 417 c 0
 183 417 187 417 188 431 c 0
 191 463 194 492 196 524 c 0
 196 532 198 533 211 533 c 0
 229 533 230 532 230 517 c 0
 230 504 229 375 228 361 c 0
 227 342 218 340 200 340 c 2
 140 340 l 2
 61 340 56 288 56 255 c 0
 56 165 126 92 281 72 c 0
 294 70 307 71 307 54 c 2
 307 9 l 2
 307 3 305 -11 295 -11 c 0
 282 -11 281 13 276 14 c 0
 203 26 27 53 27 240 c 0xe8
164 609 m 0xf0
 164 641 196 670 209 670 c 0
 238 670 271 638 271 621 c 0
 271 599 243 559 224 559 c 0
 205 559 164 581 164 609 c 0xf0
EndSplineSet
Position2: "'cpsp' Capital Spacing in Latin lookup 0 subtable" dx=4 dy=0 dh=8 dv=0
EndChar

StartChar: Agrave
Encoding: 192 192 128
Width: 698
GlyphClass: 2
Flags: MW
HStem: -6 36<45 47 205.5 211 211 217 466 473.5 662.5 670 670 675> 272 30<227.5 426 247 426 426 429.5 247 437> 670 20<378.5 386> 726 124<281 356 281 377>
VStem: 259 127<728 829.5>
LayerCount: 2
Back
Fore
SplineSet
259 822 m 0
 259 837 270 850 292 850 c 0
 309 850 320 838 329 824 c 2
 382 738 l 2
 383 736 386 733 386 730 c 0
 386 726 380 726 377 726 c 2
 356 726 l 2
 354 726 349 731 346 733 c 2
 274 793 l 2
 264 801 259 811 259 822 c 0
27 15 m 0
 27 29 29 30 45 30 c 2
 75 30 l 2
 84 30 206 328 219 359 c 2
 325 605 l 2
 333 626 350 635 361 661 c 0
 367 674 374 690 383 690 c 0
 389 690 394 686 395 681 c 2
 515 344 l 2
 555 233 628 30 635 30 c 2
 670 30 l 2
 680 30 681 26 681 14 c 0
 681 -1 680 -6 670 -6 c 0
 655 -6 607 -3 577 -3 c 0
 547 -3 485 -6 462 -6 c 0
 450 -6 449 -2 449 15 c 0
 449 29 450 30 466 30 c 2
 521 30 l 1
 521 30 522 30 522 31 c 0
 522 51 471 202 452 255 c 0
 447 271 447 272 437 272 c 2
 235 272 l 2
 220 272 219 269 214 256 c 0
 189 193 134 52 133 31 c 0
 133 30 134 30 134 30 c 1
 211 30 l 2
 223 30 223 26 223 14 c 0
 223 -1 223 -6 211 -6 c 0
 200 -6 161 -3 117 -3 c 0
 76 -3 53 -6 41 -6 c 0
 27 -6 27 -2 27 15 c 0
234 305 m 0
 234 304 234 302 247 302 c 2
 426 302 l 2
 433 302 435 303 435 306 c 0
 435 308 434 311 432 316 c 2
 349 559 l 2
 346 569 345 571 344 571 c 0
 342 571 340 567 337 559 c 2
 239 319 l 2
 236 312 234 307 234 305 c 0
EndSplineSet
Substitution2: "'c2sc' Capitals to Small Capitals in Latin lookup 14 subtable" Agrave.c2
AlternateSubs2: "'aalt' Access All Alternates in Latin lookup 1 subtable" Agrave.c2
AlternateSubs2: "'aalt' Access All Alternates lookup 0 subtable" Agrave.c2
Position2: "'cpsp' Capital Spacing in Latin lookup 0 subtable" dx=4 dy=0 dh=8 dv=0
EndChar

StartChar: Aacute
Encoding: 193 193 129
Width: 698
GlyphClass: 2
Flags: MW
HStem: -6 36<45 47 205.5 211 211 217 466 473.5 662.5 670 670 675> 272 30<227.5 426 247 426 426 429.5 247 437> 670 20<378.5 386> 726 124<360.5 461 362 461>
VStem: 356 127<727.5 829.5>
LayerCount: 2
Back
Fore
SplineSet
356 729 m 0
 356 732 359 736 360 738 c 2
 413 824 l 2
 422 838 433 850 450 850 c 0
 472 850 483 837 483 822 c 0
 483 811 477 801 468 793 c 2
 396 733 l 2
 393 731 391 726 386 726 c 2
 362 726 l 2
 359 726 356 726 356 729 c 0
27 15 m 0
 27 29 29 30 45 30 c 2
 75 30 l 2
 84 30 206 328 219 359 c 2
 325 605 l 2
 333 626 350 635 361 661 c 0
 367 674 374 690 383 690 c 0
 389 690 394 686 395 681 c 2
 515 344 l 2
 555 233 628 30 635 30 c 2
 670 30 l 2
 680 30 681 26 681 14 c 0
 681 -1 680 -6 670 -6 c 0
 655 -6 607 -3 577 -3 c 0
 547 -3 485 -6 462 -6 c 0
 450 -6 449 -2 449 15 c 0
 449 29 450 30 466 30 c 2
 521 30 l 1
 521 30 522 30 522 31 c 0
 522 51 471 202 452 255 c 0
 447 271 447 272 437 272 c 2
 235 272 l 2
 220 272 219 269 214 256 c 0
 189 193 134 52 133 31 c 0
 133 30 134 30 134 30 c 1
 211 30 l 2
 223 30 223 26 223 14 c 0
 223 -1 223 -6 211 -6 c 0
 200 -6 161 -3 117 -3 c 0
 76 -3 53 -6 41 -6 c 0
 27 -6 27 -2 27 15 c 0
234 305 m 0
 234 304 234 302 247 302 c 2
 426 302 l 2
 433 302 435 303 435 306 c 0
 435 308 434 311 432 316 c 2
 349 559 l 2
 346 569 345 571 344 571 c 0
 342 571 340 567 337 559 c 2
 239 319 l 2
 236 312 234 307 234 305 c 0
EndSplineSet
Substitution2: "'c2sc' Capitals to Small Capitals in Latin lookup 14 subtable" Aacute.c2
AlternateSubs2: "'aalt' Access All Alternates in Latin lookup 1 subtable" Aacute.c2
AlternateSubs2: "'aalt' Access All Alternates lookup 0 subtable" Aacute.c2
Position2: "'cpsp' Capital Spacing in Latin lookup 0 subtable" dx=4 dy=0 dh=8 dv=0
EndChar

StartChar: Acircumflex
Encoding: 194 194 130
Width: 698
GlyphClass: 2
Flags: MW
HStem: -6 36<45 47 205.5 211 211 217 466 473.5 662.5 670 670 675> 272 30<227.5 426 247 426 426 429.5 247 437> 670 20<378.5 386> 726 116<261.5 383 263 383 359 467 359 479>
VStem: 256 230<728 731.5 728 732>
LayerCount: 2
Back
Fore
SplineSet
256 730 m 0
 256 734 260 736 262 739 c 2
 341 828 l 2
 351 839 352 842 359 842 c 2
 383 842 l 2
 390 842 392 839 401 828 c 2
 480 739 l 2
 482 737 486 733 486 730 c 0
 486 726 482 726 479 726 c 2
 467 726 l 2
 464 726 459 729 454 732 c 2
 374 777 l 2
 372 778 370 778 368 777 c 2
 288 732 l 2
 283 729 278 726 275 726 c 2
 263 726 l 2
 260 726 256 726 256 730 c 0
27 15 m 0
 27 29 29 30 45 30 c 2
 75 30 l 2
 84 30 206 328 219 359 c 2
 325 605 l 2
 333 626 350 635 361 661 c 0
 367 674 374 690 383 690 c 0
 389 690 394 686 395 681 c 2
 515 344 l 2
 555 233 628 30 635 30 c 2
 670 30 l 2
 680 30 681 26 681 14 c 0
 681 -1 680 -6 670 -6 c 0
 655 -6 607 -3 577 -3 c 0
 547 -3 485 -6 462 -6 c 0
 450 -6 449 -2 449 15 c 0
 449 29 450 30 466 30 c 2
 521 30 l 1
 521 30 522 30 522 31 c 0
 522 51 471 202 452 255 c 0
 447 271 447 272 437 272 c 2
 235 272 l 2
 220 272 219 269 214 256 c 0
 189 193 134 52 133 31 c 0
 133 30 134 30 134 30 c 1
 211 30 l 2
 223 30 223 26 223 14 c 0
 223 -1 223 -6 211 -6 c 0
 200 -6 161 -3 117 -3 c 0
 76 -3 53 -6 41 -6 c 0
 27 -6 27 -2 27 15 c 0
234 305 m 0
 234 304 234 302 247 302 c 2
 426 302 l 2
 433 302 435 303 435 306 c 0
 435 308 434 311 432 316 c 2
 349 559 l 2
 346 569 345 571 344 571 c 0
 342 571 340 567 337 559 c 2
 239 319 l 2
 236 312 234 307 234 305 c 0
EndSplineSet
Substitution2: "'c2sc' Capitals to Small Capitals in Latin lookup 14 subtable" Acircumflex.c2
AlternateSubs2: "'aalt' Access All Alternates in Latin lookup 1 subtable" Acircumflex.c2
AlternateSubs2: "'aalt' Access All Alternates lookup 0 subtable" Acircumflex.c2
Position2: "'cpsp' Capital Spacing in Latin lookup 0 subtable" dx=4 dy=0 dh=8 dv=0
EndChar

StartChar: Atilde
Encoding: 195 195 131
Width: 698
GlyphClass: 2
Flags: MW
HStem: -6 36<45 47 205.5 211 211 217 466 473.5 662.5 670 670 675> 272 30<227.5 426 247 426 426 429.5 247 437> 670 20<378.5 386> 743 51<406 420> 780 52<321 333>
VStem: 452 24
LayerCount: 2
Back
Fore
SplineSet
263 748 m 0x14
 263 754 268 768 271 775 c 0
 287 814 312 832 330 832 c 0x0c
 363 832 394 794 418 794 c 0x14
 437 794 447 810 452 827 c 0
 455 836 454 836 463 836 c 0
 469 836 476 836 476 832 c 0x0c
 476 824 472 811 469 803 c 0
 456 769 434 743 406 743 c 0x14
 369 743 348 780 318 780 c 0x0c
 298 780 291 765 286 751 c 0
 284 744 285 743 273 743 c 0
 265 743 263 743 263 748 c 0x14
27 15 m 0xe0
 27 29 29 30 45 30 c 2
 75 30 l 2
 84 30 206 328 219 359 c 2
 325 605 l 2
 333 626 350 635 361 661 c 0
 367 674 374 690 383 690 c 0
 389 690 394 686 395 681 c 2
 515 344 l 2
 555 233 628 30 635 30 c 2
 670 30 l 2
 680 30 681 26 681 14 c 0
 681 -1 680 -6 670 -6 c 0
 655 -6 607 -3 577 -3 c 0
 547 -3 485 -6 462 -6 c 0
 450 -6 449 -2 449 15 c 0
 449 29 450 30 466 30 c 2
 521 30 l 1
 521 30 522 30 522 31 c 0
 522 51 471 202 452 255 c 0
 447 271 447 272 437 272 c 2
 235 272 l 2
 220 272 219 269 214 256 c 0
 189 193 134 52 133 31 c 0
 133 30 134 30 134 30 c 1
 211 30 l 2
 223 30 223 26 223 14 c 0
 223 -1 223 -6 211 -6 c 0
 200 -6 161 -3 117 -3 c 0
 76 -3 53 -6 41 -6 c 0
 27 -6 27 -2 27 15 c 0xe0
234 305 m 0
 234 304 234 302 247 302 c 2
 426 302 l 2
 433 302 435 303 435 306 c 0
 435 308 434 311 432 316 c 2
 349 559 l 2
 346 569 345 571 344 571 c 0
 342 571 340 567 337 559 c 2
 239 319 l 2
 236 312 234 307 234 305 c 0
EndSplineSet
Substitution2: "'c2sc' Capitals to Small Capitals in Latin lookup 14 subtable" Atilde.c2
AlternateSubs2: "'aalt' Access All Alternates in Latin lookup 1 subtable" Atilde.c2
AlternateSubs2: "'aalt' Access All Alternates lookup 0 subtable" Atilde.c2
Position2: "'cpsp' Capital Spacing in Latin lookup 0 subtable" dx=4 dy=0 dh=8 dv=0
EndChar

StartChar: Adieresis
Encoding: 196 196 132
Width: 698
GlyphClass: 2
Flags: MW
HStem: -6 36<45 47 205.5 211 211 217 466 473.5 662.5 670 670 675> 272 30<227.5 426 247 426 426 429.5 247 437> 670 20<378.5 386> 739 102<287.5 295.5 447.5 455.5>
VStem: 237 108<780 802> 397 108<780 802>
LayerCount: 2
Back
Fore
SplineSet
237 783 m 0
 237 821 275 841 300 841 c 0
 322 841 345 829 345 798 c 0
 345 762 310 739 281 739 c 0
 259 739 237 753 237 783 c 0
397 783 m 0
 397 821 435 841 460 841 c 0
 482 841 505 829 505 798 c 0
 505 762 470 739 441 739 c 0
 419 739 397 753 397 783 c 0
27 15 m 0
 27 29 29 30 45 30 c 2
 75 30 l 2
 84 30 206 328 219 359 c 2
 325 605 l 2
 333 626 350 635 361 661 c 0
 367 674 374 690 383 690 c 0
 389 690 394 686 395 681 c 2
 515 344 l 2
 555 233 628 30 635 30 c 2
 670 30 l 2
 680 30 681 26 681 14 c 0
 681 -1 680 -6 670 -6 c 0
 655 -6 607 -3 577 -3 c 0
 547 -3 485 -6 462 -6 c 0
 450 -6 449 -2 449 15 c 0
 449 29 450 30 466 30 c 2
 521 30 l 1
 521 30 522 30 522 31 c 0
 522 51 471 202 452 255 c 0
 447 271 447 272 437 272 c 2
 235 272 l 2
 220 272 219 269 214 256 c 0
 189 193 134 52 133 31 c 0
 133 30 134 30 134 30 c 1
 211 30 l 2
 223 30 223 26 223 14 c 0
 223 -1 223 -6 211 -6 c 0
 200 -6 161 -3 117 -3 c 0
 76 -3 53 -6 41 -6 c 0
 27 -6 27 -2 27 15 c 0
234 305 m 0
 234 304 234 302 247 302 c 2
 426 302 l 2
 433 302 435 303 435 306 c 0
 435 308 434 311 432 316 c 2
 349 559 l 2
 346 569 345 571 344 571 c 0
 342 571 340 567 337 559 c 2
 239 319 l 2
 236 312 234 307 234 305 c 0
EndSplineSet
Substitution2: "'c2sc' Capitals to Small Capitals in Latin lookup 14 subtable" Adieresis.c2
AlternateSubs2: "'aalt' Access All Alternates in Latin lookup 1 subtable" Adieresis.c2
AlternateSubs2: "'aalt' Access All Alternates lookup 0 subtable" Adieresis.c2
Position2: "'cpsp' Capital Spacing in Latin lookup 0 subtable" dx=4 dy=0 dh=8 dv=0
EndChar

StartChar: Aring
Encoding: 197 197 133
Width: 698
GlyphClass: 2
Flags: MW
HStem: -6 36<45 47 205.5 211 211 217 466 473.5 662.5 670 670 675> 272 30<227.5 426 247 426 426 429.5 247 437> 670 20<378.5 386> 711 34<360 382 360 391.5> 825 34<360 382>
VStem: 297 34<774 796 774 805.5> 411 34<774 796>
LayerCount: 2
Back
Fore
SplineSet
297 785 m 0
 297 826 330 859 371 859 c 0
 412 859 445 826 445 785 c 0
 445 744 412 711 371 711 c 0
 330 711 297 744 297 785 c 0
331 785 m 0
 331 763 349 745 371 745 c 0
 393 745 411 763 411 785 c 0
 411 807 393 825 371 825 c 0
 349 825 331 807 331 785 c 0
27 15 m 0
 27 29 29 30 45 30 c 2
 75 30 l 2
 84 30 206 328 219 359 c 2
 325 605 l 2
 333 626 350 635 361 661 c 0
 367 674 374 690 383 690 c 0
 389 690 394 686 395 681 c 2
 515 344 l 2
 555 233 628 30 635 30 c 2
 670 30 l 2
 680 30 681 26 681 14 c 0
 681 -1 680 -6 670 -6 c 0
 655 -6 607 -3 577 -3 c 0
 547 -3 485 -6 462 -6 c 0
 450 -6 449 -2 449 15 c 0
 449 29 450 30 466 30 c 2
 521 30 l 1
 521 30 522 30 522 31 c 0
 522 51 471 202 452 255 c 0
 447 271 447 272 437 272 c 2
 235 272 l 2
 220 272 219 269 214 256 c 0
 189 193 134 52 133 31 c 0
 133 30 134 30 134 30 c 1
 211 30 l 2
 223 30 223 26 223 14 c 0
 223 -1 223 -6 211 -6 c 0
 200 -6 161 -3 117 -3 c 0
 76 -3 53 -6 41 -6 c 0
 27 -6 27 -2 27 15 c 0
234 305 m 0
 234 304 234 302 247 302 c 2
 426 302 l 2
 433 302 435 303 435 306 c 0
 435 308 434 311 432 316 c 2
 349 559 l 2
 346 569 345 571 344 571 c 0
 342 571 340 567 337 559 c 2
 239 319 l 2
 236 312 234 307 234 305 c 0
EndSplineSet
Substitution2: "'c2sc' Capitals to Small Capitals in Latin lookup 14 subtable" Aring.c2
AlternateSubs2: "'aalt' Access All Alternates in Latin lookup 1 subtable" Aring.c2
AlternateSubs2: "'aalt' Access All Alternates lookup 0 subtable" Aring.c2
Position2: "'cpsp' Capital Spacing in Latin lookup 0 subtable" dx=4 dy=0 dh=8 dv=0
EndChar

StartChar: AE
Encoding: 198 198 134
Width: 973
GlyphClass: 2
Flags: MW
HStem: -6 36<24 66 180.5 192 192 198 423 430.5> -3 40<528 639.5> 272 30<295 463> 322 33<584 588 588 751> 410 20G<819 826.5> 633 35<377.5 382 382 385.5 377.5 432>
VStem: 490 85<102 317 260 317 361.5 368 310 451> 803 37<257 262.5 252 307 416.5 420 420 424.5> 846 34 904 37<149 153 123 153.5>
LayerCount: 2
Back
Fore
SplineSet
17 15 m 0xbfc0
 17 29 22 30 38 30 c 2
 66 30 l 2xbfc0
 77 30 137 138 216 267 c 2
 437 627 l 2
 440 633 437 633 432 633 c 2
 382 633 l 2
 372 633 371 637 371 651 c 0
 371 664 373 668 382 668 c 0
 389 668 438 665 535 665 c 0
 590 665 743 668 787 668 c 0
 852 668 847 668 848 678 c 0
 850 689 850 693 864 693 c 0
 878 693 884 692 884 679 c 0
 884 660 880 625 880 547 c 0
 880 537 875 536 861 536 c 0
 848 536 843 540 843 551 c 0
 843 555 846 615 846 628 c 0
 846 632 667 635 579 635 c 0
 573 635 573 534 573 510 c 0
 573 467 574 418 575 368 c 0
 575 355 576 355 584 355 c 2
 751 355 l 2
 771 355 803 356 803 368 c 2
 803 420 l 2
 803 429 815 430 823 430 c 0
 830 430 840 429 840 421 c 0
 840 412 838 377 838 341 c 0
 838 305 840 269 840 256 c 0
 840 248 831 247 824 247 c 0
 816 247 803 247 803 257 c 2
 803 307 l 2
 803 314 801 322 751 322 c 2
 588 322 l 2
 578 322 575 324 575 310 c 0
 578 178 581 37 586 37 c 0x7fc0
 693 37 881 40 892 40 c 0
 899 40 899 42 901 60 c 0
 903 85 903 110 904 149 c 0
 904 158 913 158 921 158 c 0
 930 158 941 158 941 148 c 0
 941 98 938 38 938 8 c 0
 938 -4 927 -6 918 -6 c 0xbfc0
 895 -6 573 -3 543 -3 c 0x7fc0
 513 -3 442 -6 419 -6 c 0
 405 -6 405 -2 405 15 c 0
 405 28 407 30 423 30 c 2
 486 30 l 2
 488 30 490 54 490 102 c 2
 490 260 l 2
 490 272 481 272 463 272 c 2
 264 272 l 2
 257 272 127 40 127 31 c 0
 127 30 128 30 128 30 c 1
 192 30 l 2
 204 30 206 26 206 14 c 0
 206 -1 204 -6 192 -6 c 0xbfc0
 169 -6 135 -3 105 -3 c 0x7fc0
 75 -3 37 -6 30 -6 c 0
 18 -6 17 -2 17 15 c 0xbfc0
282 307 m 0
 282 304 285 302 295 302 c 2
 464 302 l 2
 490 302 490 303 490 319 c 2
 490 451 l 2
 490 631 485 633 482 633 c 2
 478 633 l 2
 475 633 473 630 470 625 c 2
 288 319 l 2
 285 314 282 310 282 307 c 0
EndSplineSet
Substitution2: "'c2sc' Capitals to Small Capitals in Latin lookup 14 subtable" AE.c2
AlternateSubs2: "'aalt' Access All Alternates in Latin lookup 1 subtable" AE.c2
AlternateSubs2: "'aalt' Access All Alternates lookup 0 subtable" AE.c2
Position2: "'cpsp' Capital Spacing in Latin lookup 0 subtable" dx=4 dy=0 dh=8 dv=0
EndChar

StartChar: Ccedilla
Encoding: 199 199 135
Width: 731
GlyphClass: 2
Flags: MW
HStem: -231 30<375.5 403.5 364.5 430> -106 41<382.5 446> -19 45<401 401> 426 21G<631.5 648> 647 36<323.5 461>
VStem: 42 108<249 423 249 440.5> 444 61<-158.5 -136.5> 623 41<629 638 638 644>
LayerCount: 2
Back
Fore
SplineSet
42 335 m 0
 42 546 199 683 402 683 c 0
 521 683 591 624 611 610 c 0
 620 603 623 603 623 611 c 2
 623 638 l 2
 623 650 625 654 641 654 c 0
 656 654 664 652 664 638 c 0
 664 620 660 491 660 440 c 0
 660 427 655 426 641 426 c 0
 622 426 619 429 619 439 c 0
 619 443 623 522 623 531 c 0
 623 542 527 647 395 647 c 0
 252 647 150 513 150 333 c 0
 150 165 272 26 424 26 c 0
 536 26 615 82 616 91 c 2
 629 207 l 2
 631 219 635 222 643 222 c 0
 646 222 650 221 654 221 c 0
 666 220 669 217 669 210 c 0
 669 207 665 165 653 72 c 0
 650 50 526 -17 401 -19 c 1
 384 -66 l 2
 383 -70 383 -70 391 -68 c 0
 399 -66 410 -65 417 -65 c 0
 475 -65 505 -103 505 -136 c 0
 505 -181 464 -231 396 -231 c 0
 355 -231 324 -215 313 -205 c 0
 311 -203 310 -199 310 -196 c 0
 310 -191 312 -186 320 -186 c 0
 326 -186 348 -201 381 -201 c 0
 426 -201 444 -185 444 -148 c 0
 444 -125 433 -106 392 -106 c 0
 373 -106 360 -115 355 -115 c 0
 352 -115 344 -110 344 -107 c 0
 344 -104 364 -52 377 -19 c 1
 199 -12 42 100 42 335 c 0
EndSplineSet
Substitution2: "'c2sc' Capitals to Small Capitals in Latin lookup 14 subtable" Ccedilla.c2
AlternateSubs2: "'aalt' Access All Alternates in Latin lookup 1 subtable" Ccedilla.c2
AlternateSubs2: "'aalt' Access All Alternates lookup 0 subtable" Ccedilla.c2
Position2: "'cpsp' Capital Spacing in Latin lookup 0 subtable" dx=4 dy=0 dh=8 dv=0
EndChar

StartChar: Egrave
Encoding: 200 200 136
Width: 605
GlyphClass: 2
Flags: MW
HStem: -6 36<57 64.5> -3 40<160 271.5> 322 33<216 220 220 383> 410 20<451 458.5> 633 35<56 61.5 53.5 62 53.5 109> 726 124<226 301 226 322>
VStem: 122 85<198 317> 204 127<728 829.5> 435 37<257 262.5 252 307 416.5 420 420 424.5> 478 34 536 37<149 153 123 153.5>
LayerCount: 2
Back
Fore
SplineSet
204 822 m 0x05
 204 837 215 850 237 850 c 0
 254 850 265 838 274 824 c 2
 327 738 l 2
 328 736 331 733 331 730 c 0
 331 726 325 726 322 726 c 2
 301 726 l 2
 299 726 294 731 291 733 c 2
 219 793 l 2
 209 801 204 811 204 822 c 0x05
37 15 m 0xbae0
 37 28 41 30 57 30 c 2
 118 30 l 2xbae0
 120 30 122 54 122 102 c 2
 122 198 l 2
 122 309 118 486 118 492 c 0
 118 558 113 633 109 633 c 2
 62 633 l 2
 50 633 45 634 45 651 c 0
 45 664 49 668 58 668 c 0
 65 668 132 665 167 665 c 0
 222 665 375 668 419 668 c 0
 484 668 479 668 480 678 c 0
 482 689 482 693 496 693 c 0
 510 693 516 692 516 679 c 0
 516 660 512 625 512 547 c 0
 512 537 507 536 493 536 c 0
 480 536 475 540 475 551 c 0
 475 555 478 615 478 628 c 0
 478 632 299 635 211 635 c 0
 205 635 205 534 205 510 c 0
 205 467 206 418 207 368 c 0
 207 355 208 355 216 355 c 2
 383 355 l 2
 403 355 435 356 435 368 c 2
 435 420 l 2
 435 429 447 430 455 430 c 0
 462 430 472 429 472 421 c 0
 472 412 470 377 470 341 c 0
 470 305 472 269 472 256 c 0
 472 248 463 247 456 247 c 0
 448 247 435 247 435 257 c 2
 435 307 l 2
 435 314 433 322 383 322 c 2
 220 322 l 2
 210 322 207 324 207 310 c 0
 210 178 213 37 218 37 c 0x7ae0
 325 37 513 40 524 40 c 0
 531 40 531 42 533 60 c 0
 535 85 535 110 536 149 c 0
 536 158 545 158 553 158 c 0
 562 158 573 158 573 148 c 0
 573 98 570 38 570 8 c 0
 570 -4 559 -6 550 -6 c 0xbae0
 527 -6 205 -3 175 -3 c 0x7ae0
 145 -3 76 -6 53 -6 c 0
 39 -6 37 -2 37 15 c 0xbae0
EndSplineSet
Substitution2: "'c2sc' Capitals to Small Capitals in Latin lookup 14 subtable" Egrave.c2
AlternateSubs2: "'aalt' Access All Alternates in Latin lookup 1 subtable" Egrave.c2
AlternateSubs2: "'aalt' Access All Alternates lookup 0 subtable" Egrave.c2
Position2: "'cpsp' Capital Spacing in Latin lookup 0 subtable" dx=4 dy=0 dh=8 dv=0
EndChar

StartChar: Eacute
Encoding: 201 201 137
Width: 605
GlyphClass: 2
Flags: MW
HStem: -6 36<57 64.5> -3 40<160 271.5> 322 33<216 220 220 383> 410 20<451 458.5> 633 35<56 61.5 53.5 62 53.5 109> 726 124<305.5 406 307 406>
VStem: 122 85<198 317> 301 127<727.5 829.5> 435 37<257 262.5 252 307 416.5 420 420 424.5> 478 34 536 37<149 153 123 153.5>
LayerCount: 2
Back
Fore
SplineSet
301 729 m 0x05
 301 732 304 736 305 738 c 2
 358 824 l 2
 367 838 378 850 395 850 c 0
 417 850 428 837 428 822 c 0
 428 811 422 801 413 793 c 2
 341 733 l 2
 338 731 336 726 331 726 c 2
 307 726 l 2
 304 726 301 726 301 729 c 0x05
37 15 m 0xbae0
 37 28 41 30 57 30 c 2
 118 30 l 2xbae0
 120 30 122 54 122 102 c 2
 122 198 l 2
 122 309 118 486 118 492 c 0
 118 558 113 633 109 633 c 2
 62 633 l 2
 50 633 45 634 45 651 c 0
 45 664 49 668 58 668 c 0
 65 668 132 665 167 665 c 0
 222 665 375 668 419 668 c 0
 484 668 479 668 480 678 c 0
 482 689 482 693 496 693 c 0
 510 693 516 692 516 679 c 0
 516 660 512 625 512 547 c 0
 512 537 507 536 493 536 c 0
 480 536 475 540 475 551 c 0
 475 555 478 615 478 628 c 0
 478 632 299 635 211 635 c 0
 205 635 205 534 205 510 c 0
 205 467 206 418 207 368 c 0
 207 355 208 355 216 355 c 2
 383 355 l 2
 403 355 435 356 435 368 c 2
 435 420 l 2
 435 429 447 430 455 430 c 0
 462 430 472 429 472 421 c 0
 472 412 470 377 470 341 c 0
 470 305 472 269 472 256 c 0
 472 248 463 247 456 247 c 0
 448 247 435 247 435 257 c 2
 435 307 l 2
 435 314 433 322 383 322 c 2
 220 322 l 2
 210 322 207 324 207 310 c 0
 210 178 213 37 218 37 c 0x7ae0
 325 37 513 40 524 40 c 0
 531 40 531 42 533 60 c 0
 535 85 535 110 536 149 c 0
 536 158 545 158 553 158 c 0
 562 158 573 158 573 148 c 0
 573 98 570 38 570 8 c 0
 570 -4 559 -6 550 -6 c 0xbae0
 527 -6 205 -3 175 -3 c 0x7ae0
 145 -3 76 -6 53 -6 c 0
 39 -6 37 -2 37 15 c 0xbae0
EndSplineSet
Substitution2: "'c2sc' Capitals to Small Capitals in Latin lookup 14 subtable" Eacute.c2
AlternateSubs2: "'aalt' Access All Alternates in Latin lookup 1 subtable" Eacute.c2
AlternateSubs2: "'aalt' Access All Alternates lookup 0 subtable" Eacute.c2
Position2: "'cpsp' Capital Spacing in Latin lookup 0 subtable" dx=4 dy=0 dh=8 dv=0
EndChar

StartChar: Ecircumflex
Encoding: 202 202 138
Width: 605
GlyphClass: 2
Flags: MW
HStem: -6 36<57 64.5> -3 40<160 271.5> 322 33<216 220 220 383> 410 20<451 458.5> 633 35<56 61.5 53.5 62 53.5 109> 726 116<206.5 328 208 328 304 412 304 424>
VStem: 122 85<198 317> 201 230<728 731.5 728 732> 435 37<257 262.5 252 307 416.5 420 420 424.5> 478 34 536 37<149 153 123 153.5>
LayerCount: 2
Back
Fore
SplineSet
201 730 m 0x05
 201 734 205 736 207 739 c 2
 286 828 l 2
 296 839 297 842 304 842 c 2
 328 842 l 2
 335 842 337 839 346 828 c 2
 425 739 l 2
 427 737 431 733 431 730 c 0
 431 726 427 726 424 726 c 2
 412 726 l 2
 409 726 404 729 399 732 c 2
 319 777 l 2
 317 778 315 778 313 777 c 2
 233 732 l 2
 228 729 223 726 220 726 c 2
 208 726 l 2
 205 726 201 726 201 730 c 0x05
37 15 m 0xbae0
 37 28 41 30 57 30 c 2
 118 30 l 2xbae0
 120 30 122 54 122 102 c 2
 122 198 l 2
 122 309 118 486 118 492 c 0
 118 558 113 633 109 633 c 2
 62 633 l 2
 50 633 45 634 45 651 c 0
 45 664 49 668 58 668 c 0
 65 668 132 665 167 665 c 0
 222 665 375 668 419 668 c 0
 484 668 479 668 480 678 c 0
 482 689 482 693 496 693 c 0
 510 693 516 692 516 679 c 0
 516 660 512 625 512 547 c 0
 512 537 507 536 493 536 c 0
 480 536 475 540 475 551 c 0
 475 555 478 615 478 628 c 0
 478 632 299 635 211 635 c 0
 205 635 205 534 205 510 c 0
 205 467 206 418 207 368 c 0
 207 355 208 355 216 355 c 2
 383 355 l 2
 403 355 435 356 435 368 c 2
 435 420 l 2
 435 429 447 430 455 430 c 0
 462 430 472 429 472 421 c 0
 472 412 470 377 470 341 c 0
 470 305 472 269 472 256 c 0
 472 248 463 247 456 247 c 0
 448 247 435 247 435 257 c 2
 435 307 l 2
 435 314 433 322 383 322 c 2
 220 322 l 2
 210 322 207 324 207 310 c 0
 210 178 213 37 218 37 c 0x7ae0
 325 37 513 40 524 40 c 0
 531 40 531 42 533 60 c 0
 535 85 535 110 536 149 c 0
 536 158 545 158 553 158 c 0
 562 158 573 158 573 148 c 0
 573 98 570 38 570 8 c 0
 570 -4 559 -6 550 -6 c 0xbae0
 527 -6 205 -3 175 -3 c 0x7ae0
 145 -3 76 -6 53 -6 c 0
 39 -6 37 -2 37 15 c 0xbae0
EndSplineSet
Substitution2: "'c2sc' Capitals to Small Capitals in Latin lookup 14 subtable" Ecircumflex.c2
AlternateSubs2: "'aalt' Access All Alternates in Latin lookup 1 subtable" Ecircumflex.c2
AlternateSubs2: "'aalt' Access All Alternates lookup 0 subtable" Ecircumflex.c2
Position2: "'cpsp' Capital Spacing in Latin lookup 0 subtable" dx=4 dy=0 dh=8 dv=0
EndChar

StartChar: Edieresis
Encoding: 203 203 139
Width: 605
GlyphClass: 2
Flags: MW
HStem: -6 36<57 64.5> -3 40<160 271.5> 322 33<216 220 220 383> 410 20<451 458.5> 633 35<56 61.5 53.5 62 53.5 109> 739 102<232.5 240.5 392.5 400.5>
VStem: 122 85<198 317> 182 108<780 802> 342 108<780 802> 435 37<257 262.5 252 307 416.5 420 420 424.5> 478 34 536 37<149 153 123 153.5>
LayerCount: 2
Back
Fore
SplineSet
182 783 m 0x0580
 182 821 220 841 245 841 c 0
 267 841 290 829 290 798 c 0
 290 762 255 739 226 739 c 0
 204 739 182 753 182 783 c 0x0580
342 783 m 0
 342 821 380 841 405 841 c 0
 427 841 450 829 450 798 c 0
 450 762 415 739 386 739 c 0
 364 739 342 753 342 783 c 0
37 15 m 0xba70
 37 28 41 30 57 30 c 2
 118 30 l 2xba70
 120 30 122 54 122 102 c 2
 122 198 l 2
 122 309 118 486 118 492 c 0
 118 558 113 633 109 633 c 2
 62 633 l 2
 50 633 45 634 45 651 c 0
 45 664 49 668 58 668 c 0
 65 668 132 665 167 665 c 0
 222 665 375 668 419 668 c 0
 484 668 479 668 480 678 c 0
 482 689 482 693 496 693 c 0
 510 693 516 692 516 679 c 0
 516 660 512 625 512 547 c 0
 512 537 507 536 493 536 c 0
 480 536 475 540 475 551 c 0
 475 555 478 615 478 628 c 0
 478 632 299 635 211 635 c 0
 205 635 205 534 205 510 c 0
 205 467 206 418 207 368 c 0
 207 355 208 355 216 355 c 2
 383 355 l 2
 403 355 435 356 435 368 c 2
 435 420 l 2
 435 429 447 430 455 430 c 0
 462 430 472 429 472 421 c 0
 472 412 470 377 470 341 c 0
 470 305 472 269 472 256 c 0
 472 248 463 247 456 247 c 0
 448 247 435 247 435 257 c 2
 435 307 l 2
 435 314 433 322 383 322 c 2
 220 322 l 2
 210 322 207 324 207 310 c 0
 210 178 213 37 218 37 c 0x7a70
 325 37 513 40 524 40 c 0
 531 40 531 42 533 60 c 0
 535 85 535 110 536 149 c 0
 536 158 545 158 553 158 c 0
 562 158 573 158 573 148 c 0
 573 98 570 38 570 8 c 0
 570 -4 559 -6 550 -6 c 0xba70
 527 -6 205 -3 175 -3 c 0x7a70
 145 -3 76 -6 53 -6 c 0
 39 -6 37 -2 37 15 c 0xba70
EndSplineSet
Substitution2: "'c2sc' Capitals to Small Capitals in Latin lookup 14 subtable" Edieresis.c2
AlternateSubs2: "'aalt' Access All Alternates in Latin lookup 1 subtable" Edieresis.c2
AlternateSubs2: "'aalt' Access All Alternates lookup 0 subtable" Edieresis.c2
Position2: "'cpsp' Capital Spacing in Latin lookup 0 subtable" dx=4 dy=0 dh=8 dv=0
EndChar

StartChar: Igrave
Encoding: 204 204 140
Width: 333
GlyphClass: 2
Flags: MW
HStem: -3 33<48 195.5> 636 36<43 49 49 57 42.5 115 280.5 288> 726 124<78 153 78 174>
VStem: 56 127<728 829.5> 123 91<394 481>
LayerCount: 2
Back
Fore
SplineSet
56 822 m 0x30
 56 837 67 850 89 850 c 0
 106 850 117 838 126 824 c 2
 179 738 l 2
 180 736 183 733 183 730 c 0
 183 726 177 726 174 726 c 2
 153 726 l 2
 151 726 146 731 143 733 c 2
 71 793 l 2
 61 801 56 811 56 822 c 0x30
27 15 m 0x48
 27 29 32 30 48 30 c 2
 114 30 l 2
 122 30 123 263 123 394 c 2
 123 492 l 2
 123 558 118 636 115 636 c 2
 49 636 l 2
 37 636 31 637 31 654 c 0
 31 671 36 672 49 672 c 0
 65 672 116 669 174 669 c 0
 221 669 269 672 292 672 c 0
 304 672 306 668 306 651 c 0
 306 637 304 636 288 636 c 2
 223 636 l 2
 216 636 214 533 214 481 c 2
 214 346 l 2
 214 218 216 30 223 30 c 2
 292 30 l 2
 304 30 306 26 306 14 c 0
 306 -1 304 -6 292 -6 c 0
 276 -6 219 -3 172 -3 c 0
 121 -3 67 -6 44 -6 c 0
 30 -6 27 -2 27 15 c 0x48
EndSplineSet
Substitution2: "'c2sc' Capitals to Small Capitals in Latin lookup 14 subtable" Igrave.c2
AlternateSubs2: "'aalt' Access All Alternates in Latin lookup 1 subtable" Igrave.c2
AlternateSubs2: "'aalt' Access All Alternates lookup 0 subtable" Igrave.c2
Position2: "'cpsp' Capital Spacing in Latin lookup 0 subtable" dx=4 dy=0 dh=8 dv=0
EndChar

StartChar: Iacute
Encoding: 205 205 141
Width: 333
GlyphClass: 2
Flags: MW
HStem: -3 33<48 195.5> 636 36<43 49 49 57 42.5 115 280.5 288> 726 124<157.5 258 159 258>
VStem: 123 91<394 481> 153 127<727.5 829.5>
LayerCount: 2
Back
Fore
SplineSet
153 729 m 0x28
 153 732 156 736 157 738 c 2
 210 824 l 2
 219 838 230 850 247 850 c 0
 269 850 280 837 280 822 c 0
 280 811 274 801 265 793 c 2
 193 733 l 2
 190 731 188 726 183 726 c 2
 159 726 l 2
 156 726 153 726 153 729 c 0x28
27 15 m 0x50
 27 29 32 30 48 30 c 2
 114 30 l 2
 122 30 123 263 123 394 c 2
 123 492 l 2
 123 558 118 636 115 636 c 2
 49 636 l 2
 37 636 31 637 31 654 c 0
 31 671 36 672 49 672 c 0
 65 672 116 669 174 669 c 0
 221 669 269 672 292 672 c 0
 304 672 306 668 306 651 c 0
 306 637 304 636 288 636 c 2
 223 636 l 2
 216 636 214 533 214 481 c 2
 214 346 l 2
 214 218 216 30 223 30 c 2
 292 30 l 2
 304 30 306 26 306 14 c 0
 306 -1 304 -6 292 -6 c 0
 276 -6 219 -3 172 -3 c 0
 121 -3 67 -6 44 -6 c 0
 30 -6 27 -2 27 15 c 0x50
EndSplineSet
Substitution2: "'c2sc' Capitals to Small Capitals in Latin lookup 14 subtable" Iacute.c2
AlternateSubs2: "'aalt' Access All Alternates in Latin lookup 1 subtable" Iacute.c2
AlternateSubs2: "'aalt' Access All Alternates lookup 0 subtable" Iacute.c2
Position2: "'cpsp' Capital Spacing in Latin lookup 0 subtable" dx=4 dy=0 dh=8 dv=0
EndChar

StartChar: Icircumflex
Encoding: 206 206 142
Width: 333
GlyphClass: 2
Flags: MW
HStem: -3 33<48 195.5> 636 36<43 49 49 57 42.5 115 280.5 288> 726 116<58.5 180 60 180 156 264 156 276>
VStem: 53 230<728 731.5 728 732> 123 91<394 481>
LayerCount: 2
Back
Fore
SplineSet
53 730 m 0x30
 53 734 57 736 59 739 c 2
 138 828 l 2
 148 839 149 842 156 842 c 2
 180 842 l 2
 187 842 189 839 198 828 c 2
 277 739 l 2
 279 737 283 733 283 730 c 0
 283 726 279 726 276 726 c 2
 264 726 l 2
 261 726 256 729 251 732 c 2
 171 777 l 2
 169 778 167 778 165 777 c 2
 85 732 l 2
 80 729 75 726 72 726 c 2
 60 726 l 2
 57 726 53 726 53 730 c 0x30
27 15 m 0x48
 27 29 32 30 48 30 c 2
 114 30 l 2
 122 30 123 263 123 394 c 2
 123 492 l 2
 123 558 118 636 115 636 c 2
 49 636 l 2
 37 636 31 637 31 654 c 0
 31 671 36 672 49 672 c 0
 65 672 116 669 174 669 c 0
 221 669 269 672 292 672 c 0
 304 672 306 668 306 651 c 0
 306 637 304 636 288 636 c 2
 223 636 l 2
 216 636 214 533 214 481 c 2
 214 346 l 2
 214 218 216 30 223 30 c 2
 292 30 l 2
 304 30 306 26 306 14 c 0
 306 -1 304 -6 292 -6 c 0
 276 -6 219 -3 172 -3 c 0
 121 -3 67 -6 44 -6 c 0
 30 -6 27 -2 27 15 c 0x48
EndSplineSet
Substitution2: "'c2sc' Capitals to Small Capitals in Latin lookup 14 subtable" Icircumflex.c2
AlternateSubs2: "'aalt' Access All Alternates in Latin lookup 1 subtable" Icircumflex.c2
AlternateSubs2: "'aalt' Access All Alternates lookup 0 subtable" Icircumflex.c2
Position2: "'cpsp' Capital Spacing in Latin lookup 0 subtable" dx=4 dy=0 dh=8 dv=0
EndChar

StartChar: Idieresis
Encoding: 207 207 143
Width: 333
GlyphClass: 2
Flags: MW
HStem: -3 33<48 195.5> 636 36<43 49 49 57 42.5 115 280.5 288> 739 102<84.5 92.5 244.5 252.5>
VStem: 34 108<780 802> 123 91<394 481> 194 108<780 802>
LayerCount: 2
Back
Fore
SplineSet
34 783 m 0x34
 34 821 72 841 97 841 c 0
 119 841 142 829 142 798 c 0
 142 762 107 739 78 739 c 0
 56 739 34 753 34 783 c 0x34
194 783 m 0
 194 821 232 841 257 841 c 0
 279 841 302 829 302 798 c 0
 302 762 267 739 238 739 c 0
 216 739 194 753 194 783 c 0
27 15 m 0x48
 27 29 32 30 48 30 c 2
 114 30 l 2
 122 30 123 263 123 394 c 2
 123 492 l 2
 123 558 118 636 115 636 c 2
 49 636 l 2
 37 636 31 637 31 654 c 0
 31 671 36 672 49 672 c 0
 65 672 116 669 174 669 c 0
 221 669 269 672 292 672 c 0
 304 672 306 668 306 651 c 0
 306 637 304 636 288 636 c 2
 223 636 l 2
 216 636 214 533 214 481 c 2
 214 346 l 2
 214 218 216 30 223 30 c 2
 292 30 l 2
 304 30 306 26 306 14 c 0
 306 -1 304 -6 292 -6 c 0
 276 -6 219 -3 172 -3 c 0
 121 -3 67 -6 44 -6 c 0
 30 -6 27 -2 27 15 c 0x48
EndSplineSet
Substitution2: "'c2sc' Capitals to Small Capitals in Latin lookup 14 subtable" Idieresis.c2
AlternateSubs2: "'aalt' Access All Alternates in Latin lookup 1 subtable" Idieresis.c2
AlternateSubs2: "'aalt' Access All Alternates lookup 0 subtable" Idieresis.c2
Position2: "'cpsp' Capital Spacing in Latin lookup 0 subtable" dx=4 dy=0 dh=8 dv=0
EndChar

StartChar: Eth
Encoding: 208 208 144
Width: 758
GlyphClass: 2
Flags: MW
HStem: -7 35<39.5 116> 328 30<39.5 119 42 118 224 225 225 433> 638 31<126 127> 649 32<312 402.5>
VStem: 126 90<362 365> 609 107<304.5 418.5>
LayerCount: 2
Back
Fore
SplineSet
32 10 m 0xdc
 32 27 39 28 52 28 c 2
 116 28 l 2
 120 28 123 184 126 323 c 0
 126 328 122 328 118 328 c 2
 42 328 l 2
 37 328 37 340 37 344 c 0
 37 348 37 358 42 358 c 2
 119 358 l 2
 126 358 126 359 126 365 c 0
 127 439 128 511 128 563 c 0
 128 600 128 638 126 638 c 2
 57 636 l 2
 48 636 43 637 43 651 c 0
 43 663 44 670 57 670 c 0
 61 670 94 669 128 669 c 0xec
 202 669 292 681 332 681 c 0
 549 681 716 551 716 335 c 0
 716 109 545 -7 358 -7 c 0
 297 -7 234 -3 173 -3 c 0
 145 -3 57 -7 46 -7 c 0
 33 -7 32 -2 32 10 c 0xdc
216 86 m 2
 216 58 216 29 217 28 c 0
 224 25 253 25 272 25 c 0
 606 25 609 261 609 348 c 0
 609 489 494 649 311 649 c 0xdc
 286 649 244 648 223 643 c 0
 220 642 217 541 217 500 c 0
 217 455 216 410 216 365 c 0
 216 358 216 358 224 358 c 2
 433 358 l 2
 438 358 438 347 438 343 c 0
 438 339 438 328 433 328 c 2
 225 328 l 2
 221 328 216 328 216 321 c 2
 216 86 l 2
EndSplineSet
Substitution2: "'c2sc' Capitals to Small Capitals in Latin lookup 14 subtable" Eth.c2
AlternateSubs2: "'aalt' Access All Alternates in Latin lookup 1 subtable" Eth.c2
AlternateSubs2: "'aalt' Access All Alternates lookup 0 subtable" Eth.c2
Position2: "'cpsp' Capital Spacing in Latin lookup 0 subtable" dx=4 dy=0 dh=8 dv=0
EndChar

StartChar: Ntilde
Encoding: 209 209 145
Width: 814
GlyphClass: 2
Flags: MW
HStem: -21 21<678 686> -3 33<158 158.5> 636 36<48 54 54 61 48 119 564 570 570 573.5 756 757> 743 51<456 470> 780 52<371 383>
VStem: 111 43<129 129> 119 36 502 24 664 44<580 587>
LayerCount: 2
Back
Fore
SplineSet
313 748 m 0x11
 313 754 318 768 321 775 c 0
 337 814 362 832 380 832 c 0x09
 413 832 444 794 468 794 c 0x11
 487 794 497 810 502 827 c 0
 505 836 504 836 513 836 c 0
 519 836 526 836 526 832 c 0x09
 526 824 522 811 519 803 c 0
 506 769 484 743 456 743 c 0x11
 419 743 398 780 368 780 c 0x09
 348 780 341 765 336 751 c 0
 334 744 335 743 323 743 c 0
 315 743 313 743 313 748 c 0x11
37 15 m 0x2480
 37 29 40 30 56 30 c 2
 102 30 l 2
 110 30 109 65 111 129 c 0x2480
 116 291 119 602 119 636 c 1
 54 636 l 2
 42 636 40 640 40 652 c 0
 40 667 42 672 54 672 c 0
 68 672 145 669 166 669 c 0
 188 669 215 672 221 672 c 0
 233 672 235 668 243 658 c 2
 649 159 l 2
 665 139 666 145 666 165 c 2
 666 207 l 2
 666 305 664 482 664 583 c 0
 664 591 664 636 663 636 c 2
 570 636 l 2
 558 636 558 640 558 652 c 0
 558 667 558 672 570 672 c 0
 577 672 634 669 678 669 c 0
 718 669 749 672 763 672 c 0
 777 672 777 668 777 651 c 0
 777 637 773 636 757 636 c 2
 712 636 l 2
 710 636 708 610 708 580 c 0
 707 425 695 15 695 4 c 0
 695 -12 690 -21 682 -21 c 0
 674 -21 668 -11 662 -4 c 2
 170 594 l 2
 161 604 156 613 156 594 c 0
 155 554 155 525 155 472 c 0xa280
 155 366 154 224 154 129 c 0
 154 76 155 30 158 30 c 2
 244 30 l 2
 256 30 256 26 256 14 c 0
 256 -1 256 -6 244 -6 c 0
 221 -6 181 -3 136 -3 c 0
 92 -3 65 -6 52 -6 c 0
 38 -6 37 -2 37 15 c 0x2480
EndSplineSet
Substitution2: "'c2sc' Capitals to Small Capitals in Latin lookup 14 subtable" Ntilde.c2
AlternateSubs2: "'aalt' Access All Alternates in Latin lookup 1 subtable" Ntilde.c2
AlternateSubs2: "'aalt' Access All Alternates lookup 0 subtable" Ntilde.c2
Position2: "'cpsp' Capital Spacing in Latin lookup 0 subtable" dx=4 dy=0 dh=8 dv=0
EndChar

StartChar: Ograve
Encoding: 210 210 146
Width: 752
GlyphClass: 2
Flags: MW
HStem: -14 34<300 452 300 469.5> 644 34<304.5 455> 726 124<285 360 285 381>
VStem: 42 100<255.5 421 255.5 427> 263 127<728 829.5> 612 98<256.5 409>
LayerCount: 2
Back
Fore
SplineSet
263 822 m 0
 263 837 274 850 296 850 c 0
 313 850 324 838 333 824 c 2
 386 738 l 2
 387 736 390 733 390 730 c 0
 390 726 384 726 381 726 c 2
 360 726 l 2
 358 726 353 731 350 733 c 2
 278 793 l 2
 268 801 263 811 263 822 c 0
42 318 m 0
 42 536 199 678 385 678 c 0
 585 678 710 519 710 324 c 0
 710 122 569 -14 370 -14 c 0
 209 -14 42 102 42 318 c 0
142 345 m 0
 142 166 229 20 371 20 c 0
 533 20 612 180 612 333 c 0
 612 485 535 644 375 644 c 0
 234 644 142 497 142 345 c 0
EndSplineSet
Substitution2: "'c2sc' Capitals to Small Capitals in Latin lookup 14 subtable" Ograve.c2
AlternateSubs2: "'aalt' Access All Alternates in Latin lookup 1 subtable" Ograve.c2
AlternateSubs2: "'aalt' Access All Alternates lookup 0 subtable" Ograve.c2
Position2: "'cpsp' Capital Spacing in Latin lookup 0 subtable" dx=4 dy=0 dh=8 dv=0
EndChar

StartChar: Oacute
Encoding: 211 211 147
Width: 752
GlyphClass: 2
Flags: MW
HStem: -14 34<300 452 300 469.5> 644 34<304.5 455> 726 124<364.5 465 366 465>
VStem: 42 100<255.5 421 255.5 427> 360 127<727.5 829.5> 612 98<256.5 409>
LayerCount: 2
Back
Fore
SplineSet
360 729 m 0
 360 732 363 736 364 738 c 2
 417 824 l 2
 426 838 437 850 454 850 c 0
 476 850 487 837 487 822 c 0
 487 811 481 801 472 793 c 2
 400 733 l 2
 397 731 395 726 390 726 c 2
 366 726 l 2
 363 726 360 726 360 729 c 0
42 318 m 0
 42 536 199 678 385 678 c 0
 585 678 710 519 710 324 c 0
 710 122 569 -14 370 -14 c 0
 209 -14 42 102 42 318 c 0
142 345 m 0
 142 166 229 20 371 20 c 0
 533 20 612 180 612 333 c 0
 612 485 535 644 375 644 c 0
 234 644 142 497 142 345 c 0
EndSplineSet
Substitution2: "'c2sc' Capitals to Small Capitals in Latin lookup 14 subtable" Oacute.c2
AlternateSubs2: "'aalt' Access All Alternates in Latin lookup 1 subtable" Oacute.c2
AlternateSubs2: "'aalt' Access All Alternates lookup 0 subtable" Oacute.c2
Position2: "'cpsp' Capital Spacing in Latin lookup 0 subtable" dx=4 dy=0 dh=8 dv=0
EndChar

StartChar: Ocircumflex
Encoding: 212 212 148
Width: 752
GlyphClass: 2
Flags: MW
HStem: -14 34<300 452 300 469.5> 644 34<304.5 455> 726 116<265.5 387 267 387 363 471 363 483>
VStem: 42 100<255.5 421 255.5 427> 260 230<728 731.5 728 732> 612 98<256.5 409>
LayerCount: 2
Back
Fore
SplineSet
260 730 m 0
 260 734 264 736 266 739 c 2
 345 828 l 2
 355 839 356 842 363 842 c 2
 387 842 l 2
 394 842 396 839 405 828 c 2
 484 739 l 2
 486 737 490 733 490 730 c 0
 490 726 486 726 483 726 c 2
 471 726 l 2
 468 726 463 729 458 732 c 2
 378 777 l 2
 376 778 374 778 372 777 c 2
 292 732 l 2
 287 729 282 726 279 726 c 2
 267 726 l 2
 264 726 260 726 260 730 c 0
42 318 m 0
 42 536 199 678 385 678 c 0
 585 678 710 519 710 324 c 0
 710 122 569 -14 370 -14 c 0
 209 -14 42 102 42 318 c 0
142 345 m 0
 142 166 229 20 371 20 c 0
 533 20 612 180 612 333 c 0
 612 485 535 644 375 644 c 0
 234 644 142 497 142 345 c 0
EndSplineSet
Substitution2: "'c2sc' Capitals to Small Capitals in Latin lookup 14 subtable" Ocircumflex.c2
AlternateSubs2: "'aalt' Access All Alternates in Latin lookup 1 subtable" Ocircumflex.c2
AlternateSubs2: "'aalt' Access All Alternates lookup 0 subtable" Ocircumflex.c2
Position2: "'cpsp' Capital Spacing in Latin lookup 0 subtable" dx=4 dy=0 dh=8 dv=0
EndChar

StartChar: Otilde
Encoding: 213 213 149
Width: 752
GlyphClass: 2
Flags: MW
HStem: -14 34<300 452 300 469.5> 644 34<304.5 455> 743 51<410 424> 780 52<325 337>
VStem: 42 100<255.5 421 255.5 427> 456 24 612 98<256.5 409>
LayerCount: 2
Back
Fore
SplineSet
267 748 m 0x24
 267 754 272 768 275 775 c 0
 291 814 316 832 334 832 c 0x14
 367 832 398 794 422 794 c 0x24
 441 794 451 810 456 827 c 0
 459 836 458 836 467 836 c 0
 473 836 480 836 480 832 c 0x14
 480 824 476 811 473 803 c 0
 460 769 438 743 410 743 c 0x24
 373 743 352 780 322 780 c 0x14
 302 780 295 765 290 751 c 0
 288 744 289 743 277 743 c 0
 269 743 267 743 267 748 c 0x24
42 318 m 0xca
 42 536 199 678 385 678 c 0
 585 678 710 519 710 324 c 0
 710 122 569 -14 370 -14 c 0
 209 -14 42 102 42 318 c 0xca
142 345 m 0
 142 166 229 20 371 20 c 0
 533 20 612 180 612 333 c 0
 612 485 535 644 375 644 c 0
 234 644 142 497 142 345 c 0
EndSplineSet
Substitution2: "'c2sc' Capitals to Small Capitals in Latin lookup 14 subtable" Otilde.c2
AlternateSubs2: "'aalt' Access All Alternates in Latin lookup 1 subtable" Otilde.c2
AlternateSubs2: "'aalt' Access All Alternates lookup 0 subtable" Otilde.c2
Position2: "'cpsp' Capital Spacing in Latin lookup 0 subtable" dx=4 dy=0 dh=8 dv=0
EndChar

StartChar: Odieresis
Encoding: 214 214 150
Width: 752
GlyphClass: 2
Flags: MW
HStem: -14 34<300 452 300 469.5> 644 34<304.5 455> 739 102<291.5 299.5 451.5 459.5>
VStem: 42 100<255.5 421 255.5 427> 241 108<780 802> 401 108<780 802> 612 98<256.5 409>
LayerCount: 2
Back
Fore
SplineSet
241 783 m 0
 241 821 279 841 304 841 c 0
 326 841 349 829 349 798 c 0
 349 762 314 739 285 739 c 0
 263 739 241 753 241 783 c 0
401 783 m 0
 401 821 439 841 464 841 c 0
 486 841 509 829 509 798 c 0
 509 762 474 739 445 739 c 0
 423 739 401 753 401 783 c 0
42 318 m 0
 42 536 199 678 385 678 c 0
 585 678 710 519 710 324 c 0
 710 122 569 -14 370 -14 c 0
 209 -14 42 102 42 318 c 0
142 345 m 0
 142 166 229 20 371 20 c 0
 533 20 612 180 612 333 c 0
 612 485 535 644 375 644 c 0
 234 644 142 497 142 345 c 0
EndSplineSet
Substitution2: "'c2sc' Capitals to Small Capitals in Latin lookup 14 subtable" Odieresis.c2
AlternateSubs2: "'aalt' Access All Alternates in Latin lookup 1 subtable" Odieresis.c2
AlternateSubs2: "'aalt' Access All Alternates lookup 0 subtable" Odieresis.c2
Position2: "'cpsp' Capital Spacing in Latin lookup 0 subtable" dx=4 dy=0 dh=8 dv=0
EndChar

StartChar: multiply
Encoding: 215 215 151
Width: 527
GlyphClass: 2
Flags: MW
HStem: 367 20G<110.5 118.5>
LayerCount: 2
Back
Fore
SplineSet
85 358 m 0
 85 367 105 387 116 387 c 0
 121 387 127 383 132 378 c 2
 248 263 l 2
 256 255 265 247 274 256 c 2
 399 381 l 2
 403 385 409 388 413 388 c 0
 421 388 441 370 441 358 c 0
 441 353 437 348 431 342 c 2
 310 221 l 2
 300 211 301 209 310 200 c 2
 434 76 l 2
 439 71 441 66 441 62 c 0
 441 52 421 32 412 32 c 0
 408 32 402 35 397 40 c 2
 274 164 l 2
 263 175 260 171 249 160 c 2
 129 40 l 2
 124 35 119 32 115 32 c 0
 106 32 86 51 86 61 c 0
 86 66 90 71 95 76 c 2
 215 197 l 2
 225 207 226 212 217 221 c 2
 93 345 l 2
 89 349 85 353 85 358 c 0
EndSplineSet
EndChar

StartChar: Oslash
Encoding: 216 216 152
Width: 752
GlyphClass: 2
Flags: MW
HStem: -14 34<346 452 346 469.5> 644 34<304.5 400>
VStem: 42 100<298.5 421 298.5 427> 612 98<256.5 377>
LayerCount: 2
Back
Fore
SplineSet
42 318 m 0
 42 536 199 678 385 678 c 0
 438 678 487 667 528 647 c 0
 534 644 534 643 537 649 c 2
 580 724 l 1
 581 725 l 2
 582 725 583 726 585 726 c 0
 589 726 593 724 597 721 c 0
 601 719 609 714 606 708 c 2
 562 634 l 1
 562 634 560 631 560 629 c 2
 560 629 561 627 563 626 c 0
 656 563 710 452 710 324 c 0
 710 122 569 -14 370 -14 c 0
 318 -14 264 -2 217 22 c 0
 212 25 211 26 209 22 c 2
 166 -51 l 2
 164 -54 162 -58 158 -58 c 0
 150 -57 145 -53 139 -48 c 0
 137 -47 137 -43 137 -42 c 2
 183 37 l 2
 185 40 183 42 180 44 c 0
 99 99 42 191 42 318 c 0
142 345 m 0
 142 252 166 166 209 107 c 0
 212 103 214 101 216 101 c 0
 218 101 220 103 222 106 c 2
 505 594 l 2
 507 597 508 599 502 603 c 0
 467 630 425 644 375 644 c 0
 234 644 142 497 142 345 c 0
240 74 m 0
 240 73 240 72 242 70 c 0
 278 38 321 20 371 20 c 0
 533 20 612 180 612 333 c 0
 612 421 586 514 533 574 c 0
 532 575 530 576 528 574 c 2
 241 78 l 2
 240 77 240 75 240 74 c 0
EndSplineSet
Substitution2: "'c2sc' Capitals to Small Capitals in Latin lookup 14 subtable" Oslash.c2
AlternateSubs2: "'aalt' Access All Alternates in Latin lookup 1 subtable" Oslash.c2
AlternateSubs2: "'aalt' Access All Alternates lookup 0 subtable" Oslash.c2
Position2: "'cpsp' Capital Spacing in Latin lookup 0 subtable" dx=4 dy=0 dh=8 dv=0
EndChar

StartChar: Ugrave
Encoding: 217 217 153
Width: 755
GlyphClass: 2
Flags: MW
HStem: -14 51<311.5 356.5> 631 36<49 55 55 63 48.5 93 254.5 262 514 520 520 528 696 697> 726 124<294 369 294 390>
VStem: 96 88<166 243.5> 272 127<728 829.5> 576 87
LayerCount: 2
Back
Fore
SplineSet
272 822 m 0
 272 837 283 850 305 850 c 0
 322 850 333 838 342 824 c 2
 395 738 l 2
 396 736 399 733 399 730 c 0
 399 726 393 726 390 726 c 2
 369 726 l 2
 367 726 362 731 359 733 c 2
 287 793 l 2
 277 801 272 811 272 822 c 0
37 649 m 0
 37 666 42 667 55 667 c 0
 71 667 120 664 150 664 c 0
 180 664 243 667 266 667 c 0
 280 667 281 663 281 646 c 0
 281 632 278 631 262 631 c 2
 197 631 l 2
 189 631 184 270 184 228 c 0
 184 102 241 37 382 37 c 0
 466 37 524 71 552 90 c 0
 576 106 576 101 576 247 c 2
 576 552 l 2
 576 593 575 631 570 631 c 2
 520 631 l 2
 508 631 500 632 500 649 c 0
 500 666 507 667 520 667 c 0
 536 667 593 664 623 664 c 0
 653 664 691 667 701 667 c 0
 715 667 718 663 718 646 c 0
 718 632 713 631 697 631 c 2
 674 631 l 2
 666 631 667 463 663 317 c 0
 660 180 656 46 656 25 c 0
 656 18 655 -10 632 -10 c 0
 608 -10 589 63 570 63 c 0
 564 63 543 53 525 43 c 0
 478 16 395 -14 318 -14 c 0
 114 -14 96 105 96 227 c 0
 96 260 97 496 97 575 c 0
 97 606 97 631 93 631 c 2
 55 631 l 2
 43 631 37 632 37 649 c 0
EndSplineSet
Substitution2: "'c2sc' Capitals to Small Capitals in Latin lookup 14 subtable" Ugrave.c2
AlternateSubs2: "'aalt' Access All Alternates in Latin lookup 1 subtable" Ugrave.c2
AlternateSubs2: "'aalt' Access All Alternates lookup 0 subtable" Ugrave.c2
Position2: "'cpsp' Capital Spacing in Latin lookup 0 subtable" dx=4 dy=0 dh=8 dv=0
EndChar

StartChar: Uacute
Encoding: 218 218 154
Width: 755
GlyphClass: 2
Flags: MW
HStem: -14 51<311.5 356.5> 631 36<49 55 55 63 48.5 93 254.5 262 514 520 520 528 696 697> 726 124<373.5 474 375 474>
VStem: 96 88<166 243.5> 369 127<727.5 829.5> 576 87
LayerCount: 2
Back
Fore
SplineSet
369 729 m 0
 369 732 372 736 373 738 c 2
 426 824 l 2
 435 838 446 850 463 850 c 0
 485 850 496 837 496 822 c 0
 496 811 490 801 481 793 c 2
 409 733 l 2
 406 731 404 726 399 726 c 2
 375 726 l 2
 372 726 369 726 369 729 c 0
37 649 m 0
 37 666 42 667 55 667 c 0
 71 667 120 664 150 664 c 0
 180 664 243 667 266 667 c 0
 280 667 281 663 281 646 c 0
 281 632 278 631 262 631 c 2
 197 631 l 2
 189 631 184 270 184 228 c 0
 184 102 241 37 382 37 c 0
 466 37 524 71 552 90 c 0
 576 106 576 101 576 247 c 2
 576 552 l 2
 576 593 575 631 570 631 c 2
 520 631 l 2
 508 631 500 632 500 649 c 0
 500 666 507 667 520 667 c 0
 536 667 593 664 623 664 c 0
 653 664 691 667 701 667 c 0
 715 667 718 663 718 646 c 0
 718 632 713 631 697 631 c 2
 674 631 l 2
 666 631 667 463 663 317 c 0
 660 180 656 46 656 25 c 0
 656 18 655 -10 632 -10 c 0
 608 -10 589 63 570 63 c 0
 564 63 543 53 525 43 c 0
 478 16 395 -14 318 -14 c 0
 114 -14 96 105 96 227 c 0
 96 260 97 496 97 575 c 0
 97 606 97 631 93 631 c 2
 55 631 l 2
 43 631 37 632 37 649 c 0
EndSplineSet
Substitution2: "'c2sc' Capitals to Small Capitals in Latin lookup 14 subtable" Uacute.c2
AlternateSubs2: "'aalt' Access All Alternates in Latin lookup 1 subtable" Uacute.c2
AlternateSubs2: "'aalt' Access All Alternates lookup 0 subtable" Uacute.c2
Position2: "'cpsp' Capital Spacing in Latin lookup 0 subtable" dx=4 dy=0 dh=8 dv=0
EndChar

StartChar: Ucircumflex
Encoding: 219 219 155
Width: 755
GlyphClass: 2
Flags: MW
HStem: -14 51<311.5 356.5> 631 36<49 55 55 63 48.5 93 254.5 262 514 520 520 528 696 697> 726 116<274.5 396 276 396 372 480 372 492>
VStem: 96 88<166 243.5> 269 230<728 731.5 728 732> 576 87
LayerCount: 2
Back
Fore
SplineSet
269 730 m 0
 269 734 273 736 275 739 c 2
 354 828 l 2
 364 839 365 842 372 842 c 2
 396 842 l 2
 403 842 405 839 414 828 c 2
 493 739 l 2
 495 737 499 733 499 730 c 0
 499 726 495 726 492 726 c 2
 480 726 l 2
 477 726 472 729 467 732 c 2
 387 777 l 2
 385 778 383 778 381 777 c 2
 301 732 l 2
 296 729 291 726 288 726 c 2
 276 726 l 2
 273 726 269 726 269 730 c 0
37 649 m 0
 37 666 42 667 55 667 c 0
 71 667 120 664 150 664 c 0
 180 664 243 667 266 667 c 0
 280 667 281 663 281 646 c 0
 281 632 278 631 262 631 c 2
 197 631 l 2
 189 631 184 270 184 228 c 0
 184 102 241 37 382 37 c 0
 466 37 524 71 552 90 c 0
 576 106 576 101 576 247 c 2
 576 552 l 2
 576 593 575 631 570 631 c 2
 520 631 l 2
 508 631 500 632 500 649 c 0
 500 666 507 667 520 667 c 0
 536 667 593 664 623 664 c 0
 653 664 691 667 701 667 c 0
 715 667 718 663 718 646 c 0
 718 632 713 631 697 631 c 2
 674 631 l 2
 666 631 667 463 663 317 c 0
 660 180 656 46 656 25 c 0
 656 18 655 -10 632 -10 c 0
 608 -10 589 63 570 63 c 0
 564 63 543 53 525 43 c 0
 478 16 395 -14 318 -14 c 0
 114 -14 96 105 96 227 c 0
 96 260 97 496 97 575 c 0
 97 606 97 631 93 631 c 2
 55 631 l 2
 43 631 37 632 37 649 c 0
EndSplineSet
Substitution2: "'c2sc' Capitals to Small Capitals in Latin lookup 14 subtable" Ucircumflex.c2
AlternateSubs2: "'aalt' Access All Alternates in Latin lookup 1 subtable" Ucircumflex.c2
AlternateSubs2: "'aalt' Access All Alternates lookup 0 subtable" Ucircumflex.c2
Position2: "'cpsp' Capital Spacing in Latin lookup 0 subtable" dx=4 dy=0 dh=8 dv=0
EndChar

StartChar: Udieresis
Encoding: 220 220 156
Width: 755
GlyphClass: 2
Flags: MW
HStem: -14 51<311.5 356.5> 631 36<49 55 55 63 48.5 93 254.5 262 514 520 520 528 696 697> 739 102<300.5 308.5 460.5 468.5>
VStem: 96 88<166 243.5> 250 108<780 802> 410 108<780 802> 576 87
LayerCount: 2
Back
Fore
SplineSet
250 783 m 0
 250 821 288 841 313 841 c 0
 335 841 358 829 358 798 c 0
 358 762 323 739 294 739 c 0
 272 739 250 753 250 783 c 0
410 783 m 0
 410 821 448 841 473 841 c 0
 495 841 518 829 518 798 c 0
 518 762 483 739 454 739 c 0
 432 739 410 753 410 783 c 0
37 649 m 0
 37 666 42 667 55 667 c 0
 71 667 120 664 150 664 c 0
 180 664 243 667 266 667 c 0
 280 667 281 663 281 646 c 0
 281 632 278 631 262 631 c 2
 197 631 l 2
 189 631 184 270 184 228 c 0
 184 102 241 37 382 37 c 0
 466 37 524 71 552 90 c 0
 576 106 576 101 576 247 c 2
 576 552 l 2
 576 593 575 631 570 631 c 2
 520 631 l 2
 508 631 500 632 500 649 c 0
 500 666 507 667 520 667 c 0
 536 667 593 664 623 664 c 0
 653 664 691 667 701 667 c 0
 715 667 718 663 718 646 c 0
 718 632 713 631 697 631 c 2
 674 631 l 2
 666 631 667 463 663 317 c 0
 660 180 656 46 656 25 c 0
 656 18 655 -10 632 -10 c 0
 608 -10 589 63 570 63 c 0
 564 63 543 53 525 43 c 0
 478 16 395 -14 318 -14 c 0
 114 -14 96 105 96 227 c 0
 96 260 97 496 97 575 c 0
 97 606 97 631 93 631 c 2
 55 631 l 2
 43 631 37 632 37 649 c 0
EndSplineSet
Substitution2: "'c2sc' Capitals to Small Capitals in Latin lookup 14 subtable" Udieresis.c2
AlternateSubs2: "'aalt' Access All Alternates in Latin lookup 1 subtable" Udieresis.c2
AlternateSubs2: "'aalt' Access All Alternates lookup 0 subtable" Udieresis.c2
Position2: "'cpsp' Capital Spacing in Latin lookup 0 subtable" dx=4 dy=0 dh=8 dv=0
EndChar

StartChar: Yacute
Encoding: 221 221 157
Width: 597
GlyphClass: 2
Flags: MW
HStem: -3 33 636 36<19 25 25 31.5 18.5 54 240.5 245 413 421 421 423 563 571> 726 124<317.5 418 319 418>
VStem: 260 91<259.5 276.5> 313 127<727.5 829.5>
LayerCount: 2
Back
Fore
SplineSet
313 729 m 0x28
 313 732 316 736 317 738 c 2
 370 824 l 2
 379 838 390 850 407 850 c 0
 429 850 440 837 440 822 c 0
 440 811 434 801 425 793 c 2
 353 733 l 2
 350 731 348 726 343 726 c 2
 319 726 l 2
 316 726 313 726 313 729 c 0x28
7 654 m 0xd0
 7 671 12 672 25 672 c 0
 38 672 73 669 131 669 c 0
 188 669 232 672 249 672 c 0
 260 672 263 668 263 651 c 0
 263 637 261 636 245 636 c 2
 186 636 l 2
 173 636 174 635 178 625 c 0
 199 574 291 408 320 352 c 0
 328 337 328 334 336 349 c 0
 363 401 475 611 475 633 c 0
 475 635 474 636 473 636 c 2
 421 636 l 2
 405 636 400 637 400 651 c 0
 400 668 403 672 417 672 c 0
 429 672 453 669 495 669 c 0
 538 669 555 672 571 672 c 0
 584 672 590 670 590 654 c 0
 590 637 583 636 571 636 c 2
 537 636 l 2
 532 636 393 384 354 322 c 0
 351 318 351 316 351 313 c 0
 351 206 353 30 360 30 c 2
 429 30 l 2
 441 30 443 26 443 14 c 0
 443 -1 441 -6 429 -6 c 0
 406 -6 368 -3 309 -3 c 0
 267 -3 209 -6 195 -6 c 0
 181 -6 180 -2 180 15 c 0
 180 29 183 30 199 30 c 2
 250 30 l 2
 259 30 260 150 260 271 c 0
 260 282 257 286 253 293 c 0
 224 347 63 636 54 636 c 2
 25 636 l 2
 13 636 7 637 7 654 c 0xd0
EndSplineSet
Substitution2: "'c2sc' Capitals to Small Capitals in Latin lookup 14 subtable" Yacute.c2
AlternateSubs2: "'aalt' Access All Alternates in Latin lookup 1 subtable" Yacute.c2
AlternateSubs2: "'aalt' Access All Alternates lookup 0 subtable" Yacute.c2
Position2: "'cpsp' Capital Spacing in Latin lookup 0 subtable" dx=4 dy=0 dh=8 dv=0
EndChar

